SplineFontDB: 3.2
FontName: lisc
FullName: lisc
FamilyName: lisc
Weight: Book
Version: 1.0
ItalicAngle: 0
UnderlinePosition: 0
UnderlineWidth: 0
Ascent: 480
Descent: 32
InvalidEm: 0
sfntRevision: 0x00010000
LayerCount: 2
Layer: 0 1 "Back" 1
Layer: 1 1 "Fore" 0
XUID: [1021 456 2137950714 9626970]
StyleMap: 0x0040
FSType: 8
OS2Version: 3
OS2_WeightWidthSlopeOnly: 0
OS2_UseTypoMetrics: 0
CreationTime: 1622127608
ModificationTime: 1622229509
PfmFamily: 17
TTFWeight: 400
TTFWidth: 5
LineGap: 46
VLineGap: 0
Panose: 2 0 5 9 0 0 0 0 0 0
OS2TypoAscent: 480
OS2TypoAOffset: 0
OS2TypoDescent: -32
OS2TypoDOffset: 0
OS2TypoLinegap: 46
OS2WinAscent: 512
OS2WinAOffset: 0
OS2WinDescent: 0
OS2WinDOffset: 0
HheadAscent: 512
HheadAOffset: 0
HheadDescent: 0
HheadDOffset: 0
OS2SubXSize: 332
OS2SubYSize: 358
OS2SubXOff: 0
OS2SubYOff: 71
OS2SupXSize: 332
OS2SupYSize: 358
OS2SupXOff: 0
OS2SupYOff: 245
OS2StrikeYSize: 25
OS2StrikeYPos: 132
OS2CapHeight: 475
OS2XHeight: 475
OS2Vendor: 'PfEd'
OS2CodePages: 00000001.00000000
OS2UnicodeRanges: 00000001.10000000.00000000.00000000
DEI: 91125
ShortTable: maxp 16
  1
  0
  117
  381
  14
  0
  0
  2
  0
  1
  1
  0
  64
  0
  0
  0
EndShort
LangName: 1033
GaspTable: 1 65535 2 0
Encoding: ISO8859-1
UnicodeInterp: none
NameList: AGL For New Fonts
DisplaySize: -48
AntiAlias: 1
FitToEm: 0
WinInfo: 19 19 14
Grid
-512 468.027770996 m 0
 1024 468.027770996 l 1024
EndSplineSet
BeginChars: 276 107

StartChar: fontawesome-webfont-40
Encoding: 33 33 0
GlifName: fontawesome-webfont-40
Width: 512
GlyphClass: 2
Flags: W
LayerCount: 2
Fore
SplineSet
293 119 m 2,0,-1
 293 173 l 2,1,2
 293 177 293 177 290 180 c 128,-1,3
 287 183 287 183 283 183 c 2,4,-1
 229 183 l 2,5,6
 225 183 225 183 222 180 c 128,-1,7
 219 177 219 177 219 173 c 2,8,-1
 219 119 l 2,9,10
 219 115 219 115 222 112 c 0,11,12
 226 110 226 110 229 110 c 2,13,-1
 283 110 l 2,14,15
 286 110 286 110 290 112 c 0,16,17
 293 115 293 115 293 119 c 2,0,-1
292 226 m 2,18,-1
 297 357 l 2,19,20
 297 360 297 360 294 363 c 128,-1,21
 291 366 291 366 287 366 c 2,22,-1
 225 366 l 2,23,24
 221 366 221 366 218 363 c 128,-1,25
 215 360 215 360 215 357 c 2,26,-1
 220 226 l 2,27,28
 220 224 220 224 223 221 c 0,29,30
 225 219 225 219 229 219 c 2,31,-1
 282 219 l 2,32,33
 285 219 285 219 289 221 c 0,34,35
 292 224 292 224 292 226 c 2,18,-1
288 493 m 2,36,-1
 507 91 l 2,37,38
 518 73 518 73 507 55 c 0,39,40
 504 49 504 49 494 41 c 0,41,42
 486 37 486 37 475 37 c 2,43,-1
 37 37 l 2,44,45
 26 37 26 37 18 41 c 0,46,47
 8 49 8 49 5 55 c 0,48,49
 -6 73 -6 73 5 91 c 2,50,-1
 224 493 l 2,51,52
 227 499 227 499 237 507 c 0,53,54
 247 512 247 512 256 512 c 128,-1,55
 265 512 265 512 275 507 c 0,56,57
 285 499 285 499 288 493 c 2,36,-1
EndSplineSet
Validated: 545
EndChar

StartChar: link
Encoding: 34 34 1
GlifName: link
Width: 512
GlyphClass: 2
Flags: W
LayerCount: 2
Fore
SplineSet
202 136 m 2,0,1
 209 143 209 143 219 143 c 0,2,3
 230 143 230 143 238 136 c 0,4,5
 253 120 253 120 238 100 c 1,6,-1
 216 80 l 2,7,8
 187 51 187 51 148 51 c 128,-1,9
 109 51 109 51 80 80 c 128,-1,10
 51 109 51 109 51 147 c 0,11,12
 51 187 51 187 80 216 c 2,13,-1
 156 292 l 2,14,15
 192 327 192 327 229 331 c 0,16,17
 267 335 267 335 295 309 c 0,18,19
 303 301 303 301 303 291 c 0,20,21
 303 282 303 282 295 272 c 0,22,23
 277 256 277 256 259 272 c 0,24,25
 234 298 234 298 191 255 c 2,26,-1
 116 180 l 2,27,28
 102 166 102 166 102 147 c 128,-1,29
 102 128 102 128 116 116 c 0,30,31
 130 102 130 102 148 102 c 128,-1,32
 166 102 166 102 180 116 c 2,33,-1
 202 136 l 2,0,1
432 430 m 0,34,35
 461 401 461 401 461 362 c 128,-1,36
 461 323 461 323 432 294 c 2,37,-1
 351 213 l 2,38,39
 314 176 314 176 274 176 c 0,40,41
 243 176 243 176 217 202 c 0,42,43
 210 209 210 209 210 219 c 0,44,45
 210 230 210 230 217 238 c 0,46,47
 226 245 226 245 235 245 c 128,-1,48
 244 245 244 245 253 238 c 0,49,50
 279 212 279 212 315 250 c 2,51,-1
 396 330 l 2,52,53
 411 344 411 344 411 362 c 0,54,55
 411 382 411 382 396 394 c 0,56,57
 384 407 384 407 368 410 c 0,58,59
 351 413 351 413 337 399 c 2,60,-1
 311 374 l 2,61,62
 304 367 304 367 293 367 c 128,-1,63
 282 367 282 367 275 374 c 0,64,65
 258 390 258 390 275 410 c 2,66,-1
 301 435 l 2,67,68
 327 463 327 463 366 461 c 0,69,70
 404 459 404 459 432 430 c 0,34,35
EndSplineSet
Validated: 33
EndChar

StartChar: share-alt
Encoding: 36 36 2
GlifName: share-alt
Width: 512
GlyphClass: 2
Flags: W
LayerCount: 2
Fore
SplineSet
384 219 m 0,0,1
 423 219 423 219 449 193 c 128,-1,2
 475 167 475 167 475 128 c 128,-1,3
 475 89 475 89 449 63 c 128,-1,4
 423 37 423 37 384 37 c 128,-1,5
 345 37 345 37 319 63 c 128,-1,6
 293 89 293 89 293 128 c 2,7,-1
 293 138 l 1,8,-1
 190 189 l 1,9,10
 164 165 164 165 128 165 c 0,11,12
 89 165 89 165 63 191 c 128,-1,13
 37 217 37 217 37 256 c 128,-1,14
 37 295 37 295 63 321 c 128,-1,15
 89 347 89 347 128 347 c 0,16,17
 164 347 164 347 190 323 c 1,18,-1
 293 374 l 1,19,-1
 293 384 l 2,20,21
 293 423 293 423 319 449 c 128,-1,22
 345 475 345 475 384 475 c 128,-1,23
 423 475 423 475 449 449 c 128,-1,24
 475 423 475 423 475 384 c 128,-1,25
 475 345 475 345 449 319 c 128,-1,26
 423 293 423 293 384 293 c 0,27,28
 348 293 348 293 322 317 c 1,29,-1
 219 266 l 1,30,-1
 219 256 l 1,31,-1
 219 246 l 1,32,-1
 322 195 l 1,33,34
 348 219 348 219 384 219 c 0,0,1
EndSplineSet
Validated: 513
EndChar

StartChar: gear
Encoding: 37 37 3
GlifName: gear
Width: 512
GlyphClass: 2
Flags: W
LayerCount: 2
Fore
SplineSet
256 337 m 128,-1,1
 222 337 222 337 198.5 313.5 c 128,-1,2
 175 290 175 290 175 256 c 128,-1,3
 175 222 175 222 198.5 198.5 c 128,-1,4
 222 175 222 175 256 175 c 128,-1,5
 290 175 290 175 313.5 198.5 c 128,-1,6
 337 222 337 222 337 256 c 128,-1,7
 337 290 337 290 313.5 313.5 c 128,-1,0
 290 337 290 337 256 337 c 128,-1,1
418 209 m 1,8,-1
 404 174 l 1,9,-1
 430 123 l 1,10,-1
 433 116 l 1,11,-1
 397 80 l 1,12,-1
 338 108 l 1,13,-1
 303 94 l 1,14,-1
 285 39 l 1,15,-1
 283 32 l 1,16,-1
 232 32 l 1,17,-1
 210 94 l 1,18,-1
 174 108 l 1,19,-1
 123 82 l 1,20,-1
 116 79 l 1,21,-1
 80 115 l 1,22,-1
 108 174 l 1,23,-1
 94 209 l 1,24,-1
 39 227 l 1,25,-1
 32 229 l 1,26,-1
 32 280 l 1,27,-1
 94 302 l 1,28,-1
 108 338 l 1,29,-1
 82 389 l 1,30,-1
 79 396 l 1,31,-1
 115 432 l 1,32,-1
 174 404 l 1,33,-1
 209 418 l 1,34,-1
 227 473 l 1,35,-1
 229 480 l 1,36,-1
 280 480 l 1,37,-1
 302 418 l 1,38,-1
 338 404 l 1,39,-1
 389 430 l 1,40,-1
 396 433 l 1,41,-1
 432 397 l 1,42,-1
 404 338 l 1,43,-1
 418 303 l 1,44,-1
 473 285 l 1,45,-1
 480 283 l 1,46,-1
 480 232 l 1,47,-1
 418 209 l 1,8,-1
EndSplineSet
Validated: 1
EndChar

StartChar: repo
Encoding: 38 38 4
GlifName: repo
Width: 512
GlyphClass: 2
Flags: W
LayerCount: 2
Fore
SplineSet
120 176 m 128,-1,1
 143 176 143 176 159.5 159.5 c 128,-1,2
 176 143 176 143 176 120 c 128,-1,3
 176 97 176 97 159.5 80.5 c 128,-1,4
 143 64 143 64 120 64 c 128,-1,5
 97 64 97 64 80.5 80.5 c 128,-1,6
 64 97 64 97 64 120 c 128,-1,7
 64 143 64 143 80.5 159.5 c 128,-1,0
 97 176 97 176 120 176 c 128,-1,1
64 320 m 1,8,9
 169 320 169 320 244.5 244.5 c 128,-1,10
 320 169 320 169 320 64 c 1,11,-1
 240 64 l 1,12,13
 240 144 240 144 192 192 c 128,-1,14
 144 240 144 240 64 240 c 1,15,-1
 64 320 l 1,8,9
64 448 m 1,16,17
 223 448 223 448 335.5 335.5 c 128,-1,18
 448 223 448 223 448 64 c 1,19,-1
 368 64 l 1,20,21
 368 192 368 192 280 280 c 128,-1,22
 192 368 192 368 64 368 c 1,23,-1
 64 448 l 1,16,17
EndSplineSet
Validated: 1
EndChar

StartChar: die-six
Encoding: 39 39 5
GlifName: die-six
Width: 512
GlyphClass: 2
Flags: W
LayerCount: 2
Fore
SplineSet
110 128 m 128,-1,1
 110 135 110 135 104 141 c 0,2,3
 99 146 99 146 91 146 c 0,4,5
 84 146 84 146 79 141 c 0,6,7
 73 135 73 135 73 128 c 128,-1,8
 73 121 73 121 79 115 c 0,9,10
 84 110 84 110 91 110 c 0,11,12
 99 110 99 110 104 115 c 0,13,0
 110 121 110 121 110 128 c 128,-1,1
439 293 m 0,14,15
 439 307 439 307 428 318 c 0,16,17
 415 329 415 329 402 329 c 2,18,-1
 302 329 l 1,19,20
 302 346 302 346 315 375 c 0,21,22
 329 402 329 402 329 421 c 0,23,24
 329 448 329 448 320 462 c 0,25,26
 311 475 311 475 283 475 c 1,27,28
 276 468 276 468 273 451 c 0,29,30
 268 434 268 434 264 415 c 0,31,32
 257 394 257 394 247 384 c 0,33,34
 238 375 238 375 225 358 c 1,35,-1
 224 356 l 2,36,37
 223 355 223 355 221.5 353 c 128,-1,38
 220 351 220 351 218 349 c 0,39,40
 212 341 212 341 209 338 c 0,41,42
 205 332 205 332 199 326 c 0,43,44
 191 316 191 316 188 313 c 0,45,46
 181 306 181 306 177 303 c 0,47,48
 175 301 175 301 166 295 c 0,49,50
 162 293 162 293 155 293 c 2,51,-1
 146 293 l 1,52,-1
 146 110 l 1,53,-1
 155 110 l 2,54,55
 156 110 156 110 159 109.5 c 128,-1,56
 162 109 162 109 164 109 c 128,-1,57
 166 109 166 109 169 108.5 c 128,-1,58
 172 108 172 108 174 107 c 0,59,60
 180 105 180 105 185 104 c 0,61,62
 191 101 191 101 195 101 c 2,63,-1
 205 97 l 2,64,65
 211 94 211 94 213 94 c 0,66,67
 273 73 273 73 311 73 c 2,68,-1
 345 73 l 2,69,70
 400 73 400 73 400 121 c 0,71,72
 400 131 400 131 399 137 c 1,73,74
 407 141 407 141 412 152 c 0,75,76
 417 161 417 161 417 173 c 0,77,78
 417 184 417 184 412 193 c 1,79,80
 427 206 427 206 427 227 c 0,81,82
 427 232 427 232 425 242 c 0,83,84
 422 251 422 251 417 256 c 1,85,86
 426 256 426 256 433 269 c 0,87,88
 439 282 439 282 439 293 c 0,14,15
475 293 m 0,89,90
 475 266 475 266 461 246 c 1,91,92
 464 237 464 237 464 227 c 0,93,94
 464 205 464 205 453 185 c 0,95,96
 454 181 454 181 454 173 c 0,97,98
 454 145 454 145 437 122 c 1,99,100
 437 82 437 82 413 60 c 0,101,102
 389 37 389 37 348 37 c 2,103,-1
 311 37 l 2,104,105
 284 37 284 37 257 43 c 0,106,107
 237 48 237 48 195 62 c 0,108,109
 160 73 160 73 155 73 c 2,110,-1
 73 73 l 2,111,112
 58 73 58 73 47 84 c 0,113,114
 37 94 37 94 37 110 c 2,115,-1
 37 293 l 2,116,117
 37 308 37 308 47 318 c 0,118,119
 57 329 57 329 73 329 c 2,120,-1
 151 329 l 1,121,122
 162 337 162 337 191 373 c 0,123,124
 206 393 206 393 221 410 c 0,125,126
 228 417 228 417 231 434 c 128,-1,127
 234 451 234 451 240 471 c 0,128,129
 246 489 246 489 258 501 c 0,130,131
 269 512 269 512 283 512 c 0,132,133
 308 512 308 512 327 503 c 0,134,135
 345 494 345 494 356 474 c 0,136,137
 366 452 366 452 366 421 c 0,138,139
 366 396 366 396 352 366 c 1,140,-1
 402 366 l 2,141,142
 430 366 430 366 454 344 c 0,143,144
 475 323 475 323 475 293 c 0,89,90
EndSplineSet
Validated: 513
EndChar

StartChar: flag
Encoding: 40 40 6
GlifName: flag
Width: 512
GlyphClass: 2
Flags: W
LayerCount: 2
Fore
SplineSet
32 352 m 1,0,-1
 256 128 l 1,1,-1
 480 352 l 1,2,-1
 32 352 l 1,0,-1
EndSplineSet
Validated: 9
EndChar

StartChar: flame
Encoding: 41 41 7
GlifName: flame
Width: 512
GlyphClass: 2
Flags: W
LayerCount: 2
Fore
SplineSet
480 160 m 1,0,-1
 256 384 l 1,1,-1
 32 160 l 1,2,-1
 480 160 l 1,0,-1
EndSplineSet
Validated: 9
EndChar

StartChar: feather
Encoding: 42 42 8
GlifName: feather
Width: 512
GlyphClass: 2
Flags: W
LayerCount: 2
Fore
SplineSet
512 192 m 0,0,1
 512 144 512 144 476 63 c 0,2,3
 474 61 474 61 473 56 c 2,4,-1
 469 48 l 2,5,6
 469 47 469 47 468 45.5 c 128,-1,7
 467 44 467 44 466 43 c 128,-1,8
 465 42 465 42 465 41 c 0,9,10
 462 37 462 37 457 37 c 0,11,12
 454 37 454 37 450 39 c 0,13,14
 448 43 448 43 448 47 c 128,-1,15
 448 51 448 51 449 54 c 2,16,-1
 449 61 l 2,17,18
 451 87 451 87 451 96 c 0,19,20
 451 121 451 121 446 148 c 0,21,22
 442 169 442 169 432 187 c 0,23,24
 423 204 423 204 409 216 c 0,25,26
 394 229 394 229 379 236 c 0,27,28
 362 244 362 244 341 248 c 0,29,30
 318 253 318 253 297 254 c 0,31,32
 267 256 267 256 247 256 c 2,33,-1
 183 256 l 1,34,-1
 183 183 l 2,35,36
 183 176 183 176 177 170 c 0,37,38
 173 165 173 165 165 165 c 0,39,40
 156 165 156 165 152 170 c 2,41,-1
 5 316 l 2,42,43
 0 323 0 323 0 329 c 128,-1,44
 0 335 0 335 5 342 c 2,45,-1
 152 488 l 2,46,47
 156 494 156 494 165 494 c 0,48,49
 172 494 172 494 177 488 c 0,50,51
 183 484 183 484 183 475 c 2,52,-1
 183 402 l 1,53,-1
 247 402 l 2,54,55
 451 402 451 402 497 287 c 0,56,57
 512 249 512 249 512 192 c 0,0,1
EndSplineSet
Validated: 1
EndChar

StartChar: turtle
Encoding: 43 43 9
GlifName: turtle
Width: 512
GlyphClass: 2
Flags: W
LayerCount: 2
Fore
SplineSet
201 101 m 1,0,-1
 201 95 l 2,1,2
 202 92 202 92 202 87 c 0,3,4
 201 85 201 85 201 81 c 0,5,6
 200 76 200 76 198 75 c 0,7,8
 194 73 194 73 192 73 c 2,9,-1
 101 73 l 2,10,11
 68 73 68 73 42 97 c 0,12,13
 18 121 18 121 18 155 c 2,14,-1
 18 357 l 2,15,16
 18 391 18 391 42 415 c 0,17,18
 67 439 67 439 101 439 c 2,19,-1
 192 439 l 2,20,21
 196 439 196 439 198 436 c 0,22,23
 201 433 201 433 201 430 c 2,24,-1
 201 424 l 2,25,26
 202 421 202 421 202 416 c 0,27,28
 201 414 201 414 201 410 c 0,29,30
 200 406 200 406 198 404 c 0,31,32
 194 402 194 402 192 402 c 2,33,-1
 101 402 l 2,34,35
 81 402 81 402 68 389 c 128,-1,36
 55 376 55 376 55 357 c 2,37,-1
 55 155 l 2,38,39
 55 136 55 136 68 123 c 128,-1,40
 81 110 81 110 101 110 c 2,41,-1
 190 110 l 2,42,43
 191 110 191 110 193 109 c 2,44,-1
 196 109 l 2,45,46
 196 108 196 108 199 107 c 0,47,48
 201 105 201 105 201 104 c 2,49,-1
 201 101 l 1,0,-1
466 256 m 128,-1,51
 466 250 466 250 461 243 c 2,52,-1
 305 88 l 2,53,54
 300 82 300 82 293 82 c 0,55,56
 284 82 284 82 280 88 c 0,57,58
 274 92 274 92 274 101 c 2,59,-1
 274 183 l 1,60,-1
 146 183 l 2,61,62
 140 183 140 183 133 188 c 0,63,64
 128 195 128 195 128 201 c 2,65,-1
 128 311 l 2,66,67
 128 317 128 317 133 324 c 0,68,69
 140 329 140 329 146 329 c 2,70,-1
 274 329 l 1,71,-1
 274 411 l 2,72,73
 274 419 274 419 280 424 c 0,74,75
 284 430 284 430 293 430 c 0,76,77
 300 430 300 430 305 424 c 2,78,-1
 461 269 l 2,79,50
 466 262 466 262 466 256 c 128,-1,51
EndSplineSet
Validated: 1
EndChar

StartChar: arrow-streamline-target
Encoding: 45 45 10
GlifName: arrow-streamline-target
Width: 512
GlyphClass: 2
Flags: W
LayerCount: 2
Fore
SplineSet
110 128 m 128,-1,1
 110 135 110 135 104 141 c 0,2,3
 99 146 99 146 91 146 c 0,4,5
 84 146 84 146 79 141 c 0,6,7
 73 135 73 135 73 128 c 128,-1,8
 73 121 73 121 79 115 c 0,9,10
 84 110 84 110 91 110 c 0,11,12
 99 110 99 110 104 115 c 0,13,0
 110 121 110 121 110 128 c 128,-1,1
439 293 m 0,14,15
 439 307 439 307 428 318 c 0,16,17
 415 329 415 329 402 329 c 2,18,-1
 302 329 l 1,19,20
 302 346 302 346 315 375 c 0,21,22
 329 402 329 402 329 421 c 0,23,24
 329 448 329 448 320 462 c 0,25,26
 311 475 311 475 283 475 c 1,27,28
 276 468 276 468 273 451 c 0,29,30
 268 434 268 434 264 415 c 0,31,32
 257 394 257 394 247 384 c 0,33,34
 238 375 238 375 225 358 c 1,35,-1
 224 356 l 2,36,37
 223 355 223 355 221.5 353 c 128,-1,38
 220 351 220 351 218 349 c 0,39,40
 212 341 212 341 209 338 c 0,41,42
 205 332 205 332 199 326 c 0,43,44
 191 316 191 316 188 313 c 0,45,46
 181 306 181 306 177 303 c 0,47,48
 175 301 175 301 166 295 c 0,49,50
 162 293 162 293 155 293 c 2,51,-1
 146 293 l 1,52,-1
 146 110 l 1,53,-1
 155 110 l 2,54,55
 156 110 156 110 159 109.5 c 128,-1,56
 162 109 162 109 164 109 c 128,-1,57
 166 109 166 109 169 108.5 c 128,-1,58
 172 108 172 108 174 107 c 0,59,60
 180 105 180 105 185 104 c 0,61,62
 191 101 191 101 195 101 c 2,63,-1
 205 97 l 2,64,65
 211 94 211 94 213 94 c 0,66,67
 273 73 273 73 311 73 c 2,68,-1
 345 73 l 2,69,70
 400 73 400 73 400 121 c 0,71,72
 400 131 400 131 399 137 c 1,73,74
 407 141 407 141 412 152 c 0,75,76
 417 161 417 161 417 173 c 0,77,78
 417 184 417 184 412 193 c 1,79,80
 427 206 427 206 427 227 c 0,81,82
 427 232 427 232 425 242 c 0,83,84
 422 251 422 251 417 256 c 1,85,86
 426 256 426 256 433 269 c 0,87,88
 439 282 439 282 439 293 c 0,14,15
475 293 m 0,89,90
 475 266 475 266 461 246 c 1,91,92
 464 237 464 237 464 227 c 0,93,94
 464 205 464 205 453 185 c 0,95,96
 454 181 454 181 454 173 c 0,97,98
 454 145 454 145 437 122 c 1,99,100
 437 82 437 82 413 60 c 0,101,102
 389 37 389 37 348 37 c 2,103,-1
 311 37 l 2,104,105
 284 37 284 37 257 43 c 0,106,107
 237 48 237 48 195 62 c 0,108,109
 160 73 160 73 155 73 c 2,110,-1
 73 73 l 2,111,112
 58 73 58 73 47 84 c 0,113,114
 37 94 37 94 37 110 c 2,115,-1
 37 293 l 2,116,117
 37 308 37 308 47 318 c 0,118,119
 57 329 57 329 73 329 c 2,120,-1
 151 329 l 1,121,122
 162 337 162 337 191 373 c 0,123,124
 206 393 206 393 221 410 c 0,125,126
 228 417 228 417 231 434 c 128,-1,127
 234 451 234 451 240 471 c 0,128,129
 246 489 246 489 258 501 c 0,130,131
 269 512 269 512 283 512 c 0,132,133
 308 512 308 512 327 503 c 0,134,135
 345 494 345 494 356 474 c 0,136,137
 366 452 366 452 366 421 c 0,138,139
 366 396 366 396 352 366 c 1,140,-1
 402 366 l 2,141,142
 430 366 430 366 454 344 c 0,143,144
 475 323 475 323 475 293 c 0,89,90
EndSplineSet
Validated: 513
EndChar

StartChar: buffer
Encoding: 46 46 11
GlifName: buffer
Width: 512
GlyphClass: 2
Flags: W
LayerCount: 2
Fore
SplineSet
71 348 m 2,0,1
 64 351 64 351 64 355.5 c 128,-1,2
 64 360 64 360 71 363 c 2,3,-1
 240 445 l 2,4,5
 246 448 246 448 256 448 c 128,-1,6
 266 448 266 448 272 445 c 2,7,-1
 441 363 l 2,8,9
 448 360 448 360 448 355.5 c 128,-1,10
 448 351 448 351 441 348 c 2,11,-1
 272 266 l 2,12,13
 266 263 266 263 256 263 c 128,-1,14
 246 263 246 263 240 266 c 2,15,-1
 71 348 l 2,0,1
441 264 m 2,16,17
 448 261 448 261 448 256 c 128,-1,18
 448 251 448 251 441 248 c 2,19,-1
 272 167 l 2,20,21
 264 163 264 163 256 163 c 128,-1,22
 248 163 248 163 240 167 c 2,23,-1
 71 248 l 2,24,25
 64 251 64 251 64 256 c 128,-1,26
 64 261 64 261 71 264 c 0,27,28
 98 277 98 277 104 280 c 0,29,30
 110 284 110 284 117 280 c 2,31,-1
 240 220 l 2,32,33
 246 217 246 217 256 217 c 128,-1,34
 266 217 266 217 272 220 c 0,35,36
 393 279 393 279 397 281 c 0,37,38
 402 283 402 283 406 281 c 2,39,-1
 441 264 l 2,16,17
441 164 m 2,40,41
 448 161 448 161 448 156.5 c 128,-1,42
 448 152 448 152 441 149 c 2,43,-1
 272 67 l 2,44,45
 266 64 266 64 256 64 c 128,-1,46
 246 64 246 64 240 67 c 2,47,-1
 71 149 l 2,48,49
 64 152 64 152 64 156.5 c 128,-1,50
 64 161 64 161 71 164 c 0,51,52
 98 178 98 178 104 181 c 0,53,54
 109 184 109 184 117 180 c 2,55,-1
 240 121 l 2,56,57
 246 118 246 118 256 118 c 128,-1,58
 266 118 266 118 272 121 c 0,59,60
 393 179 393 179 397 181 c 0,61,62
 402 183 402 183 406 181 c 2,63,-1
 441 164 l 2,40,41
EndSplineSet
Validated: 1
EndChar

StartChar: upload-cloud
Encoding: 47 47 12
GlifName: upload-cloud
Width: 512
GlyphClass: 2
Flags: W
LayerCount: 2
Fore
SplineSet
389 330 m 0,0,1
 439 330 439 330 476 295 c 0,2,3
 512 260 512 260 512 210 c 128,-1,4
 512 160 512 160 476 125 c 0,5,6
 439 90 439 90 389 90 c 2,7,-1
 292 90 l 1,8,-1
 292 187 l 1,9,-1
 346 187 l 1,10,-1
 256 305 l 1,11,-1
 167 187 l 1,12,-1
 220 187 l 1,13,-1
 220 90 l 1,14,-1
 93 90 l 2,15,16
 55 90 55 90 28 117 c 0,17,18
 0 142 0 142 0 180 c 128,-1,19
 0 218 0 218 27 245 c 0,20,21
 55 271 55 271 93 271 c 0,22,23
 101 271 101 271 103 270 c 1,24,25
 103 271 103 271 102.5 278 c 128,-1,26
 102 285 102 285 102 290 c 0,27,28
 102 344 102 344 142 384 c 0,29,30
 182 423 182 423 239 423 c 0,31,32
 285 423 285 423 321 396 c 0,33,34
 355 371 355 371 369 328 c 1,35,36
 387 330 387 330 389 330 c 0,0,1
EndSplineSet
Validated: 513
EndChar

StartChar: ionicons
Encoding: 51 51 13
GlifName: ionicons
Width: 512
GlyphClass: 2
Flags: W
LayerCount: 2
Fore
SplineSet
477 350 m 128,-1,1
 477 338 477 338 469 331 c 2,2,-1
 263 124 l 1,3,-1
 224 85 l 2,4,5
 214 77 214 77 204 77 c 0,6,7
 193 77 193 77 185 85 c 2,8,-1
 43 227 l 2,9,10
 35 235 35 235 35 247 c 128,-1,11
 35 259 35 259 43 266 c 2,12,-1
 81 305 l 2,13,14
 91 313 91 313 101 313 c 0,15,16
 112 313 112 313 120 305 c 2,17,-1
 204 221 l 1,18,-1
 392 409 l 2,19,20
 400 417 400 417 411 417 c 0,21,22
 421 417 421 417 431 409 c 2,23,-1
 469 370 l 2,24,0
 477 362 477 362 477 350 c 128,-1,1
EndSplineSet
Validated: 1
EndChar

StartChar: delicious
Encoding: 52 52 14
GlifName: delicious
Width: 512
GlyphClass: 2
Flags: W
LayerCount: 2
Fore
SplineSet
426 134 m 0,0,1
 426 123 426 123 418 115 c 2,2,-1
 379 76 l 2,3,4
 371 68 371 68 359 68 c 0,5,6
 348 68 348 68 340 76 c 2,7,-1
 256 160 l 1,8,-1
 172 76 l 2,9,10
 164 68 164 68 153 68 c 0,11,12
 141 68 141 68 133 76 c 2,13,-1
 94 115 l 2,14,15
 86 123 86 123 86 134 c 0,16,17
 86 144 86 144 94 154 c 2,18,-1
 178 238 l 1,19,-1
 94 322 l 2,20,21
 86 330 86 330 86 341 c 0,22,23
 86 351 86 351 94 361 c 2,24,-1
 133 399 l 2,25,26
 140 407 140 407 153 407 c 0,27,28
 165 407 165 407 172 399 c 2,29,-1
 256 315 l 1,30,-1
 340 399 l 2,31,32
 347 407 347 407 359 407 c 0,33,34
 372 407 372 407 379 399 c 2,35,-1
 418 361 l 2,36,37
 426 351 426 351 426 341 c 0,38,39
 426 330 426 330 418 322 c 2,40,-1
 334 238 l 1,41,-1
 418 154 l 2,42,43
 426 144 426 144 426 134 c 0,0,1
EndSplineSet
Validated: 1
EndChar

StartChar: shield
Encoding: 53 53 15
GlifName: shield
Width: 512
VWidth: 1000
GlyphClass: 2
Flags: W
LayerCount: 2
Fore
SplineSet
240.84375 262.6875 m 5,0,-1
 401.15625 262.6875 l 5,1,-1
 401.15625 323.4375 l 6,2,3
 401.15625 356.625 401.15625 356.625 377.53125 380.25 c 132,-1,4
 353.90625 403.875 353.90625 403.875 320.71875 403.3125 c 132,-1,5
 287.53125 402.75 287.53125 402.75 263.90625 380.25 c 132,-1,6
 240.28125 357.75 240.28125 357.75 240.84375 323.4375 c 6,7,-1
 240.84375 262.6875 l 5,0,-1
501.84375 232.875 m 6,8,-1
 501.84375 51.75 l 6,9,10
 501.84375 39.375 501.84375 39.375 492.84375 30.9375 c 132,-1,11
 483.84375 22.5 483.84375 22.5 471.46875 21.9375 c 6,12,-1
 170.53125 21.9375 l 6,13,14
 157.59375 21.9375 157.59375 21.9375 149.15625 30.9375 c 132,-1,15
 140.71875 39.9375 140.71875 39.9375 140.15625 51.75 c 6,16,-1
 140.15625 232.875 l 6,17,18
 140.15625 245.25 140.15625 245.25 149.15625 254.25 c 132,-1,19
 158.15625 263.25 158.15625 263.25 170.53125 262.6875 c 6,20,-1
 180.09375 262.6875 l 5,21,-1
 180.09375 323.4375 l 6,22,23
 180.09375 380.8125 180.09375 380.8125 221.71875 422.4375 c 132,-1,24
 263.34375 464.0625 263.34375 464.0625 320.71875 464.0625 c 132,-1,25
 378.09375 464.0625 378.09375 464.0625 420.28125 422.4375 c 132,-1,26
 462.46875 380.8125 462.46875 380.8125 461.34375 323.4375 c 6,27,-1
 461.34375 262.6875 l 5,28,-1
 471.46875 262.6875 l 6,29,30
 484.40625 262.6875 484.40625 262.6875 492.84375 254.25 c 132,-1,31
 501.28125 245.8125 501.28125 245.8125 501.84375 232.875 c 6,8,-1
EndSplineSet
Validated: 33
EndChar

StartChar: ionicons-1
Encoding: 55 55 16
GlifName: ionicons-1
Width: 512
GlyphClass: 2
Flags: W
LayerCount: 2
Fore
SplineSet
475 256 m 128,-1,1
 475 194 475 194 446 146 c 0,2,3
 416 96 416 96 366 66 c 0,4,5
 318 37 318 37 256 37 c 128,-1,6
 194 37 194 37 146 66 c 0,7,8
 96 96 96 96 66 146 c 0,9,10
 37 194 37 194 37 256 c 128,-1,11
 37 318 37 318 66 366 c 0,12,13
 96 416 96 416 146 446 c 0,14,15
 194 475 194 475 256 475 c 128,-1,16
 318 475 318 475 366 446 c 0,17,18
 416 416 416 416 446 366 c 0,19,0
 475 318 475 318 475 256 c 128,-1,1
EndSplineSet
Validated: 513
EndChar

StartChar: chart-line
Encoding: 57 57 17
GlifName: chart-line
Width: 512
GlyphClass: 2
Flags: W
LayerCount: 2
Fore
SplineSet
17 222 m 2,0,1
 -5 228 -5 228 1 251 c 0,2,3
 6 273 6 273 28 267 c 2,4,-1
 78 255 l 1,5,-1
 52 214 l 1,6,-1
 17 222 l 2,0,1
472 216 m 2,7,8
 478 222 478 222 488 222 c 0,9,10
 499 220 499 220 504 214 c 0,11,12
 521 197 521 197 503 181 c 2,13,-1
 375 66 l 2,14,15
 368 60 368 60 359 60 c 0,16,17
 353 60 353 60 345 65 c 2,18,-1
 199 177 l 1,19,-1
 171 185 l 1,20,-1
 197 225 l 1,21,-1
 215 221 l 2,22,23
 222 219 222 219 223 217 c 2,24,-1
 358 113 l 1,25,-1
 472 216 l 2,7,8
221 328 m 1,26,-1
 43 48 l 2,27,28
 37 36 37 36 23 36 c 0,29,30
 18 36 18 36 11 41 c 0,31,32
 2 46 2 46 1 55 c 0,33,34
 0 65 0 65 4 72 c 2,35,-1
 195 372 l 2,36,37
 199 380 199 380 209 383 c 0,38,39
 218 386 218 386 228 380 c 2,40,-1
 353 300 l 1,41,-1
 468 466 l 2,42,43
 474 474 474 474 483 476 c 0,44,45
 492 477 492 477 500 471 c 0,46,47
 519 459 519 459 506 440 c 2,48,-1
 378 255 l 2,49,50
 365 237 365 237 346 249 c 2,51,-1
 221 328 l 1,26,-1
EndSplineSet
Validated: 545
EndChar

StartChar: graduate-cap
Encoding: 58 58 18
GlifName: graduate-cap
Width: 512
GlyphClass: 2
Flags: W
LayerCount: 2
Fore
SplineSet
475 457 m 2,0,-1
 475 55 l 2,1,2
 475 47 475 47 470 42 c 128,-1,3
 465 37 465 37 457 37 c 2,4,-1
 311 37 l 2,5,6
 303 37 303 37 298 42 c 128,-1,7
 293 47 293 47 293 55 c 2,8,-1
 293 457 l 2,9,10
 293 465 293 465 298 470 c 128,-1,11
 303 475 303 475 311 475 c 2,12,-1
 457 475 l 2,13,14
 465 475 465 475 470 470 c 128,-1,15
 475 465 475 465 475 457 c 2,0,-1
219 457 m 2,16,-1
 219 55 l 2,17,18
 219 47 219 47 214 42 c 128,-1,19
 209 37 209 37 201 37 c 2,20,-1
 55 37 l 2,21,22
 47 37 47 37 42 42 c 128,-1,23
 37 47 37 47 37 55 c 2,24,-1
 37 457 l 2,25,26
 37 465 37 465 42 470 c 128,-1,27
 47 475 47 475 55 475 c 2,28,-1
 201 475 l 2,29,30
 209 475 209 475 214 470 c 128,-1,31
 219 465 219 465 219 457 c 2,16,-1
EndSplineSet
Validated: 513
EndChar

StartChar: email-plane
Encoding: 59 59 19
GlifName: email-plane
Width: 512
GlyphClass: 2
Flags: W
LayerCount: 2
Fore
SplineSet
450 247 m 2,0,-1
 71 36 l 2,1,2
 65 33 65 33 60 35 c 0,3,4
 55 38 55 38 55 46 c 2,5,-1
 55 466 l 2,6,7
 55 474 55 474 60 477 c 0,8,9
 65 479 65 479 71 476 c 2,10,-1
 450 265 l 2,11,12
 457 261 457 261 457 256 c 128,-1,13
 457 251 457 251 450 247 c 2,0,-1
EndSplineSet
Validated: 513
EndChar

StartChar: zoom-in
Encoding: 60 60 20
GlifName: zoom-in
Width: 512
GlyphClass: 2
Flags: W
LayerCount: 2
Fore
SplineSet
448 384 m 1,0,-1
 352 288 l 1,1,-1
 192 448 l 1,2,-1
 64 320 l 1,3,-1
 224 160 l 1,4,-1
 128 64 l 1,5,-1
 448 64 l 1,6,-1
 448 384 l 1,0,-1
EndSplineSet
Validated: 521
EndChar

StartChar: screen-full
Encoding: 61 61 21
GlifName: screen-full
Width: 512
GlyphClass: 2
Flags: W
LayerCount: 2
Fore
SplineSet
256 320 m 128,-1,1
 230 320 230 320 211 301 c 128,-1,2
 192 282 192 282 192 256 c 128,-1,3
 192 230 192 230 211 211 c 128,-1,4
 230 192 230 192 256 192 c 128,-1,5
 282 192 282 192 301 211 c 128,-1,6
 320 230 320 230 320 256 c 128,-1,7
 320 282 320 282 301 301 c 128,-1,0
 282 320 282 320 256 320 c 128,-1,1
453 312 m 1,8,9
 444 315 444 315 434 323 c 1,10,11
 428 311 428 311 404 274 c 1,12,13
 375 311 375 311 343 343 c 0,14,15
 303 382 303 382 274 404 c 1,16,17
 361 466 361 466 419 466 c 0,18,19
 442 466 442 466 454 454 c 0,20,21
 466 443 466 443 466 416 c 1,22,-1
 469 416 l 2,23,24
 478 416 478 416 487 413 c 1,25,26
 489 449 489 449 469 469 c 0,27,28
 451 487 451 487 419 487 c 0,29,30
 353 487 353 487 256 417 c 1,31,32
 159 487 159 487 93 487 c 0,33,34
 84 487 84 487 80 486 c 1,35,36
 88 479 88 479 93 466 c 1,37,38
 151 466 151 466 238 404 c 1,39,40
 209 382 209 382 169 343 c 0,41,42
 130 303 130 303 108 274 c 1,43,44
 79 316 79 316 64 350 c 0,45,46
 54 372 54 372 49 395 c 1,47,-1
 43 395 l 2,48,49
 37 395 37 395 27 397 c 1,50,51
 31 373 31 373 45 341 c 0,52,53
 63 300 63 300 95 256 c 1,54,55
 63 212 63 212 45 171 c 0,56,57
 4 80 4 80 43 43 c 0,58,59
 61 25 61 25 93 25 c 0,60,61
 141 25 141 25 209 64 c 128,-1,62
 277 103 277 103 343 169 c 0,63,64
 382 209 382 209 404 238 c 1,65,66
 447 177 447 177 460.5 126.5 c 128,-1,67
 474 76 474 76 454 58 c 0,68,69
 442 46 442 46 419 46 c 0,70,71
 391 46 391 46 348 65 c 1,72,73
 344 54 344 54 336 47 c 1,74,75
 385 25 385 25 419 25 c 0,76,77
 451 25 451 25 469 43 c 0,78,79
 496 72 496 72 481.5 129.5 c 128,-1,80
 467 187 467 187 417 256 c 1,81,82
 437 283 437 283 453 312 c 1,8,9
93 46 m 0,83,84
 70 46 70 46 58 58 c 0,85,86
 31 84 31 84 64 162 c 0,87,88
 79 196 79 196 108 238 c 1,89,90
 137 201 137 201 169 169 c 128,-1,91
 201 137 201 137 238 108 c 1,92,93
 151 46 151 46 93 46 c 0,83,84
328 184 m 0,94,95
 299 155 299 155 256 121 c 1,96,97
 220 150 220 150 184 184 c 0,98,99
 150 220 150 220 121 256 c 1,100,101
 150 292 150 292 184 328 c 0,102,103
 220 362 220 362 256 391 c 1,104,105
 292 362 292 362 328 328 c 0,106,107
 364 292 364 292 391 256 c 1,108,109
 362 220 362 220 328 184 c 0,94,95
469 384 m 0,110,111
 461 384 461 384 454.5 377.5 c 128,-1,112
 448 371 448 371 448 363 c 0,113,114
 448 354 448 354 454.5 347.5 c 128,-1,115
 461 341 461 341 469 341 c 0,116,117
 478 341 478 341 484.5 347.5 c 128,-1,118
 491 354 491 354 491 363 c 0,119,120
 491 371 491 371 484.5 377.5 c 128,-1,121
 478 384 478 384 469 384 c 0,110,111
299 107 m 0,122,123
 290 107 290 107 283.5 100.5 c 128,-1,124
 277 94 277 94 277 85 c 0,125,126
 277 77 277 77 283.5 70.5 c 128,-1,127
 290 64 290 64 299 64 c 0,128,129
 307 64 307 64 313.5 70.5 c 128,-1,130
 320 77 320 77 320 85 c 0,131,132
 320 94 320 94 313.5 100.5 c 128,-1,133
 307 107 307 107 299 107 c 0,122,123
43 427 m 0,134,135
 51 427 51 427 57.5 433 c 128,-1,136
 64 439 64 439 64 448 c 128,-1,137
 64 457 64 457 57.5 463 c 128,-1,138
 51 469 51 469 43 469 c 0,139,140
 34 469 34 469 27.5 463 c 128,-1,141
 21 457 21 457 21 448 c 128,-1,142
 21 439 21 439 27.5 433 c 128,-1,143
 34 427 34 427 43 427 c 0,134,135
EndSplineSet
Validated: 553
EndChar

StartChar: atom
Encoding: 62 62 22
GlifName: atom
Width: 512
GlyphClass: 2
Flags: W
LayerCount: 2
Fore
SplineSet
448 128 m 1,0,-1
 352 224 l 1,1,-1
 192 64 l 1,2,-1
 64 192 l 1,3,-1
 224 352 l 1,4,-1
 128 448 l 1,5,-1
 448 448 l 1,6,-1
 448 128 l 1,0,-1
EndSplineSet
Validated: 1
EndChar

StartChar: list
Encoding: 63 63 23
GlifName: list
Width: 512
GlyphClass: 2
Flags: W
LayerCount: 2
Fore
SplineSet
498 14 m 128,-1,1
 484 0 484 0 464 0 c 128,-1,2
 444 0 444 0 430 14 c 2,3,-1
 345 99 l 1,4,5
 288 63 288 63 224 63 c 0,6,7
 131 63 131 63 65.5 129 c 128,-1,8
 0 195 0 195 0 288 c 128,-1,9
 0 381 0 381 65.5 446.5 c 128,-1,10
 131 512 131 512 224 512 c 128,-1,11
 317 512 317 512 383 446.5 c 128,-1,12
 449 381 449 381 449 288 c 0,13,14
 449 224 449 224 413 167 c 1,15,-1
 498 82 l 2,16,17
 512 68 512 68 512 48 c 128,-1,0
 512 28 512 28 498 14 c 128,-1,1
224 448 m 0,18,19
 158 448 158 448 111 401 c 128,-1,20
 64 354 64 354 64 288 c 0,21,22
 64 221 64 221 111 174 c 128,-1,23
 158 127 158 127 224 127 c 0,24,25
 291 127 291 127 338 174 c 128,-1,26
 385 221 385 221 385 288 c 0,27,28
 385 354 385 354 338 401 c 128,-1,29
 291 448 291 448 224 448 c 0,18,19
256 191 m 1,30,-1
 192 191 l 1,31,-1
 192 256 l 1,32,-1
 128 256 l 1,33,-1
 128 320 l 1,34,-1
 192 320 l 1,35,-1
 192 384 l 1,36,-1
 256 384 l 1,37,-1
 256 320 l 1,38,-1
 321 320 l 1,39,-1
 321 256 l 1,40,-1
 256 256 l 1,41,-1
 256 191 l 1,30,-1
EndSplineSet
Validated: 1
EndChar

StartChar: animist
Encoding: 65 65 24
GlifName: microscope
Width: 512
GlyphClass: 2
LayerCount: 2
Fore
SplineSet
358 495 m 1,0,1
 404 464 404 464 404 428 c 1,2,3
 419 441 419 441 434 443 c 0,4,5
 442 444 442 444 450 444 c 128,-1,6
 458 444 458 444 465 443 c 0,7,8
 471 442 471 442 498 431 c 1,9,10
 485 406 485 406 470 393 c 128,-1,11
 455 380 455 380 431 379 c 1,12,-1
 431 376 l 1,13,14
 456 367 456 367 461 342 c 0,15,16
 462 339 462 339 462 333 c 0,17,18
 462.041666667 332.291666667 462.041666667 332.291666667 462.041666667 331.598958333 c 0,19,20
 462.041666667 315.666666667 462.041666667 315.666666667 440 308 c 0,21,22
 429 304 429 304 417 304 c 0,23,24
 395 305 395 305 373 318 c 0,25,26
 373 318 373 318 365 326 c 0,27,28
 362 329 362 329 353 335 c 0,29,30
 348 338 348 338 343 338 c 0,31,32
 302 338 302 338 300 239 c 1,33,34
 333 253 333 253 355 253 c 0,35,36
 379 253 379 253 410 239 c 1,37,38
 406 234 406 234 400 230 c 0,39,40
 395 226 395 226 391 223 c 0,41,42
 388 221 388 221 379 217 c 0,43,44
 372 214 372 214 368 213 c 128,-1,45
 364 212 364 212 355 209 c 128,-1,46
 346 206 346 206 343 205 c 1,47,48
 347 201 347 201 350 196 c 0,49,50
 356 186 356 186 356 186 c 0,51,52
 359 182 359 182 362 176 c 0,53,54
 365 169 365 169 367 165 c 128,-1,55
 369 161 369 161 371 154 c 0,56,57
 374 146 374 146 375 143 c 128,-1,58
 376 140 376 140 379 131 c 128,-1,59
 382 122 382 122 383 120 c 1,60,61
 323 120 323 120 279 178 c 1,62,63
 274 160 274 160 274 142 c 0,64,65
 275 104 275 104 297 74 c 0,66,67
 330 29 330 29 392 19 c 1,68,-1
 392 16 l 1,69,70
 376 14 376 14 359 11 c 0,71,72
 339 7 339 7 327 7 c 0,73,74
 321 8 321 8 319 8 c 0,75,76
 306 8 306 8 279 16 c 0,77,78
 262 21 262 21 244 24 c 0,79,80
 240 25 240 25 234 25 c 0,81,82
 214 24 214 24 203 22 c 1,83,-1
 224 4 l 1,84,-1
 224 1 l 1,85,86
 195 1 195 1 172 17 c 0,87,88
 172 17 172 17 162 29 c 128,-1,89
 152 41 152 41 147 42 c 128,-1,90
 142 43 142 43 137 43 c 128,-1,91
 132 43 132 43 127 42 c 0,92,93
 120 41 120 41 104 35 c 0,94,95
 89 30 89 30 84 28 c 1,96,-1
 84 31 l 1,97,98
 109 45 109 45 122 52 c 0,99,100
 127 55 127 55 165 78 c 0,101,102
 186 91 186 91 208 110 c 0,103,104
 220 120 220 120 240 145 c 0,105,106
 255 163 255 163 261 185 c 0,107,108
 263 192 263 192 263 200 c 0,109,110
 262 215 262 215 259 226 c 0,111,112
 253 247 253 247 230 269 c 0,113,114
 212 287 212 287 187 297 c 1,115,116
 186 225 186 225 126 199 c 1,117,118
 116 220 116 220 116 241 c 0,119,120
 115.833333333 243.166666667 115.833333333 243.166666667 115.833333333 245.388888889 c 0,121,122
 115.833333333 256.5 115.833333333 256.5 120 269 c 1,123,-1
 117 269 l 1,124,125
 101 239 101 239 77 231 c 0,126,127
 62 226 62 226 37 226 c 0,128,129
 26 226 26 226 14 227 c 1,130,131
 21 320 21 320 105 321 c 1,132,-1
 105 324 l 1,133,134
 54 328 54 328 38 379 c 1,135,136
 67 386 67 386 91 386 c 0,137,138
 92.5925925926 386.037037037 92.5925925926 386.037037037 94.1659807956 386.037037037 c 0,139,140
 135.074074074 386.037037037 135.074074074 386.037037037 163 361 c 0,141,142
 168 356 168 356 178 340 c 0,143,144
 186 327 186 327 194 321 c 0,145,146
 203 314 203 314 223 300 c 0,147,148
 248 282 248 282 255 275 c 0,149,150
 268 261 268 261 276 245 c 1,151,-1
 279 245 l 1,152,153
 277 257 277 257 277 268 c 0,154,155
 277 294 277 294 288 319 c 0,156,157
 303 353 303 353 340 370 c 1,158,159
 329 401 329 401 329 424 c 0,160,161
 330 431 330 431 330 435 c 0,162,163
 330 458 330 458 358 495 c 1,0,1
122 273 m 1,164,-1
 121 271 l 1,165,-1
 122 273 l 1,164,-1
EndSplineSet
Validated: 9
EndChar

StartChar: armsman
Encoding: 66 66 25
GlifName: loop-alt2
Width: 512
GlyphClass: 2
LayerCount: 2
Fore
SplineSet
257.147460938 354.413085938 m 5,0,-1
 298.680664062 284.575195312 l 5,1,-1
 257.143554688 214.125 l 5,2,-1
 214.336914062 284.575195312 l 5,3,-1
 257.147460938 354.413085938 l 5,0,-1
161.543945312 325.715820312 m 5,4,-1
 257.147460938 150.98828125 l 5,5,-1
 353.3359375 325.715820312 l 5,6,-1
 379.708984375 325.715820312 l 5,7,-1
 502.997070312 222.2734375 l 5,8,-1
 502.997070312 206.467773438 l 5,9,-1
 469.873046875 157.322265625 l 5,10,-1
 454.865234375 157.322265625 l 5,11,-1
 372.9140625 191.001953125 l 5,12,-1
 322.196289062 99.5869140625 l 5,13,-1
 191.97265625 99.5869140625 l 5,14,-1
 142.068359375 190.998046875 l 5,15,-1
 58.9033203125 157.322265625 l 5,16,-1
 43.4833984375 157.322265625 l 5,17,-1
 9.4033203125 206.974609375 l 5,18,-1
 8.9990234375 222.2734375 l 5,19,-1
 134.358398438 325.715820312 l 5,20,-1
 161.543945312 325.715820312 l 5,4,-1
EndSplineSet
Validated: 1
EndChar

StartChar: berserker
Encoding: 68 68 26
GlifName: fontawesome-webfont-24
Width: 512
GlyphClass: 2
LayerCount: 2
Fore
SplineSet
202.4609375 19.2529296875 m 0,0,1
 174.638671875 31.5 174.638671875 31.5 167.03125 36.373046875 c 128,-1,2
 159.423828125 41.2470703125 159.423828125 41.2470703125 149.748046875 53.0263671875 c 0,3,4
 136.143554688 69.5830078125 136.143554688 69.5830078125 127.517578125 98.5654296875 c 128,-1,5
 118.896484375 127.510742188 118.896484375 127.510742188 111.756835938 159.8359375 c 2,6,-1
 104.6171875 192.131835938 l 1,7,-1
 115.131835938 207.876953125 l 2,8,9
 138.522460938 242.88671875 138.522460938 242.88671875 202.4765625 259.845703125 c 0,10,11
 232.043945312 267.677734375 232.043945312 267.677734375 264.403320312 266.088867188 c 0,12,13
 295.579101562 264.557617188 295.579101562 264.557617188 315.770507812 259.842773438 c 128,-1,14
 335.961914062 255.127929688 335.961914062 255.127929688 372.958984375 240.736328125 c 0,15,16
 400.91015625 229.862304688 400.91015625 229.862304688 407.79296875 225.983398438 c 128,-1,17
 414.676757812 222.104492188 414.676757812 222.104492188 417.859375 215.432617188 c 0,18,19
 422.4453125 205.80859375 422.4453125 205.80859375 418.264648438 180.479492188 c 128,-1,20
 414.08203125 155.133789062 414.08203125 155.133789062 402.625 109.609375 c 0,21,22
 394.327148438 76.642578125 394.327148438 76.642578125 390.638671875 67.55859375 c 128,-1,23
 386.950195312 58.474609375 386.950195312 58.474609375 375.907226562 43.8076171875 c 0,24,25
 360.655273438 23.5400390625 360.655273438 23.5400390625 354.25 21.1083984375 c 128,-1,26
 347.834960938 18.671875 347.834960938 18.671875 315.408203125 15.8623046875 c 128,-1,27
 282.951171875 13.04296875 282.951171875 13.04296875 263.704101562 7.509765625 c 128,-1,28
 244.454101562 1.970703125 244.454101562 1.970703125 243.0078125 2.0068359375 c 128,-1,29
 241.573242188 2.0400390625 241.573242188 2.0400390625 202.4609375 19.2529296875 c 0,0,1
102.833007812 252.369140625 m 0,30,31
 97.2783203125 257.17578125 97.2783203125 257.17578125 92.7431640625 281.672851562 c 128,-1,32
 88.208984375 306.168945312 88.208984375 306.168945312 90.15625 320.834960938 c 0,33,34
 91.9765625 334.541015625 91.9765625 334.541015625 103.063476562 344.891601562 c 0,35,36
 110.546875 351.875976562 110.546875 351.875976562 114.772460938 353.55859375 c 128,-1,37
 118.997070312 355.240234375 118.997070312 355.240234375 129.055664062 355.240234375 c 0,38,39
 143.962890625 355.240234375 143.962890625 355.240234375 153.119140625 348.255859375 c 0,40,41
 159.234375 343.592773438 159.234375 343.592773438 161.040039062 339.578125 c 128,-1,42
 162.845703125 335.5625 162.845703125 335.5625 163.982421875 324.104492188 c 0,43,44
 165.698242188 306.814453125 165.698242188 306.814453125 167.296875 294.344726562 c 2,45,-1
 168.90625 281.744140625 l 1,46,-1
 153.334960938 269.989257812 l 2,47,48
 115.489257812 241.41015625 115.489257812 241.41015625 102.833007812 252.369140625 c 0,30,31
371.2734375 263.26171875 m 0,49,50
 366.032226562 264.310546875 366.032226562 264.310546875 359.69140625 273.409179688 c 128,-1,51
 353.350585938 282.5078125 353.350585938 282.5078125 353.350585938 288.977539062 c 0,52,53
 353.350585938 298.76953125 353.350585938 298.76953125 360.6875 317.592773438 c 128,-1,54
 368.024414062 336.416015625 368.024414062 336.416015625 375.034179688 344.604492188 c 0,55,56
 381.71484375 352.411132812 381.71484375 352.411132812 384.73046875 353.740234375 c 128,-1,57
 387.745117188 355.068359375 387.745117188 355.068359375 395.809570312 353.758789062 c 0,58,59
 407.170898438 351.91015625 407.170898438 351.91015625 414.9453125 344.608398438 c 0,60,61
 420.484375 339.40625 420.484375 339.40625 421.333007812 335.969726562 c 128,-1,62
 422.180664062 332.533203125 422.180664062 332.533203125 420.833984375 320.741210938 c 0,63,64
 419.102539062 305.556640625 419.102539062 305.556640625 414.712890625 296.634765625 c 128,-1,65
 410.322265625 287.711914062 410.322265625 287.711914062 398.217773438 274.770507812 c 0,66,67
 389.208984375 265.138671875 389.208984375 265.138671875 384.8515625 263.27734375 c 128,-1,68
 380.494140625 261.416992188 380.494140625 261.416992188 371.2734375 263.26171875 c 0,49,50
202.064453125 284.93359375 m 0,69,70
 194.19140625 293.877929688 194.19140625 293.877929688 192.290039062 299.26171875 c 128,-1,71
 190.388671875 304.645507812 190.388671875 304.645507812 188.662109375 322.879882812 c 0,72,73
 186.249023438 348.337890625 186.249023438 348.337890625 192.11328125 358.002929688 c 128,-1,74
 197.977539062 367.661132812 197.977539062 367.661132812 216.453125 372.6484375 c 2,75,-1
 234.934570312 377.637695312 l 1,76,-1
 244.224609375 369.889648438 l 2,77,78
 253.284179688 362.338867188 253.284179688 362.338867188 256.396484375 353.387695312 c 128,-1,79
 259.509765625 344.436523438 259.509765625 344.436523438 259.509765625 325.9453125 c 0,80,81
 259.509765625 311.899414062 259.509765625 311.899414062 258.182617188 307.314453125 c 128,-1,82
 256.85546875 302.73046875 256.85546875 302.73046875 250.790039062 295.822265625 c 0,83,84
 245.524414062 289.822265625 245.524414062 289.822265625 231.959960938 281.1328125 c 128,-1,85
 218.395507812 272.442382812 218.395507812 272.442382812 214.298828125 272.442382812 c 0,86,87
 213.061523438 272.442382812 213.061523438 272.442382812 202.064453125 284.93359375 c 0,69,70
299.530273438 280.764648438 m 0,88,89
 293.990234375 283.228515625 293.990234375 283.228515625 287.194335938 288.649414062 c 0,90,91
 282.286132812 292.560546875 282.286132812 292.560546875 281.407226562 297.403320312 c 128,-1,92
 280.529296875 302.24609375 280.529296875 302.24609375 280.909179688 323.288085938 c 0,93,94
 281.416015625 351.2109375 281.416015625 351.2109375 286.353515625 359.84375 c 128,-1,95
 291.291992188 368.477539062 291.291992188 368.477539062 307.947265625 370.55859375 c 0,96,97
 322.446289062 372.369140625 322.446289062 372.369140625 330.999023438 366.045898438 c 0,98,99
 337.0625 361.563476562 337.0625 361.563476562 338.307617188 357.951171875 c 128,-1,100
 339.551757812 354.337890625 339.551757812 354.337890625 339.551757812 341.21484375 c 0,101,102
 339.551757812 321.600585938 339.551757812 321.600585938 334.002929688 304.500976562 c 128,-1,103
 328.454101562 287.401367188 328.454101562 287.401367188 320.58203125 282.749023438 c 0,104,105
 309.62890625 276.280273438 309.62890625 276.280273438 299.530273438 280.764648438 c 0,88,89
106.00390625 379.391601562 m 0,106,107
 107.344726562 383.923828125 107.344726562 383.923828125 121.61328125 433.899414062 c 0,108,109
 135.795898438 483.580078125 135.795898438 483.580078125 136.244140625 484.04296875 c 0,110,111
 136.365234375 484.166992188 136.365234375 484.166992188 136.412109375 477.926757812 c 128,-1,112
 136.458984375 471.685546875 136.458984375 471.685546875 136.423828125 460.833984375 c 128,-1,113
 136.387695312 449.982421875 136.387695312 449.982421875 136.274414062 437.2109375 c 2,114,-1
 135.854492188 389.916992188 l 1,115,-1
 127.259765625 382.241210938 l 2,116,117
 113.421875 369.874023438 113.421875 369.874023438 106.768554688 375.432617188 c 0,118,119
 105.21875 376.7265625 105.21875 376.7265625 106.00390625 379.391601562 c 0,106,107
394.748046875 378.223632812 m 0,120,121
 385.076171875 381.465820312 385.076171875 381.465820312 379.213867188 385.3671875 c 0,122,123
 374.842773438 388.2734375 374.842773438 388.2734375 374.747070312 390.208007812 c 128,-1,124
 374.651367188 392.143554688 374.651367188 392.143554688 378.465820312 400.545898438 c 0,125,126
 383.59375 411.829101562 383.59375 411.829101562 383.647460938 440.661132812 c 128,-1,127
 383.712890625 469.501953125 383.712890625 469.501953125 386.353515625 466.861328125 c 0,128,129
 389.426757812 463.788085938 389.426757812 463.788085938 405.887695312 426.69140625 c 128,-1,130
 422.349609375 389.59375 422.349609375 389.59375 422.349609375 385.741210938 c 0,131,132
 422.349609375 368.973632812 422.349609375 368.973632812 394.748046875 378.223632812 c 0,120,121
193.96484375 382.029296875 m 0,133,134
 180.173828125 384.68359375 180.173828125 384.68359375 195.567382812 417.341796875 c 0,135,136
 203.373046875 433.900390625 203.373046875 433.900390625 209.778320312 466.626953125 c 0,137,138
 216.005859375 497.559570312 216.005859375 497.559570312 218.244140625 495.604492188 c 0,139,140
 220.287109375 491.8828125 220.287109375 491.8828125 228.940429688 467.291992188 c 0,141,142
 244.416015625 423.255859375 244.416015625 423.255859375 240.989257812 400.556640625 c 0,143,144
 240.111328125 394.731445312 240.111328125 394.731445312 236.978515625 392.447265625 c 128,-1,145
 233.846679688 390.162109375 233.846679688 390.162109375 221.124023438 386.06640625 c 0,146,147
 202.530273438 380.083984375 202.530273438 380.083984375 201.357421875 380.45703125 c 128,-1,148
 200.182617188 380.833007812 200.182617188 380.833007812 193.96484375 382.029296875 c 0,133,134
300.978515625 390.979492188 m 0,149,150
 296.108398438 394.721679688 296.108398438 394.721679688 295.608398438 397.189453125 c 128,-1,151
 295.109375 399.658203125 295.109375 399.658203125 297.500976562 408.165039062 c 0,152,153
 300.868164062 420.1484375 300.868164062 420.1484375 309.76953125 458.05078125 c 128,-1,154
 318.67578125 495.997070312 318.67578125 495.997070312 320.450195312 495.997070312 c 128,-1,155
 322.2265625 495.997070312 322.2265625 495.997070312 330.6015625 480.130859375 c 128,-1,156
 338.9765625 464.263671875 338.9765625 464.263671875 342.091796875 439.421875 c 128,-1,157
 345.208984375 414.540039062 345.208984375 414.540039062 346.58984375 407.681640625 c 0,158,159
 347.541992188 402.919921875 347.541992188 402.919921875 344.862304688 400.780273438 c 128,-1,160
 342.18359375 398.641601562 342.18359375 398.641601562 329.305664062 393.881835938 c 0,161,162
 310.6875 387.000976562 310.6875 387.000976562 309.228515625 386.357421875 c 128,-1,163
 307.818359375 385.734375 307.818359375 385.734375 300.978515625 390.979492188 c 0,149,150
EndSplineSet
Validated: 33
EndChar

StartChar: blademaster
Encoding: 69 69 27
GlifName: fontawesome-webfont-25
Width: 512
GlyphClass: 2
Flags: W
LayerCount: 2
Fore
SplineSet
409.853515625 433.963867188 m 5,0,-1
 387.629882812 391.025390625 l 5,1,-1
 291.966796875 280.096679688 l 5,2,-1
 320.1015625 255.59765625 l 5,3,-1
 388.0234375 170.920898438 l 5,4,-1
 420.791992188 186.020507812 l 5,5,-1
 438.592773438 205.114257812 l 5,6,-1
 430.346679688 217.708007812 l 5,7,-1
 431.510742188 238.068359375 l 5,8,-1
 435.940429688 241.397460938 l 5,9,-1
 454.76171875 240.657226562 l 5,10,-1
 463.337890625 220.41015625 l 5,11,-1
 415.439453125 145.575195312 l 5,12,-1
 468.580078125 85.0810546875 l 5,13,-1
 504.598632812 75.7939453125 l 5,14,-1
 505.993164062 37.3720703125 l 5,15,-1
 499.821289062 30.0400390625 l 5,16,-1
 466.939453125 32.27734375 l 5,17,-1
 457.143554688 39.3896484375 l 5,18,-1
 451.428710938 66.98828125 l 5,19,-1
 390.169921875 122.19921875 l 5,20,-1
 318.079101562 78.220703125 l 5,21,-1
 297.829101562 86.796875 l 5,22,-1
 297.087890625 105.625976562 l 5,23,-1
 300.421875 110.051757812 l 5,24,-1
 320.782226562 111.219726562 l 5,25,-1
 333.375 102.96875 l 5,26,-1
 352.465820312 120.770507812 l 5,27,-1
 364.514648438 146.9140625 l 5,28,-1
 364.302734375 147.118164062 l 5,29,-1
 281.078125 216.079101562 l 5,30,-1
 258.918945312 241.775390625 l 5,31,-1
 236.9140625 216.256835938 l 5,32,-1
 153.689453125 147.294921875 l 5,33,-1
 153.473632812 147.090820312 l 5,34,-1
 165.5234375 120.948242188 l 5,35,-1
 184.6171875 103.146484375 l 5,36,-1
 197.2109375 111.401367188 l 5,37,-1
 217.571289062 110.229492188 l 5,38,-1
 220.900390625 105.803710938 l 5,39,-1
 220.16015625 86.974609375 l 5,40,-1
 199.913085938 78.40234375 l 5,41,-1
 127.822265625 122.376953125 l 5,42,-1
 66.5634765625 67.166015625 l 5,43,-1
 60.849609375 39.5673828125 l 5,44,-1
 51.048828125 32.455078125 l 5,45,-1
 18.1669921875 30.216796875 l 5,46,-1
 11.9951171875 37.5498046875 l 5,47,-1
 13.3935546875 75.9755859375 l 5,48,-1
 49.412109375 85.2587890625 l 5,49,-1
 102.552734375 145.752929688 l 5,50,-1
 54.654296875 220.587890625 l 5,51,-1
 63.2265625 240.838867188 l 5,52,-1
 82.056640625 241.579101562 l 5,53,-1
 86.478515625 238.24609375 l 5,54,-1
 87.646484375 217.885742188 l 5,55,-1
 79.3994140625 205.291992188 l 5,56,-1
 97.201171875 186.202148438 l 5,57,-1
 129.965820312 171.098632812 l 5,58,-1
 197.89453125 255.779296875 l 5,59,-1
 225.8515625 280.119140625 l 5,60,-1
 130.370117188 390.84765625 l 5,61,-1
 108.146484375 433.783203125 l 5,62,-1
 148.095703125 405.368164062 l 5,63,-1
 258.892578125 308.888671875 l 5,64,-1
 369.904296875 405.549804688 l 6,65,66
 396.926757812 424.326171875 396.926757812 424.326171875 409.853515625 433.963867188 c 5,0,-1
EndSplineSet
Validated: 1
EndChar

StartChar: bonedancer
Encoding: 70 70 28
GlifName: fontawesome-webfont-26
Width: 512
GlyphClass: 2
LayerCount: 2
Fore
SplineSet
305.513671875 33.25390625 m 5,0,-1
 299.081054688 41.689453125 l 5,1,-1
 299.081054688 70.9287109375 l 5,2,-1
 323.515625 95.7978515625 l 5,3,-1
 347.950195312 120.670898438 l 5,4,-1
 342.518554688 120.670898438 l 5,5,-1
 294.946289062 110.552734375 l 5,6,-1
 247.369140625 100.434570312 l 5,7,-1
 242.32421875 98.216796875 l 5,8,-1
 237.282226562 95.998046875 l 5,9,-1
 257.10546875 86.4814453125 l 5,10,-1
 276.932617188 76.9677734375 l 5,11,-1
 275.62890625 67.2548828125 l 5,12,-1
 274.325195312 57.541015625 l 5,13,-1
 269.6875 46.3271484375 l 5,14,-1
 265.053710938 35.1171875 l 5,15,-1
 251.9921875 33.484375 l 5,16,-1
 238.93359375 31.8515625 l 5,17,-1
 232.266601562 36.53515625 l 5,18,-1
 225.599609375 41.2138671875 l 5,19,-1
 226.854492188 63.1689453125 l 5,20,-1
 228.109375 85.1240234375 l 5,21,-1
 213.77734375 90.3701171875 l 5,22,-1
 199.4453125 95.6201171875 l 5,23,-1
 196.53515625 96.62109375 l 5,24,-1
 193.62890625 97.623046875 l 5,25,-1
 179.3984375 115.458984375 l 5,26,-1
 165.165039062 133.297851562 l 5,27,-1
 155.7421875 138.1015625 l 5,28,-1
 146.31640625 142.913085938 l 5,29,-1
 120.173828125 181.607421875 l 5,30,-1
 94.0341796875 220.309570312 l 5,31,-1
 81.154296875 233.670898438 l 5,32,-1
 68.27734375 247.03515625 l 5,33,-1
 38.6376953125 262.655273438 l 5,34,-1
 8.9990234375 278.272460938 l 5,35,-1
 8.9990234375 301.047851562 l 5,36,-1
 21.90234375 316.80078125 l 5,37,-1
 34.8056640625 332.557617188 l 5,38,-1
 51.4501953125 332.557617188 l 5,39,-1
 55.9482421875 313.486328125 l 5,40,-1
 60.4423828125 294.418945312 l 5,41,-1
 72.6767578125 285.438476562 l 5,42,-1
 84.9111328125 276.458007812 l 5,43,-1
 85.6103515625 277.391601562 l 5,44,-1
 86.30859375 278.325195312 l 5,45,-1
 110.611328125 320.573242188 l 5,46,-1
 134.9140625 362.828125 l 5,47,-1
 132.887695312 362.828125 l 5,48,-1
 124.30859375 357.763671875 l 5,49,-1
 115.728515625 352.703125 l 5,50,-1
 107.51953125 354.346679688 l 5,51,-1
 99.306640625 355.987304688 l 5,52,-1
 88.2060546875 370.125976562 l 5,53,-1
 77.109375 384.265625 l 5,54,-1
 77.1396484375 389.311523438 l 5,55,-1
 77.173828125 394.356445312 l 5,56,-1
 78.701171875 400.060546875 l 5,57,-1
 80.2314453125 405.763671875 l 5,58,-1
 105.08984375 419.837890625 l 5,59,-1
 129.951171875 433.916992188 l 5,60,-1
 136.951171875 431.607421875 l 5,61,-1
 143.950195312 429.301757812 l 5,62,-1
 149.790039062 418.806640625 l 5,63,-1
 155.6328125 408.314453125 l 5,64,-1
 202.763671875 409.765625 l 5,65,-1
 249.89453125 411.216796875 l 5,66,-1
 314.478515625 419.713867188 l 5,67,-1
 379.06640625 428.206054688 l 5,68,-1
 407.114257812 439.696289062 l 5,69,-1
 435.166015625 451.185546875 l 5,70,-1
 449.09375 440.42578125 l 5,71,-1
 463.021484375 429.668945312 l 5,72,-1
 463.032226562 421.750976562 l 5,73,-1
 463.043945312 413.829101562 l 5,74,-1
 451.611328125 398.302734375 l 5,75,-1
 440.181640625 382.776367188 l 5,76,-1
 432.76953125 388.052734375 l 5,77,-1
 425.358398438 393.329101562 l 5,78,-1
 423.873046875 395.736328125 l 5,79,-1
 422.383789062 398.139648438 l 5,80,-1
 413.075195312 397.962890625 l 5,81,-1
 403.765625 397.78515625 l 5,82,-1
 399.479492188 396.069335938 l 5,83,-1
 395.194335938 394.356445312 l 5,84,-1
 419.62890625 347.69140625 l 5,85,-1
 444.059570312 301.025390625 l 5,86,-1
 444.966796875 307.215820312 l 5,87,-1
 445.874023438 313.411132812 l 5,88,-1
 441.485351562 327.897460938 l 5,89,-1
 437.09765625 342.384765625 l 5,90,-1
 440.147460938 349.754882812 l 5,91,-1
 443.201171875 357.1171875 l 5,92,-1
 456.274414062 358.689453125 l 5,93,-1
 469.34765625 360.2578125 l 5,94,-1
 474.745117188 360.280273438 l 5,95,-1
 480.138671875 360.303710938 l 5,96,-1
 485.546875 355.888671875 l 5,97,-1
 490.956054688 351.474609375 l 5,98,-1
 496.9765625 329.51953125 l 5,99,-1
 503.000976562 307.560546875 l 5,100,-1
 500.302734375 298.768554688 l 5,101,-1
 497.599609375 289.973632812 l 5,102,-1
 490.728515625 287.127929688 l 5,103,-1
 483.853515625 284.282226562 l 5,104,-1
 461.467773438 253.5546875 l 5,105,-1
 439.078125 222.827148438 l 5,106,-1
 419.594726562 199.700195312 l 5,107,-1
 400.111328125 176.569335938 l 5,108,-1
 385.953125 151.776367188 l 5,109,-1
 371.791015625 126.978515625 l 5,110,-1
 359.26171875 106.795898438 l 5,111,-1
 346.729492188 86.6171875 l 5,112,-1
 338.040039062 69.654296875 l 5,113,-1
 329.350585938 52.6923828125 l 5,114,-1
 329.350585938 33.4736328125 l 5,115,-1
 322.026367188 29.1455078125 l 5,116,-1
 314.701171875 24.818359375 l 5,117,-1
 311.950195312 24.818359375 l 5,118,-1
 305.513671875 33.25390625 l 5,0,-1
291.514648438 132.020507812 m 5,119,-1
 355.833984375 145.891601562 l 5,120,-1
 357.541992188 145.891601562 l 5,121,-1
 359.250976562 145.895507812 l 5,122,-1
 365.706054688 160.00390625 l 5,123,-1
 372.168945312 174.109375 l 5,124,-1
 343.823242188 204.413085938 l 5,125,-1
 315.4765625 234.717773438 l 5,126,-1
 294.25390625 233.28125 l 5,127,-1
 273.036132812 231.844726562 l 5,128,-1
 271.055664062 229.860351562 l 5,129,-1
 269.075195312 227.876953125 l 5,130,-1
 241.049804688 176.599609375 l 5,131,-1
 213.025390625 125.327148438 l 5,132,-1
 216.002929688 121.736328125 l 5,133,-1
 218.981445312 118.145507812 l 5,134,-1
 223.0859375 118.149414062 l 5,135,-1
 227.190429688 118.149414062 l 5,136,-1
 291.514648438 132.020507812 l 5,119,-1
222.14453125 185.319335938 m 5,137,-1
 244.848632812 227.180664062 l 5,138,-1
 245.6796875 229.395507812 l 5,139,-1
 246.51171875 231.607421875 l 5,140,-1
 191.444335938 230.034179688 l 5,141,-1
 136.383789062 228.461914062 l 5,142,-1
 133.095703125 226.731445312 l 5,143,-1
 129.807617188 225 l 5,144,-1
 141.055664062 211.303710938 l 5,145,-1
 152.303710938 197.606445312 l 5,146,-1
 162.319335938 180.299804688 l 5,147,-1
 172.334960938 163.000976562 l 5,148,-1
 184.629882812 153.389648438 l 5,149,-1
 196.920898438 143.778320312 l 5,150,-1
 198.182617188 143.616210938 l 5,151,-1
 199.4453125 143.453125 l 5,152,-1
 222.14453125 185.319335938 l 5,137,-1
394.475585938 216.526367188 m 5,153,-1
 405.364257812 236.702148438 l 5,154,-1
 385.646484375 236.55859375 l 5,155,-1
 365.92578125 236.4140625 l 5,156,-1
 355.939453125 234.637695312 l 5,157,-1
 345.954101562 232.869140625 l 5,158,-1
 363.181640625 214.606445312 l 5,159,-1
 380.408203125 196.34375 l 5,160,-1
 381.99609375 196.34375 l 5,161,-1
 383.583007812 196.34765625 l 5,162,-1
 394.475585938 216.526367188 l 5,153,-1
226.00390625 253.388671875 m 5,163,-1
 260.12890625 254.870117188 l 5,164,-1
 266.500976562 266.817382812 l 5,165,-1
 272.870117188 278.763671875 l 5,166,-1
 226.48046875 327.731445312 l 5,167,-1
 180.086914062 376.69921875 l 5,168,-1
 174.897460938 378.645507812 l 5,169,-1
 169.704101562 380.591796875 l 5,170,-1
 169.15234375 379.907226562 l 5,171,-1
 168.604492188 379.219726562 l 5,172,-1
 134.32421875 319.975585938 l 5,173,-1
 100.047851562 260.731445312 l 5,174,-1
 105.603515625 254.783203125 l 5,175,-1
 111.159179688 248.833984375 l 5,176,-1
 151.517578125 250.368164062 l 5,177,-1
 191.875 251.903320312 l 5,178,-1
 226.00390625 253.388671875 l 5,163,-1
294.03515625 255.315429688 m 5,179,-1
 294.03515625 256.264648438 l 5,180,-1
 290.251953125 259.405273438 l 5,181,-1
 286.46875 262.541992188 l 5,182,-1
 286.46875 254.359375 l 5,183,-1
 294.03515625 254.359375 l 5,184,-1
 294.03515625 255.315429688 l 5,179,-1
396.940429688 259.083984375 m 5,185,-1
 422.909179688 260.66796875 l 5,186,-1
 427.6484375 268.234375 l 5,187,-1
 432.388671875 275.80078125 l 5,188,-1
 402.942382812 333.81640625 l 5,189,-1
 373.4921875 391.83203125 l 5,190,-1
 358.79296875 391.83203125 l 5,191,-1
 340.107421875 357.778320312 l 5,192,-1
 321.42578125 323.725585938 l 5,193,-1
 310.21875 303.228515625 l 5,194,-1
 299.012695312 282.728515625 l 5,195,-1
 310.630859375 269.806640625 l 5,196,-1
 322.249023438 256.880859375 l 5,197,-1
 346.608398438 257.190429688 l 5,198,-1
 370.970703125 257.5 l 5,199,-1
 396.940429688 259.083984375 l 5,185,-1
309.369140625 345.389648438 m 5,200,-1
 331.872070312 386.5859375 l 5,201,-1
 331.872070312 390.796875 l 5,202,-1
 323.673828125 389.48828125 l 5,203,-1
 315.47265625 388.180664062 l 5,204,-1
 288.989257812 385.66015625 l 5,205,-1
 262.506835938 383.139648438 l 5,206,-1
 234.2734375 381.4609375 l 5,207,-1
 206.040039062 379.779296875 l 5,208,-1
 244.274414062 339.810546875 l 5,209,-1
 282.51171875 299.838867188 l 5,210,-1
 284.688476562 302.015625 l 5,211,-1
 286.865234375 304.196289062 l 5,212,-1
 309.369140625 345.389648438 l 5,200,-1
EndSplineSet
Validated: 1
EndChar

StartChar: cabalist
Encoding: 71 71 29
GlifName: fontawesome-webfont-27
Width: 512
GlyphClass: 2
LayerCount: 2
Fore
SplineSet
193.049804688 10.3837890625 m 6,0,1
 184.03125 17.6103515625 184.03125 17.6103515625 183.8359375 20.0224609375 c 4,2,3
 184.046875 22.5615234375 184.046875 22.5615234375 192.665039062 32.380859375 c 6,4,-1
 201.508789062 42.45703125 l 5,5,-1
 196.814453125 51.6640625 l 6,6,7
 192 61 192 61 190.998046875 74.84765625 c 4,8,9
 189 97 189 97 201.12109375 115.928710938 c 4,10,11
 213 134 213 134 234.2734375 141.971679688 c 4,12,13
 243 145 243 145 242.807617188 151.216796875 c 4,14,15
 243 155 243 155 240.819335938 156.974609375 c 4,16,17
 239 159 239 159 230.811523438 160.911132812 c 4,18,19
 196 171 196 171 178.99609375 204.4921875 c 4,20,21
 163 237 163 237 174.530273438 273.888671875 c 4,22,23
 179 288 179 288 177.350585938 289.55859375 c 4,24,25
 175 291 175 291 166.866210938 296.286132812 c 4,26,27
 160 301 160 301 160.015625 302.609375 c 132,-1,28
 159.998046875 304.18359375 159.998046875 304.18359375 169.03125 318.154296875 c 6,29,-1
 172.66015625 323.766601562 l 5,30,-1
 184.30859375 315.920898438 l 6,31,32
 196 308 196 308 200.6015625 311.44140625 c 4,33,34
 216 322 216 322 232.561523438 327.3984375 c 4,35,36
 238 329 238 329 240.03515625 330.766601562 c 4,37,38
 242 332 242 332 241.669921875 336.439453125 c 4,39,40
 242 341 242 341 239.751953125 342.232421875 c 4,41,42
 238 344 238 344 229.749023438 345.80859375 c 4,43,44
 203 353 203 353 182.392578125 371.990234375 c 4,45,46
 164 389 164 389 153.78515625 417.46875 c 4,47,48
 150 427 150 427 149.4765625 437.330078125 c 4,49,50
 149.013671875 443.8046875 149.013671875 443.8046875 131.913085938 461.004882812 c 6,51,-1
 114.349609375 478.669921875 l 5,52,-1
 123.298828125 487.8359375 l 5,53,-1
 132.249023438 497.000976562 l 5,54,-1
 153.380859375 475.95703125 l 6,55,56
 167 463 167 463 171.71875 456.270507812 c 4,57,58
 175 452 175 452 174.515625 444.13671875 c 4,59,60
 175 424 175 424 187.791992188 405.243164062 c 4,61,62
 201 386 201 386 221.646484375 375.88671875 c 4,63,64
 237 369 237 369 255.397460938 368.546875 c 4,65,66
 274 369 274 369 291.404296875 377.03125 c 4,67,68
 333.270507812 398.13671875 333.270507812 398.13671875 337.575195312 442.784179688 c 6,69,-1
 338.955078125 457.096679688 l 5,70,-1
 358.536132812 476.99609375 l 5,71,-1
 378.122070312 496.895507812 l 5,72,-1
 387.884765625 487.314453125 l 5,73,-1
 397.646484375 477.733398438 l 5,74,-1
 380.873046875 460.584960938 l 6,75,76
 370 449 370 449 366.05859375 443.62109375 c 4,77,78
 363 439 363 439 360.33203125 427.502929688 c 4,79,80
 353 395 353 395 331.588867188 374.0078125 c 4,81,82
 310 352 310 352 280.715820312 345.57421875 c 4,83,84
 273 344 273 344 270.842773438 342.344726562 c 4,85,86
 269 341 269 341 268.984375 336.586914062 c 4,87,88
 263.479492188 293.188476562 263.479492188 293.188476562 271.109375 306.60546875 c 4,89,90
 282 326 282 326 282.235351562 326.14453125 c 4,91,92
 287.994140625 326.999023438 287.994140625 326.999023438 304.485351562 316.086914062 c 6,93,-1
 313.48828125 310.129882812 l 5,94,-1
 323.447265625 316.978515625 l 5,95,-1
 333.40234375 323.831054688 l 5,96,-1
 337.049804688 318.188476562 l 6,97,98
 346 304 346 304 345.922851562 302.713867188 c 4,99,100
 346 301 346 301 338.440429688 295.756835938 c 4,101,102
 332 291 332 291 331.072265625 289.826171875 c 4,103,104
 330 288 330 288 332.612304688 284.581054688 c 4,105,106
 336 279 336 279 339.733398438 264.74609375 c 4,107,108
 348 231 348 231 330.060546875 200.073242188 c 4,109,110
 314 172 314 172 277.522460938 160.143554688 c 4,111,112
 271 158 271 158 269.538085938 156.936523438 c 4,113,114
 268 155 268 155 267.846679688 151.364257812 c 4,115,116
 268 147 268 147 269.766601562 145.57421875 c 4,117,118
 272 144 272 144 278.716796875 141.298828125 c 4,119,120
 305 132 305 132 315.790039062 105.801757812 c 4,121,122
 327.041992188 79.904296875 327.041992188 79.904296875 315.71875 53.65625 c 6,123,-1
 310.5859375 41.7578125 l 5,124,-1
 319.936523438 30.58984375 l 5,125,-1
 329.291015625 19.4169921875 l 5,126,-1
 319.274414062 11.2080078125 l 5,127,-1
 309.254882812 3.0029296875 l 5,128,-1
 300.501953125 13.287109375 l 5,129,-1
 291.749023438 23.5751953125 l 5,130,-1
 278.716796875 18.9521484375 l 6,131,132
 256 11 256 11 232.493164062 19.111328125 c 4,133,134
 220 24 220 24 218.993164062 23.0947265625 c 4,135,136
 218.209960938 22.2314453125 218.209960938 22.2314453125 210.254882812 12.6591796875 c 6,137,-1
 202.2421875 3.017578125 l 5,138,-1
 193.049804688 10.3837890625 l 6,0,1
271.263671875 43.677734375 m 4,139,140
 293 54 293 54 295.2890625 76.1435546875 c 4,141,142
 298 99 298 99 278.500976562 112.484375 c 4,143,144
 269 119 269 119 257.147460938 119.048828125 c 4,145,146
 239 119 239 119 226.446289062 106.161132812 c 4,147,148
 208 87 208 87 220.236328125 62.8740234375 c 4,149,150
 228 48 228 48 242.048828125 42.365234375 c 4,151,152
 257 37 257 37 271.263671875 43.677734375 c 4,139,140
284.518554688 190.3984375 m 4,153,154
 316 209 316 209 316.220703125 244.252929688 c 4,155,156
 316 272 316 272 294.74609375 290.749023438 c 4,157,158
 265 316 265 316 230.095703125 299.040039062 c 132,-1,159
 195 282 195 282 195.102539062 243.342773438 c 4,160,161
 195 223 195 223 207.171875 207.118164062 c 4,162,163
 219 191 219 191 238.5703125 185.266601562 c 4,164,165
 248 182 248 182 262.124023438 183.864257812 c 4,166,167
 276 185 276 185 284.518554688 190.3984375 c 4,153,154
EndSplineSet
Validated: 37
EndChar

StartChar: champion
Encoding: 72 72 30
GlifName: fontawesome-webfont-28
Width: 512
GlyphClass: 2
LayerCount: 2
Fore
SplineSet
255.998046875 497.000976562 m 5,0,-1
 281.430664062 356.387695312 l 5,1,2
 298.4921875 352.602539062 298.4921875 352.602539062 313.541015625 343.73046875 c 5,3,-1
 429.885742188 424.657226562 l 5,4,-1
 350.013671875 308.799804688 l 5,5,6
 360.159179688 293.16796875 360.159179688 293.16796875 364.602539062 275.060546875 c 5,7,-1
 501.912109375 250.001953125 l 5,8,-1
 365.180664062 225.053710938 l 5,9,10
 361.025390625 206.31640625 361.025390625 206.31640625 350.78125 190.084960938 c 5,11,-1
 429.885742188 75.3466796875 l 5,12,-1
 315.370117188 154.99609375 l 5,13,14
 299.358398438 145.104492188 299.358398438 145.104492188 280.9765625 141.087890625 c 5,15,-1
 255.998046875 3.0029296875 l 5,16,-1
 230.8828125 141.876953125 l 5,17,18
 213.329101562 146.262695312 213.329101562 146.262695312 198.099609375 156.028320312 c 5,19,-1
 82.1064453125 75.3466796875 l 5,20,-1
 162.8515625 192.447265625 l 5,21,22
 153.91015625 207.44140625 153.91015625 207.44140625 150.0390625 224.463867188 c 5,23,-1
 10.083984375 250.001953125 l 5,24,-1
 150.711914062 275.661132812 l 5,25,26
 154.83203125 292.013671875 154.83203125 292.013671875 163.653320312 306.388671875 c 5,27,-1
 82.1103515625 424.657226562 l 5,28,-1
 199.955078125 342.6875 l 5,29,30
 214.20703125 351.428710938 214.20703125 351.428710938 230.411132812 355.552734375 c 5,31,-1
 255.998046875 497.000976562 l 5,0,-1
EndSplineSet
Validated: 1
EndChar

StartChar: cleric
Encoding: 73 73 31
GlifName: fontawesome-webfont-29
Width: 512
GlyphClass: 2
LayerCount: 2
Fore
SplineSet
89.939453125 38.357421875 m 5,0,-1
 113.248046875 40.658203125 l 6,1,2
 189.432617188 48.189453125 189.432617188 48.189453125 214.66796875 75.4130859375 c 4,3,4
 220.053710938 81.2294921875 220.053710938 81.2294921875 221.033203125 89.8466796875 c 132,-1,5
 222.013671875 98.4658203125 222.013671875 98.4658203125 222.013671875 140.069335938 c 4,6,7
 222.013671875 162.443359375 222.013671875 162.443359375 221.962890625 172.2734375 c 132,-1,8
 221.912109375 182.10546875 221.912109375 182.10546875 219.75390625 194.3984375 c 132,-1,9
 217.594726562 206.690429688 217.594726562 206.690429688 215.681640625 210.76953125 c 132,-1,10
 213.767578125 214.84765625 213.767578125 214.84765625 206.54296875 222.546875 c 132,-1,11
 199.318359375 230.248046875 199.318359375 230.248046875 192.8671875 234.2734375 c 132,-1,12
 186.41796875 238.297851562 186.41796875 238.297851562 171.685546875 247.31640625 c 4,13,14
 102.576171875 289.62109375 102.576171875 289.62109375 79.7568359375 354.513671875 c 6,15,-1
 72.3662109375 377.16015625 l 5,16,-1
 55.39453125 377.16015625 l 5,17,-1
 55.39453125 434.185546875 l 5,18,-1
 456.509765625 434.185546875 l 5,19,-1
 456.60546875 377.16015625 l 5,20,-1
 440.655273438 377.16015625 l 5,21,22
 435.133789062 362.904296875 435.133789062 362.904296875 432.276367188 354.022460938 c 4,23,24
 412.072265625 291.299804688 412.072265625 291.299804688 340.217773438 247.318359375 c 4,25,26
 325.486328125 238.30078125 325.486328125 238.30078125 319.036132812 234.274414062 c 132,-1,27
 312.583984375 230.249023438 312.583984375 230.249023438 305.360351562 222.547851562 c 132,-1,28
 298.13671875 214.84765625 298.13671875 214.84765625 296.223632812 210.76953125 c 132,-1,29
 294.310546875 206.692382812 294.310546875 206.692382812 292.15234375 194.3984375 c 132,-1,30
 289.994140625 182.102539062 289.994140625 182.102539062 289.944335938 172.274414062 c 132,-1,31
 289.893554688 162.446289062 289.893554688 162.446289062 289.893554688 140.069335938 c 4,32,33
 289.893554688 98.49609375 289.893554688 98.49609375 290.872070312 89.86328125 c 132,-1,34
 291.849609375 81.2294921875 291.849609375 81.2294921875 297.216796875 75.439453125 c 4,35,36
 308.623046875 63.126953125 308.623046875 63.126953125 335.982421875 53.650390625 c 132,-1,37
 363.340820312 44.1728515625 363.340820312 44.1728515625 397.114257812 40.830078125 c 6,38,-1
 422.545898438 38.5322265625 l 5,39,-1
 422.545898438 11.8984375 l 5,40,-1
 89.939453125 11.818359375 l 5,41,-1
 89.939453125 38.357421875 l 5,0,-1
EndSplineSet
Validated: 1
EndChar

StartChar: druid
Encoding: 74 74 32
GlifName: fontawesome-webfont-30
Width: 512
GlyphClass: 2
LayerCount: 2
Fore
SplineSet
389.635742188 8.626953125 m 132,-1,1
 377.475585938 9.5986328125 377.475585938 9.5986328125 349.245117188 11.4482421875 c 6,2,-1
 320.956054688 13.3037109375 l 5,3,-1
 322.955078125 29.2998046875 l 6,4,5
 324.958007812 45.3115234375 324.958007812 45.3115234375 330.4140625 63.3291015625 c 6,6,-1
 335.873046875 81.36328125 l 5,7,-1
 317.706054688 187.09765625 l 5,8,-1
 299.538085938 292.834960938 l 5,9,-1
 301.69921875 307.254882812 l 5,10,-1
 303.865234375 321.676757812 l 5,11,-1
 346.751953125 320.600585938 l 5,12,-1
 389.635742188 319.524414062 l 5,13,-1
 404.477539062 312.724609375 l 5,14,-1
 419.319335938 305.920898438 l 5,15,-1
 417.30859375 250.243164062 l 5,16,-1
 415.294921875 194.5703125 l 5,17,-1
 435.215820312 111.16796875 l 5,18,-1
 455.13671875 27.76953125 l 5,19,-1
 448.609375 17.20703125 l 5,20,-1
 442.08203125 6.64453125 l 5,21,-1
 421.909179688 7.15234375 l 6,22,0
 401.787109375 7.6572265625 401.787109375 7.6572265625 389.635742188 8.626953125 c 132,-1,1
70.1728515625 11.9140625 m 6,23,-1
 44.1279296875 12.9140625 l 5,24,-1
 37.595703125 19.869140625 l 5,25,-1
 31.06640625 26.8212890625 l 5,26,-1
 58.23828125 94.1162109375 l 5,27,-1
 85.412109375 161.41015625 l 5,28,-1
 88.890625 234.514648438 l 5,29,-1
 92.3701171875 307.624023438 l 5,30,-1
 97.9052734375 320.479492188 l 5,31,-1
 103.438476562 333.334960938 l 5,32,-1
 175.461914062 333.334960938 l 5,33,-1
 181.009765625 321.030273438 l 5,34,-1
 186.55859375 308.727539062 l 5,35,-1
 176.9609375 223.477539062 l 6,36,37
 167.360351562 138.150390625 167.360351562 138.150390625 164.306640625 84.48828125 c 6,38,-1
 161.248046875 30.74609375 l 5,39,-1
 154.444335938 20.2451171875 l 5,40,-1
 147.64453125 9.7451171875 l 5,41,-1
 121.930664062 10.328125 l 6,42,43
 96.162109375 10.912109375 96.162109375 10.912109375 70.1728515625 11.9140625 c 6,23,-1
436.525390625 331.852539062 m 5,44,-1
 407.788085938 338.77734375 l 5,45,-1
 238.390625 342.174804688 l 5,46,-1
 68.994140625 345.56640625 l 5,47,-1
 58.427734375 342.475585938 l 6,48,49
 47.86328125 339.387695312 47.86328125 339.387695312 47.1455078125 339.387695312 c 132,-1,50
 46.4345703125 339.387695312 46.4345703125 339.387695312 40.7314453125 350.732421875 c 6,51,-1
 35.03515625 362.07421875 l 5,52,-1
 32.9580078125 385.778320312 l 5,53,-1
 30.8828125 409.485351562 l 5,54,-1
 35.9833984375 422.833984375 l 5,55,-1
 41.0791015625 436.182617188 l 5,56,-1
 103.434570312 436.20703125 l 6,57,58
 166.930664062 436.232421875 166.930664062 436.232421875 258.056640625 440.926757812 c 132,-1,59
 349.18359375 445.620117188 349.18359375 445.620117188 394.994140625 451.224609375 c 4,60,61
 445.176757812 457.359375 445.176757812 457.359375 453.978515625 457.359375 c 6,62,-1
 462.809570312 457.359375 l 5,63,-1
 467.96484375 451.662109375 l 5,64,-1
 473.12109375 445.965820312 l 5,65,-1
 475.958007812 407.043945312 l 6,66,67
 478.793945312 368.172851562 478.793945312 368.172851562 479.958984375 355.439453125 c 6,68,-1
 481.1171875 342.755859375 l 5,69,-1
 473.186523438 333.841796875 l 5,70,-1
 465.262695312 324.927734375 l 5,71,-1
 436.525390625 331.852539062 l 5,44,-1
EndSplineSet
Validated: 1
EndChar

StartChar: eldritch
Encoding: 75 75 33
GlifName: fontawesome-webfont-31
Width: 512
GlyphClass: 2
LayerCount: 2
Fore
SplineSet
254.645507812 498.000976562 m 5,0,-1
 262.302734375 436.009765625 l 6,1,2
 259.14453125 436.125 259.14453125 436.125 255.998046875 436.133789062 c 4,3,4
 251.828125 436.072265625 251.828125 436.072265625 247.653320312 435.8203125 c 5,5,-1
 254.645507812 498.000976562 l 5,0,-1
262.298828125 436.009765625 m 5,6,7
 290.532226562 435.046875 290.532226562 435.046875 325.2734375 420.881835938 c 132,-1,8
 360.014648438 406.715820312 360.014648438 406.715820312 380.869140625 387.662109375 c 5,9,-1
 278.380859375 305.891601562 l 5,10,-1
 262.298828125 436.009765625 l 5,6,7
380.869140625 387.662109375 m 5,11,-1
 429.685546875 426.6171875 l 5,12,-1
 391.278320312 377.370117188 l 5,13,14
 386.280273438 382.71875 386.280273438 382.71875 380.869140625 387.662109375 c 5,11,-1
391.278320312 377.370117188 m 5,15,16
 410.561523438 356.725585938 410.561523438 356.725585938 425.109375 322.140625 c 132,-1,17
 439.657226562 287.556640625 439.657226562 287.556640625 440.9296875 259.3359375 c 5,18,-1
 310.638671875 273.985351562 l 5,19,-1
 391.278320312 377.370117188 l 5,15,16
440.9296875 259.3359375 m 5,20,-1
 502.993164062 252.354492188 l 5,21,-1
 440.892578125 244.682617188 l 6,22,23
 441.067382812 247.899414062 441.067382812 247.899414062 441.129882812 251.001953125 c 4,24,25
 441.125 255.165039062 441.125 255.165039062 440.9296875 259.3359375 c 5,20,-1
440.892578125 244.682617188 m 5,26,27
 439.939453125 216.46484375 439.939453125 216.46484375 425.80078125 181.737304688 c 132,-1,28
 411.661132812 147.008789062 411.661132812 147.008789062 392.635742188 126.153320312 c 5,29,-1
 310.883789062 228.616210938 l 5,30,-1
 440.892578125 244.682617188 l 5,26,27
392.638671875 126.153320312 m 5,31,-1
 431.60546875 77.310546875 l 5,32,-1
 382.358398438 115.721679688 l 5,33,34
 387.700195312 120.727539062 387.700195312 120.727539062 392.638671875 126.153320312 c 5,31,-1
382.358398438 115.721679688 m 5,35,36
 361.709960938 96.470703125 361.709960938 96.470703125 327.130859375 81.955078125 c 132,-1,37
 292.551757812 67.439453125 292.551757812 67.439453125 264.34375 66.18359375 c 5,38,-1
 278.985351562 196.361328125 l 5,39,-1
 382.358398438 115.721679688 l 5,35,36
264.33984375 66.1796875 m 5,40,-1
 257.3515625 4.0029296875 l 5,41,-1
 249.678710938 66.1044921875 l 6,42,43
 252.819335938 65.931640625 252.819335938 65.931640625 255.994140625 65.8662109375 c 4,44,45
 260.162109375 65.927734375 260.162109375 65.927734375 264.33984375 66.1796875 c 5,40,-1
249.674804688 66.1044921875 m 5,46,47
 221.4609375 67.056640625 221.4609375 67.056640625 186.733398438 81.1962890625 c 132,-1,48
 152.004882812 95.3349609375 152.004882812 95.3349609375 131.149414062 114.361328125 c 5,49,-1
 233.612304688 196.112304688 l 5,50,-1
 249.674804688 66.1044921875 l 5,46,47
131.149414062 114.357421875 m 5,51,-1
 82.302734375 75.38671875 l 5,52,-1
 120.717773438 124.637695312 l 5,53,54
 125.723632812 119.297851562 125.723632812 119.297851562 131.149414062 114.357421875 c 5,51,-1
120.717773438 124.637695312 m 5,55,56
 101.462890625 145.290039062 101.462890625 145.290039062 86.947265625 179.869140625 c 132,-1,57
 72.4306640625 214.44921875 72.4306640625 214.44921875 71.17578125 242.65625 c 5,58,-1
 201.353515625 228.014648438 l 5,59,-1
 120.717773438 124.637695312 l 5,55,56
71.1796875 242.66015625 m 5,60,-1
 8.9951171875 249.645507812 l 5,61,-1
 71.1044921875 257.321289062 l 6,62,63
 70.931640625 254.180664062 70.931640625 254.180664062 70.8662109375 251.005859375 c 4,64,65
 70.927734375 246.837890625 70.927734375 246.837890625 71.1796875 242.66015625 c 5,60,-1
71.1044921875 257.325195312 m 5,66,67
 72.0556640625 285.5390625 72.0556640625 285.5390625 86.1943359375 320.266601562 c 132,-1,68
 100.33203125 354.995117188 100.33203125 354.995117188 119.357421875 375.850585938 c 5,69,-1
 201.108398438 273.387695312 l 5,70,-1
 71.1044921875 257.325195312 l 5,66,67
119.357421875 375.850585938 m 5,71,-1
 80.390625 424.693359375 l 5,72,-1
 129.637695312 386.282226562 l 5,73,74
 124.297851562 381.276367188 124.297851562 381.276367188 119.357421875 375.850585938 c 5,71,-1
129.637695312 386.282226562 m 5,75,76
 150.2890625 405.537109375 150.2890625 405.537109375 184.8671875 420.052734375 c 132,-1,77
 219.446289062 434.568359375 219.446289062 434.568359375 247.653320312 435.82421875 c 5,78,-1
 233.014648438 305.646484375 l 5,79,-1
 129.637695312 386.282226562 l 5,75,76
EndSplineSet
Validated: 2053
EndChar

StartChar: enchanter
Encoding: 76 76 34
GlifName: fontawesome-webfont-32
Width: 512
GlyphClass: 2
LayerCount: 2
Fore
SplineSet
116.7265625 129.634765625 m 5,0,-1
 114.587890625 195.927734375 l 6,1,2
 111.970703125 253.3984375 111.970703125 253.3984375 106.579101562 293.12890625 c 4,3,4
 104.952148438 305.13671875 104.952148438 305.13671875 119.7578125 316.732421875 c 6,5,-1
 172.860351562 358.310546875 l 6,6,7
 175.208984375 361.092773438 175.208984375 361.092773438 182.486328125 407.19140625 c 4,8,9
 191.510742188 464.366210938 191.510742188 464.366210938 199.493164062 476.18359375 c 132,-1,10
 207.4765625 488.000976562 207.4765625 488.000976562 239.768554688 493.447265625 c 4,11,12
 256.876953125 496.3359375 256.876953125 496.3359375 274.884765625 493.587890625 c 4,13,14
 308.3046875 488.487304688 308.3046875 488.487304688 315.215820312 477.940429688 c 4,15,16
 323.330078125 465.5546875 323.330078125 465.5546875 332.567382812 405.22265625 c 4,17,18
 338.803710938 364.473632812 338.803710938 364.473632812 338.803710938 362.124023438 c 6,19,-1
 396.56640625 315.315429688 l 5,20,21
 405.620117188 299.611328125 405.620117188 299.611328125 405.549804688 290.650390625 c 4,22,23
 401.252929688 251.083984375 401.252929688 251.083984375 399.661132812 207.655273438 c 4,24,25
 396.236328125 132.936523438 396.236328125 132.936523438 395.518554688 127.412109375 c 6,26,-1
 278.754882812 1.0029296875 l 5,27,-1
 267.6015625 10.802734375 l 5,28,-1
 267.922851562 167.698242188 l 5,29,-1
 278.920898438 177.994140625 l 5,30,-1
 321.693359375 181.444335938 l 5,31,-1
 321.674804688 203.713867188 l 6,32,33
 321.670898438 209.1328125 321.670898438 209.1328125 321.193359375 216.29296875 c 132,-1,34
 320.715820312 223.454101562 320.715820312 223.454101562 320.072265625 230.72265625 c 132,-1,35
 319.427734375 237.9921875 319.427734375 237.9921875 319.278320312 240.533203125 c 4,36,37
 317.779296875 265.971679688 317.779296875 265.971679688 307.108398438 264.866210938 c 4,38,39
 304.448242188 264.590820312 304.448242188 264.590820312 302.073242188 263.483398438 c 132,-1,40
 299.69921875 262.375 299.69921875 262.375 297.584960938 259.999023438 c 132,-1,41
 295.470703125 257.623046875 295.470703125 257.623046875 294.028320312 255.903320312 c 132,-1,42
 292.5859375 254.184570312 292.5859375 254.184570312 290.756835938 250.408203125 c 132,-1,43
 288.927734375 246.6328125 288.927734375 246.6328125 288.2265625 245.15625 c 132,-1,44
 287.524414062 243.6796875 287.524414062 243.6796875 285.788085938 239.356445312 c 132,-1,45
 284.051757812 235.034179688 284.051757812 235.034179688 283.830078125 234.500976562 c 4,46,47
 280.154296875 225.669921875 280.154296875 225.669921875 271.352539062 214.8125 c 132,-1,48
 262.551757812 203.955078125 262.551757812 203.955078125 257.34375 205.470703125 c 4,49,50
 242.763671875 209.70703125 242.763671875 209.70703125 231.201171875 233.673828125 c 4,51,52
 225.678710938 245.109375 225.678710938 245.109375 218.190429688 254.489257812 c 132,-1,53
 210.703125 263.868164062 210.703125 263.868164062 207.1171875 263.868164062 c 4,54,55
 200.965820312 263.868164062 200.965820312 263.868164062 196.618164062 245.263671875 c 132,-1,56
 192.271484375 226.659179688 192.271484375 226.659179688 192.204101562 200.028320312 c 6,57,-1
 192.154296875 181.403320312 l 5,58,-1
 237.369140625 177.903320312 l 5,59,-1
 245.92578125 170.23828125 l 5,60,-1
 245.92578125 10.802734375 l 5,61,-1
 236.791015625 1.025390625 l 5,62,-1
 116.7265625 129.634765625 l 5,0,-1
270.000976562 284.598632812 m 132,-1,64
 277.45703125 293.091796875 277.45703125 293.091796875 286.209960938 311.545898438 c 132,-1,65
 294.962890625 330 294.962890625 330 297.248046875 342.043945312 c 4,66,67
 299.271484375 352.721679688 299.271484375 352.721679688 299.579101562 370.748046875 c 132,-1,68
 299.88671875 388.7734375 299.88671875 388.7734375 298.155273438 395.236328125 c 4,69,70
 297.299804688 398.431640625 297.299804688 398.431640625 295.793945312 399.626953125 c 132,-1,71
 294.2890625 400.821289062 294.2890625 400.821289062 291.6640625 400.016601562 c 132,-1,72
 289.040039062 399.211914062 289.040039062 399.211914062 285.3515625 396.423828125 c 132,-1,73
 281.663085938 393.635742188 281.663085938 393.635742188 276.249023438 388.516601562 c 4,74,75
 274.8125 387.158203125 274.8125 387.158203125 272.447265625 384.25 c 132,-1,76
 270.083007812 381.342773438 270.083007812 381.342773438 267.928710938 379.305664062 c 132,-1,77
 265.775390625 377.268554688 265.775390625 377.268554688 263.326171875 376.293945312 c 4,78,79
 262.090820312 375.801757812 262.090820312 375.801757812 258.891601562 375.5859375 c 132,-1,80
 255.692382812 375.37109375 255.692382812 375.37109375 254.482421875 375.836914062 c 4,81,82
 253.717773438 376.189453125 253.717773438 376.189453125 238.287109375 388.569335938 c 6,83,-1
 222.991210938 400.845703125 l 6,84,85
 219.872070312 403.349609375 219.872070312 403.349609375 217.787109375 400.4453125 c 132,-1,86
 215.703125 397.540039062 215.703125 397.540039062 215.375976562 393.229492188 c 4,87,88
 212.712890625 358.041015625 212.712890625 358.041015625 213.674804688 352.3203125 c 6,89,-1
 217.787109375 338.162109375 l 6,90,91
 224.091796875 316.482421875 224.091796875 316.482421875 237.233398438 296.28515625 c 132,-1,92
 250.375 276.087890625 250.375 276.087890625 258.178710938 276.087890625 c 4,93,63
 262.520507812 276.087890625 262.520507812 276.087890625 270.000976562 284.598632812 c 132,-1,64
EndSplineSet
Validated: 33
EndChar

StartChar: friar
Encoding: 77 77 35
GlifName: arrow-full-lowerright
Width: 512
GlyphClass: 2
LayerCount: 2
Fore
SplineSet
174.821289062 91.369140625 m 5,0,-1
 204.396484375 52.6787109375 l 5,1,-1
 116.174804688 2.0029296875 l 5,2,-1
 174.821289062 91.369140625 l 5,0,-1
306.564453125 52.6787109375 m 5,3,-1
 335.96484375 91.134765625 l 5,4,-1
 393.153320312 4.017578125 l 5,5,-1
 306.564453125 52.6787109375 l 5,3,-1
106.446289062 187.649414062 m 5,6,-1
 202.634765625 157.318359375 l 5,7,-1
 135.510742188 297.296875 l 5,8,-1
 222.583007812 204.494140625 l 5,9,-1
 255.72265625 496.004882812 l 5,10,-1
 288.33984375 204.490234375 l 5,11,-1
 375.446289062 297.29296875 l 5,12,-1
 308.321289062 157.314453125 l 5,13,-1
 404.510742188 187.645507812 l 5,14,-1
 405.028320312 187.078125 l 5,15,-1
 405.549804688 186.51171875 l 5,16,-1
 254.807617188 30.1982421875 l 5,17,-1
 106.446289062 187.649414062 l 5,6,-1
EndSplineSet
Validated: 1
EndChar

StartChar: healer
Encoding: 78 78 36
GlifName: arrow-full-upperright
Width: 512
GlyphClass: 2
LayerCount: 2
Fore
SplineSet
111.413085938 105.00390625 m 5,0,-1
 89.1171875 115.926757812 l 5,1,-1
 75.8818359375 142.788085938 l 5,2,-1
 62.6455078125 169.649414062 l 5,3,-1
 35.822265625 195.236328125 l 5,4,-1
 8.9990234375 220.831054688 l 5,5,-1
 15.6513671875 230.876953125 l 5,6,-1
 22.294921875 240.922851562 l 5,7,-1
 25.7314453125 239.604492188 l 6,8,9
 31.42578125 237.421875 31.42578125 237.421875 49.642578125 224.381835938 c 132,-1,10
 67.8583984375 211.341796875 67.8583984375 211.341796875 71.228515625 207.036132812 c 4,11,12
 76.0380859375 200.907226562 76.0380859375 200.907226562 82.0986328125 194.076171875 c 6,13,-1
 88.1611328125 187.25 l 5,14,-1
 116.734375 181.4453125 l 6,15,16
 145.30078125 175.63671875 145.30078125 175.63671875 146.127929688 176.463867188 c 4,17,18
 146.350585938 176.686523438 146.350585938 176.686523438 142.859375 178.622070312 c 132,-1,19
 139.368164062 180.557617188 139.368164062 180.557617188 133.159179688 183.665039062 c 132,-1,20
 126.951171875 186.772460938 126.951171875 186.772460938 119.53515625 190.2890625 c 6,21,-1
 92.1142578125 203.290039062 l 5,22,-1
 90.3837890625 222.482421875 l 5,23,-1
 88.6484375 241.682617188 l 5,24,-1
 79.4794921875 262.821289062 l 5,25,-1
 70.310546875 283.963867188 l 5,26,-1
 63.650390625 316.1015625 l 5,27,-1
 56.9912109375 348.239257812 l 5,28,-1
 62.6796875 360.37890625 l 6,29,30
 65.0224609375 365.384765625 65.0224609375 365.384765625 67.2001953125 368.639648438 c 132,-1,31
 69.3779296875 371.895507812 69.3779296875 371.895507812 70.0869140625 371.456054688 c 4,32,33
 73.6298828125 369.265625 73.6298828125 369.265625 82.591796875 351.790039062 c 132,-1,34
 91.5537109375 334.313476562 91.5537109375 334.313476562 95.28125 322.326171875 c 4,35,36
 99.9423828125 307.342773438 99.9423828125 307.342773438 109.6328125 275.978515625 c 6,37,-1
 118.35546875 247.745117188 l 5,38,-1
 123.627929688 247.801757812 l 6,39,40
 129.627929688 247.873046875 129.627929688 247.873046875 157.6328125 253.547851562 c 132,-1,41
 185.637695312 259.22265625 185.637695312 259.22265625 187.075195312 260.66015625 c 4,42,43
 188.76171875 262.354492188 188.76171875 262.354492188 196.270507812 316.317382812 c 132,-1,44
 203.795898438 370.29296875 203.795898438 370.29296875 205.220703125 371.724609375 c 132,-1,45
 206.650390625 373.147460938 206.650390625 373.147460938 213.77734375 371.588867188 c 6,46,-1
 220.901367188 370.020507812 l 5,47,-1
 222.677734375 325.100585938 l 6,48,49
 224.461914062 280.235351562 224.461914062 280.235351562 223.078125 253.841796875 c 6,50,-1
 221.69140625 227.501953125 l 5,51,-1
 226.517578125 206.987304688 l 6,52,53
 231.34765625 186.442382812 231.34765625 186.442382812 234.696289062 161.235351562 c 6,54,-1
 238.048828125 136.0078125 l 5,55,-1
 228.252929688 119.786132812 l 6,56,57
 218.4609375 103.568359375 218.4609375 103.568359375 216.634765625 103.568359375 c 132,-1,58
 214.802734375 103.568359375 214.802734375 103.568359375 204.513671875 107.196289062 c 6,59,-1
 194.217773438 110.83203125 l 5,60,-1
 175.063476562 103.443359375 l 6,61,62
 155.913085938 96.0556640625 155.913085938 96.0556640625 144.80859375 95.0712890625 c 6,63,-1
 133.704101562 94.0849609375 l 5,64,-1
 111.413085938 105.00390625 l 5,0,-1
343.962890625 97.4677734375 m 4,65,66
 333.11328125 100.5625 333.11328125 100.5625 320.627929688 105.59375 c 6,67,-1
 308.110351562 110.631835938 l 5,68,-1
 298.098632812 107.09765625 l 6,69,70
 288.09765625 103.568359375 288.09765625 103.568359375 286.204101562 103.568359375 c 132,-1,71
 284.318359375 103.568359375 284.318359375 103.568359375 274.374023438 119.313476562 c 6,72,-1
 264.430664062 135.05859375 l 5,73,-1
 266.973632812 157.157226562 l 6,74,75
 269.513671875 179.232421875 269.513671875 179.232421875 274.302734375 200.76171875 c 6,76,-1
 279.083007812 222.267578125 l 5,77,-1
 279.094726562 272.852539062 l 6,78,79
 279.109375 323.487304688 279.109375 323.487304688 280.65234375 346.75 c 6,80,-1
 282.194335938 370.065429688 l 5,81,-1
 289.223632812 371.607421875 l 6,82,83
 296.243164062 373.15234375 296.243164062 373.15234375 297.2890625 372.106445312 c 132,-1,84
 298.33984375 371.064453125 298.33984375 371.064453125 305.883789062 316.010742188 c 132,-1,85
 313.444335938 260.947265625 313.444335938 260.947265625 314.07421875 260.168945312 c 132,-1,86
 314.819335938 259.236328125 314.819335938 259.236328125 344.807617188 253.497070312 c 132,-1,87
 374.795898438 247.758789062 374.795898438 247.758789062 378.94921875 247.752929688 c 6,88,-1
 383.900390625 247.741210938 l 5,89,-1
 397.793945312 292.79296875 l 5,90,-1
 411.68359375 337.852539062 l 5,91,-1
 421.676757812 355.2421875 l 6,92,93
 431.666992188 372.630859375 431.666992188 372.630859375 433.151367188 372.666015625 c 132,-1,94
 434.629882812 372.692382812 434.629882812 372.692382812 439.811523438 360.227539062 c 6,95,-1
 444.993164062 347.762695312 l 5,96,-1
 438.704101562 316.5703125 l 5,97,-1
 432.415039062 285.381835938 l 5,98,-1
 423.056640625 263.80859375 l 5,99,-1
 413.698242188 242.23046875 l 5,100,-1
 412.111328125 223.201171875 l 5,101,-1
 410.5234375 204.166992188 l 5,102,-1
 382.649414062 190.036132812 l 5,103,-1
 357.852539062 175.779296875 l 6,104,105
 360.909179688 175.65625 360.909179688 175.65625 386.690429688 182.057617188 c 6,106,-1
 412.443359375 188.463867188 l 5,107,-1
 425.661132812 198.479492188 l 6,108,109
 437.654296875 207.572265625 437.654296875 207.572265625 460.467773438 222.916992188 c 132,-1,110
 483.280273438 238.262695312 483.280273438 238.262695312 486.828125 239.623046875 c 6,111,-1
 490.229492188 240.926757812 l 5,112,-1
 496.6171875 230.81640625 l 5,113,-1
 502.997070312 220.703125 l 5,114,-1
 475.670898438 194.873046875 l 5,115,-1
 448.341796875 169.047851562 l 5,116,-1
 430.91796875 142.689453125 l 5,117,-1
 413.487304688 116.334960938 l 5,118,-1
 390.140625 105.140625 l 6,119,120
 371.587890625 96.248046875 371.587890625 96.248046875 364.212890625 95.0224609375 c 132,-1,121
 356.837890625 93.796875 356.837890625 93.796875 343.962890625 97.4677734375 c 4,65,66
112.614257812 315.62109375 m 6,122,123
 101.209960938 371.48046875 101.209960938 371.48046875 101.23828125 380.224609375 c 6,124,-1
 101.264648438 388.955078125 l 5,125,-1
 106.668945312 390.403320312 l 6,126,127
 112.100585938 391.8515625 112.100585938 391.8515625 116.322265625 391.884765625 c 6,128,-1
 120.56640625 391.918945312 l 5,129,-1
 124.06640625 384.110351562 l 6,130,131
 127.564453125 376.311523438 127.564453125 376.311523438 137.426757812 325.837890625 c 132,-1,132
 147.290039062 275.3671875 147.290039062 275.3671875 148.5234375 270.142578125 c 6,133,-1
 149.759765625 264.908203125 l 5,134,-1
 140.530273438 262.345703125 l 6,135,136
 131.2890625 259.778320312 131.2890625 259.778320312 127.661132812 259.771484375 c 6,137,-1
 124.013671875 259.756835938 l 5,138,-1
 112.614257812 315.62109375 l 6,122,123
361.3828125 262.40234375 m 132,-1,140
 353.580078125 264.6953125 353.580078125 264.6953125 353.634765625 267.63671875 c 4,141,142
 353.790039062 274.646484375 353.790039062 274.646484375 365.95703125 330.345703125 c 132,-1,143
 378.125 386.043945312 378.125 386.043945312 379.993164062 388.297851562 c 4,144,145
 385.080078125 394.4296875 385.080078125 394.4296875 395.428710938 390.459960938 c 6,146,-1
 399.23046875 389.000976562 l 5,147,-1
 399.11328125 375.440429688 l 6,148,149
 398.99609375 361.877929688 398.99609375 361.877929688 388.798828125 311.418945312 c 6,150,-1
 378.6015625 260.958007812 l 5,151,-1
 373.896484375 260.53125 l 6,152,139
 369.178710938 260.103515625 369.178710938 260.103515625 361.3828125 262.40234375 c 132,-1,140
161.309570312 269.96875 m 132,-1,154
 161.2734375 270.614257812 161.2734375 270.614257812 157.73828125 319.83203125 c 132,-1,155
 154.198242188 369.213867188 154.198242188 369.213867188 154.169921875 375.697265625 c 6,156,-1
 154.1328125 382.307617188 l 5,157,-1
 164.348632812 382.26953125 l 6,158,159
 174.56640625 382.235351562 174.56640625 382.235351562 177.614257812 380.29296875 c 6,160,-1
 180.671875 378.353515625 l 5,161,-1
 182.203125 323.861328125 l 5,162,-1
 183.733398438 269.368164062 l 5,163,-1
 172.53515625 269.368164062 l 6,164,153
 161.340820312 269.368164062 161.340820312 269.368164062 161.309570312 269.96875 c 132,-1,154
319.936523438 321.188476562 m 5,165,-1
 319.936523438 373.009765625 l 5,166,-1
 322.422851562 377.658203125 l 5,167,-1
 324.91015625 382.307617188 l 5,168,-1
 336.841796875 382.307617188 l 6,169,170
 348.770507812 382.307617188 348.770507812 382.307617188 348.736328125 380.504882812 c 132,-1,171
 348.700195312 378.689453125 348.700195312 378.689453125 345.16796875 329.443359375 c 132,-1,172
 341.630859375 280.1953125 341.630859375 280.1953125 341.596679688 274.776367188 c 6,173,-1
 341.5625 269.372070312 l 5,174,-1
 319.936523438 269.372070312 l 5,175,-1
 319.936523438 321.188476562 l 5,165,-1
EndSplineSet
Validated: 33
EndChar

StartChar: hero
Encoding: 79 79 37
GlifName: fontawesome-webfont-33
Width: 512
GlyphClass: 2
LayerCount: 2
Fore
SplineSet
228.415039062 34.931640625 m 5,0,-1
 205.133789062 58.5830078125 l 5,1,-1
 212.609375 72.6806640625 l 6,2,3
 229.474609375 104.4765625 229.474609375 104.4765625 223.1015625 128.126953125 c 4,4,5
 220.674804688 137.155273438 220.674804688 137.155273438 213.818359375 147.515625 c 4,6,7
 208.749023438 155.165039062 208.749023438 155.165039062 193.427734375 170.671875 c 132,-1,8
 178.10546875 186.178710938 178.10546875 186.178710938 170.415039062 191.44140625 c 6,9,-1
 165.146484375 195.046875 l 5,10,-1
 174.881835938 209.159179688 l 5,11,-1
 184.618164062 223.268554688 l 5,12,-1
 147.828125 260.708007812 l 5,13,-1
 111.038085938 298.1484375 l 5,14,-1
 103.052734375 328.864257812 l 6,15,16
 95.0654296875 359.584960938 95.0654296875 359.584960938 93.9130859375 361.16015625 c 132,-1,17
 92.7470703125 362.755859375 92.7470703125 362.755859375 72.0302734375 378.111328125 c 4,18,19
 61.849609375 385.658203125 61.849609375 385.658203125 46.1748046875 399.872070312 c 132,-1,20
 30.5009765625 414.084960938 30.5009765625 414.084960938 19.2236328125 425.813476562 c 132,-1,21
 7.9462890625 437.541992188 7.9462890625 437.541992188 9.09375 438.689453125 c 132,-1,22
 10.41796875 440.013671875 10.41796875 440.013671875 28.5126953125 437.767578125 c 6,23,-1
 46.60546875 435.522460938 l 5,24,-1
 67.861328125 412.65625 l 6,25,26
 89.1298828125 389.779296875 89.1298828125 389.779296875 94.71875 386.124023438 c 6,27,-1
 100.319335938 382.450195312 l 5,28,-1
 104.125976562 397.598632812 l 6,29,30
 107.919921875 412.720703125 107.919921875 412.720703125 117.255859375 429.736328125 c 4,31,32
 123.436523438 440.997070312 123.436523438 440.997070312 126.124023438 443.861328125 c 132,-1,33
 128.811523438 446.724609375 128.811523438 446.724609375 133.201171875 446.724609375 c 4,34,35
 142.147460938 446.724609375 142.147460938 446.724609375 142.541015625 440.734375 c 132,-1,36
 142.934570312 434.743164062 142.934570312 434.743164062 135.1484375 417.09765625 c 4,37,38
 125.874023438 396.08203125 125.874023438 396.08203125 122.456054688 379.33984375 c 4,39,40
 119.93359375 366.961914062 119.93359375 366.961914062 120.405273438 361.232421875 c 132,-1,41
 120.877929688 355.502929688 120.877929688 355.502929688 126.084960938 335.31640625 c 4,42,43
 133.111328125 308.033203125 133.111328125 308.033203125 134.823242188 305.080078125 c 4,44,45
 136.985351562 301.352539062 136.985351562 301.352539062 166.924804688 277.3671875 c 132,-1,46
 196.865234375 253.381835938 196.865234375 253.381835938 198.625 253.965820312 c 4,47,48
 200.83984375 254.704101562 200.83984375 254.704101562 205.193359375 267.212890625 c 4,49,50
 213.974609375 292.375976562 213.974609375 292.375976562 198.938476562 331.268554688 c 4,51,52
 191.678710938 350.044921875 191.678710938 350.044921875 192.779296875 354.8125 c 132,-1,53
 193.87890625 359.581054688 193.87890625 359.581054688 205.27734375 358.73046875 c 4,54,55
 211.940429688 358.234375 211.940429688 358.234375 214.451171875 355.890625 c 132,-1,56
 216.961914062 353.546875 216.961914062 353.546875 223.20703125 341.994140625 c 4,57,58
 251.301757812 289.98828125 251.301757812 289.98828125 215.129882812 221.874023438 c 6,59,-1
 207.211914062 206.959960938 l 5,60,-1
 214.551757812 197.336914062 l 6,61,62
 221.899414062 187.708007812 221.899414062 187.708007812 231.23828125 180.737304688 c 132,-1,63
 240.495117188 173.822265625 240.495117188 173.822265625 246.810546875 169.153320312 c 6,64,-1
 253.03125 164.541992188 l 5,65,-1
 252.366210938 87.9091796875 l 5,66,-1
 251.704101562 11.275390625 l 5,67,-1
 228.415039062 34.931640625 l 5,0,-1
259.766601562 88.9326171875 m 5,68,-1
 259.766601562 165.328125 l 5,69,-1
 275.315429688 176.640625 l 6,70,71
 290.874023438 187.963867188 290.874023438 187.963867188 297.357421875 197.336914062 c 6,72,-1
 303.850585938 206.713867188 l 5,73,-1
 293.404296875 228.24609375 l 6,74,75
 257.977539062 301.245117188 257.977539062 301.245117188 294.401367188 352.395507812 c 4,76,77
 299.241210938 359.19140625 299.241210938 359.19140625 308.015625 359.19140625 c 4,78,79
 318.500976562 359.19140625 318.500976562 359.19140625 319.169921875 354.346679688 c 132,-1,80
 319.83984375 349.502929688 319.83984375 349.502929688 312.158203125 329.24609375 c 4,81,82
 302.979492188 305.049804688 302.979492188 305.049804688 302.969726562 290.819335938 c 4,83,84
 302.961914062 280.208007812 302.961914062 280.208007812 306.696289062 266.717773438 c 132,-1,85
 310.431640625 253.228515625 310.431640625 253.228515625 313.37890625 253.228515625 c 4,86,87
 316.111328125 253.228515625 316.111328125 253.228515625 346.66796875 279.053710938 c 132,-1,88
 377.224609375 304.87890625 377.224609375 304.87890625 378.13671875 307.959960938 c 4,89,90
 391.0625 351.626953125 391.0625 351.626953125 391.0625 363.918945312 c 4,91,92
 391.0625 385.237304688 391.0625 385.237304688 375.907226562 418.506835938 c 4,93,94
 367.79296875 436.3046875 367.79296875 436.3046875 370.166015625 441.516601562 c 132,-1,95
 372.538085938 446.724609375 372.538085938 446.724609375 378.983398438 446.724609375 c 4,96,97
 383.29296875 446.724609375 383.29296875 446.724609375 385.975585938 443.578125 c 132,-1,98
 388.658203125 440.430664062 388.658203125 440.430664062 395.182617188 427.721679688 c 4,99,100
 404.9296875 408.743164062 404.9296875 408.743164062 407.760742188 396.623046875 c 132,-1,101
 410.5859375 384.529296875 410.5859375 384.529296875 413.286132812 384.529296875 c 4,102,103
 419.306640625 384.529296875 419.306640625 384.529296875 452.668945312 421.991210938 c 6,104,-1
 464.495117188 435.26953125 l 5,105,-1
 483.204101562 437.786132812 l 6,106,107
 501.916992188 440.302734375 501.916992188 440.302734375 502.891601562 439.328125 c 4,108,109
 504.106445312 438.111328125 504.106445312 438.111328125 493.229492188 426.5703125 c 132,-1,110
 482.353515625 415.030273438 482.353515625 415.030273438 467.002929688 400.984375 c 132,-1,111
 451.653320312 386.938476562 451.653320312 386.938476562 441.311523438 379.249023438 c 6,112,-1
 417.16796875 361.295898438 l 5,113,-1
 408.702148438 330.024414062 l 6,114,115
 401.258789062 302.529296875 401.258789062 302.529296875 394.770507812 292.8671875 c 132,-1,116
 388.28125 283.206054688 388.28125 283.206054688 356.725585938 252.631835938 c 6,117,-1
 326.720703125 223.567382812 l 5,118,-1
 334.721679688 212.481445312 l 6,119,120
 343.75 199.969726562 343.75 199.969726562 344.004882812 196.869140625 c 132,-1,121
 344.260742188 193.768554688 344.260742188 193.768554688 336.740234375 187.975585938 c 4,122,123
 324.830078125 178.80078125 324.830078125 178.80078125 311.30859375 163.783203125 c 132,-1,124
 297.787109375 148.764648438 297.787109375 148.764648438 293.264648438 139.684570312 c 4,125,126
 287.40625 127.927734375 287.40625 127.927734375 287.40625 117.354492188 c 4,127,128
 287.40625 92.1259765625 287.40625 92.1259765625 300.293945312 69.0751953125 c 6,129,-1
 306.03125 58.806640625 l 5,130,-1
 282.900390625 35.67578125 l 5,131,-1
 259.766601562 12.541015625 l 5,132,-1
 259.766601562 88.9326171875 l 5,68,-1
EndSplineSet
Validated: 33
EndChar

StartChar: hunter
Encoding: 80 80 38
GlifName: fontawesome-webfont-41
Width: 512
GlyphClass: 2
LayerCount: 2
Fore
SplineSet
207.298828125 237.034179688 m 5,0,-1
 112.092773438 51.505859375 l 5,1,-1
 83.708984375 110.783203125 l 5,2,-1
 208.104492188 257.549804688 l 5,3,-1
 67.0146484375 136.041992188 l 5,4,-1
 19.7294921875 216.905273438 l 6,5,6
 19.236328125 217.758789062 19.236328125 217.758789062 31.861328125 217.758789062 c 4,7,8
 41.5126953125 217.758789062 41.5126953125 217.758789062 67.0546875 231.463867188 c 132,-1,9
 92.5966796875 245.16796875 92.5966796875 245.16796875 117.791992188 263.9375 c 4,10,11
 121.015625 266.338867188 121.015625 266.338867188 132.177734375 275.529296875 c 132,-1,12
 143.338867188 284.719726562 143.338867188 284.719726562 151.13671875 289.625 c 132,-1,13
 158.93359375 294.53125 158.93359375 294.53125 167.541992188 297.215820312 c 4,14,15
 171.493164062 300.923828125 171.493164062 300.923828125 194.286132812 299.422851562 c 132,-1,16
 217.079101562 297.921875 217.079101562 297.921875 221.649414062 298.161132812 c 6,17,-1
 229.783203125 309.915039062 l 5,18,-1
 247.78125 309.579101562 l 5,19,-1
 247.78125 141.122070312 l 5,20,-1
 213.935546875 118.278320312 l 5,21,-1
 220.228515625 46.970703125 l 5,22,-1
 258.182617188 72.3046875 l 5,23,-1
 296.771484375 46.970703125 l 5,24,-1
 304.323242188 117.96875 l 5,25,-1
 268.622070312 141.122070312 l 5,26,-1
 268.622070312 309.579101562 l 5,27,-1
 293.834960938 309.579101562 l 5,28,-1
 301.015625 298.084960938 l 5,29,-1
 360.059570312 296.76953125 l 6,30,31
 364.756835938 296.6640625 364.756835938 296.6640625 371.8515625 292.278320312 c 132,-1,32
 378.946289062 287.892578125 378.946289062 287.892578125 390.6953125 278.438476562 c 132,-1,33
 402.443359375 268.983398438 402.443359375 268.983398438 404.1171875 267.743164062 c 4,34,35
 457.616210938 228.133789062 457.616210938 228.133789062 479.708007812 220.990234375 c 4,36,37
 482.278320312 220.161132812 482.278320312 220.161132812 486.182617188 219.30078125 c 132,-1,38
 490.087890625 218.44140625 490.087890625 218.44140625 492.354492188 217.91015625 c 132,-1,39
 494.622070312 217.37890625 494.622070312 217.37890625 494.622070312 217.022460938 c 4,40,41
 494.622070312 215.944335938 494.622070312 215.944335938 469.680664062 173.161132812 c 132,-1,42
 444.73828125 130.377929688 444.73828125 130.377929688 442.849609375 128.184570312 c 6,43,-1
 303.397460938 266.73046875 l 5,44,-1
 422.931640625 104.78515625 l 5,45,-1
 392.12109375 49.2685546875 l 5,46,-1
 310.505859375 243.6484375 l 5,47,-1
 382.638671875 19.87890625 l 5,48,-1
 130.809570312 19.87890625 l 5,49,-1
 207.298828125 237.034179688 l 5,0,-1
134.55078125 446.12109375 m 5,50,-1
 253.681640625 446.12109375 l 5,51,-1
 209.014648438 379.583007812 l 5,52,-1
 247.79296875 398.763671875 l 5,53,-1
 247.5546875 340.189453125 l 5,54,-1
 230.282226562 339.788085938 l 5,55,-1
 217.631835938 350.450195312 l 6,56,57
 210.827148438 356.18359375 210.827148438 356.18359375 192.638671875 350.59765625 c 4,58,59
 179.317382812 346.501953125 179.317382812 346.501953125 167.333984375 335.543945312 c 6,60,-1
 120.529296875 292.729492188 l 5,61,-1
 74.4375 248.498046875 l 6,62,63
 65.587890625 240.004882812 65.587890625 240.004882812 51.0556640625 233.248046875 c 132,-1,64
 36.5234375 226.491210938 36.5234375 226.491210938 26.0859375 226.807617188 c 6,65,-1
 9.0029296875 227.325195312 l 5,66,-1
 134.55078125 446.12109375 l 5,50,-1
481.688476562 230.999023438 m 4,67,68
 454.056640625 245.962890625 454.056640625 245.962890625 454.037109375 245.9765625 c 4,69,70
 446.540039062 251.44140625 446.540039062 251.44140625 434.75 261.96484375 c 132,-1,71
 422.959960938 272.489257812 422.959960938 272.489257812 414.918945312 280.28125 c 6,72,-1
 406.876953125 288.073242188 l 6,73,74
 343.827148438 348.344726562 343.827148438 348.344726562 321.296875 354.116210938 c 4,75,76
 312.702148438 356.317382812 312.702148438 356.317382812 300.536132812 348.069335938 c 6,77,-1
 288.921875 340.185546875 l 5,78,-1
 268.625 340.185546875 l 5,79,-1
 268.625 398.759765625 l 5,80,-1
 306.477539062 379.975585938 l 5,81,-1
 261.161132812 446.12109375 l 5,82,-1
 379.702148438 446.12109375 l 5,83,-1
 502.471679688 230.704101562 l 6,84,85
 504.986328125 226.293945312 504.986328125 226.293945312 498.5390625 225.8515625 c 132,-1,86
 492.017578125 225.404296875 492.017578125 225.404296875 481.688476562 230.999023438 c 4,67,68
EndSplineSet
Validated: 33
EndChar

StartChar: infiltrator
Encoding: 81 81 39
GlifName: burning-fire
Width: 512
GlyphClass: 2
LayerCount: 2
Fore
SplineSet
255.998046875 457.30078125 m 132,-1,1
 348.030273438 457.30078125 348.030273438 457.30078125 413.1640625 392.16796875 c 132,-1,2
 478.296875 327.034179688 478.296875 327.034179688 478.296875 235.001953125 c 132,-1,3
 478.296875 142.969726562 478.296875 142.969726562 413.1640625 77.8359375 c 132,-1,4
 348.030273438 12.703125 348.030273438 12.703125 255.998046875 12.703125 c 132,-1,5
 163.965820312 12.703125 163.965820312 12.703125 98.83203125 77.8359375 c 132,-1,6
 33.69921875 142.969726562 33.69921875 142.969726562 33.69921875 235.001953125 c 132,-1,7
 33.69921875 327.034179688 33.69921875 327.034179688 98.83203125 392.16796875 c 132,-1,0
 163.965820312 457.30078125 163.965820312 457.30078125 255.998046875 457.30078125 c 132,-1,1
217.325195312 438.728515625 m 5,8,-1
 195.446289062 367.52734375 l 5,9,-1
 130.766601562 404.263671875 l 5,10,-1
 138.837890625 330.4765625 l 5,11,-1
 77.568359375 330.4765625 l 5,12,-1
 112.890625 278.681640625 l 5,13,-1
 56.486328125 234.767578125 l 5,14,-1
 457.248046875 234.767578125 l 5,15,-1
 400.850585938 278.828125 l 5,16,-1
 442.359375 330.4765625 l 5,17,-1
 372.291015625 330.4765625 l 5,18,-1
 388.6484375 397.715820312 l 5,19,-1
 320.134765625 367.52734375 l 5,20,-1
 308.514648438 434.946289062 l 5,21,-1
 257.518554688 381.102539062 l 5,22,-1
 217.325195312 438.728515625 l 5,8,-1
EndSplineSet
Validated: 1
EndChar

StartChar: mentalist
Encoding: 82 82 40
GlifName: arrow-sans-down
Width: 512
GlyphClass: 2
LayerCount: 2
Fore
SplineSet
136.748046875 85.318359375 m 6,0,1
 142.06640625 102.639648438 142.06640625 102.639648438 150.047851562 118.529296875 c 4,2,3
 157.213867188 132.78125 157.213867188 132.78125 157.399414062 135.9453125 c 132,-1,4
 157.584960938 139.110351562 157.584960938 139.110351562 151.790039062 148.240234375 c 4,5,6
 128.36328125 185.170898438 128.36328125 185.170898438 135.481445312 232.012695312 c 6,7,-1
 137.954101562 248.287109375 l 5,8,-1
 126.463867188 258.741210938 l 6,9,10
 101.458007812 281.48828125 101.458007812 281.48828125 71.4150390625 284.25390625 c 4,11,12
 64.478515625 284.890625 64.478515625 284.890625 49.7509765625 288.775390625 c 132,-1,13
 35.0234375 292.661132812 35.0234375 292.661132812 23.4921875 296.739257812 c 132,-1,14
 11.9619140625 300.817382812 11.9619140625 300.817382812 13.0859375 301.94140625 c 4,15,16
 13.673828125 302.529296875 13.673828125 302.529296875 26.5029296875 300.467773438 c 4,17,18
 55.4404296875 295.807617188 55.4404296875 295.807617188 89.5419921875 299.3984375 c 4,19,20
 106.124023438 301.141601562 106.124023438 301.141601562 114.3046875 299.212890625 c 132,-1,21
 122.485351562 297.284179688 122.485351562 297.284179688 136.037109375 288.4375 c 6,22,-1
 151.314453125 278.462890625 l 5,23,-1
 158.767578125 288.4453125 l 6,24,25
 166.216796875 298.422851562 166.216796875 298.422851562 166.216796875 303.70703125 c 4,26,27
 166.216796875 311.72265625 166.216796875 311.72265625 159.227539062 320.447265625 c 132,-1,28
 152.237304688 329.172851562 152.237304688 329.172851562 141.612304688 334.422851562 c 4,29,30
 129.640625 340.330078125 129.640625 340.330078125 123.169921875 349.6640625 c 132,-1,31
 116.700195312 358.997070312 116.700195312 358.997070312 110.336914062 379.5390625 c 4,32,33
 102.045898438 406.296875 102.045898438 406.296875 104.28515625 405.756835938 c 4,34,35
 105.797851562 405.392578125 105.797851562 405.392578125 113.03515625 394.815429688 c 4,36,37
 128.76171875 371.834960938 128.76171875 371.834960938 140.84375 363.133789062 c 132,-1,38
 152.926757812 354.431640625 152.926757812 354.431640625 172.525390625 351.970703125 c 4,39,40
 187.741210938 350.05859375 187.741210938 350.05859375 195.125976562 342.13671875 c 132,-1,41
 202.522460938 334.212890625 202.522460938 334.212890625 203.471679688 331.357421875 c 132,-1,42
 204.420898438 328.49609375 204.420898438 328.49609375 221.72265625 334.362304688 c 4,43,44
 261.71875 347.922851562 261.71875 347.922851562 302.211914062 334.10546875 c 6,45,-1
 320.27734375 327.9375 l 5,46,-1
 323.047851562 333.228515625 l 6,47,48
 331.447265625 349.301757812 331.447265625 349.301757812 352.962890625 352.004882812 c 4,49,50
 372.408203125 354.4453125 372.408203125 354.4453125 384.985351562 363.763671875 c 132,-1,51
 397.5625 373.081054688 397.5625 373.081054688 413.658203125 396.969726562 c 4,52,53
 421.962890625 409.30078125 421.962890625 409.30078125 421.65234375 404.604492188 c 4,54,55
 421.384765625 400.555664062 421.384765625 400.555664062 414.875 379.5390625 c 4,56,57
 408.55859375 359.142578125 408.55859375 359.142578125 402.3359375 349.985351562 c 132,-1,58
 396.11328125 340.828125 396.11328125 340.828125 384.627929688 335.03125 c 4,59,60
 366.202148438 325.733398438 366.202148438 325.733398438 361.0078125 312.54296875 c 132,-1,61
 355.813476562 299.353515625 355.813476562 299.353515625 365.926757812 287.538085938 c 6,62,-1
 372.703125 279.620117188 l 5,63,-1
 382.987304688 287.008789062 l 6,64,65
 397.404296875 297.36328125 397.404296875 297.36328125 410.408203125 299.7734375 c 132,-1,66
 423.411132812 302.182617188 423.411132812 302.182617188 444.177734375 298.34765625 c 4,67,68
 452.422851562 296.822265625 452.422851562 296.822265625 474.869140625 298.08203125 c 132,-1,69
 497.315429688 299.341796875 497.315429688 299.341796875 506.430664062 301.83984375 c 6,70,-1
 500.49609375 298.4453125 l 6,71,72
 474.786132812 286.463867188 474.786132812 286.463867188 450.020507812 284.109375 c 4,73,74
 423.197265625 281.559570312 423.197265625 281.559570312 397.943359375 261.123046875 c 6,75,-1
 385.262695312 250.861328125 l 5,76,-1
 386.997070312 241.375 l 6,77,78
 396.740234375 188.006835938 396.740234375 188.006835938 371.3125 147.159179688 c 6,79,-1
 365.643554688 138.05078125 l 5,80,-1
 375.473632812 117.2890625 l 6,81,82
 385.323242188 96.4833984375 385.323242188 96.4833984375 389.48046875 82.173828125 c 6,83,-1
 393.657226562 67.8193359375 l 5,84,-1
 389.5 72.9443359375 l 6,85,86
 369.92578125 97.0986328125 369.92578125 97.0986328125 352.924804688 107.564453125 c 6,87,-1
 343.2421875 113.517578125 l 5,88,-1
 330.727539062 105.561523438 l 6,89,90
 285.736328125 76.953125 285.736328125 76.953125 235.125 88.2138671875 c 4,91,92
 223.3671875 90.830078125 223.3671875 90.830078125 205.818359375 98.69140625 c 132,-1,93
 188.270507812 106.552734375 188.270507812 106.552734375 184.766601562 110.7734375 c 4,94,95
 181.450195312 114.770507812 181.450195312 114.770507812 168.747070312 105.569335938 c 132,-1,96
 156.044921875 96.3681640625 156.044921875 96.3681640625 141.125 79.158203125 c 6,97,-1
 131.411132812 67.955078125 l 5,98,-1
 136.748046875 85.318359375 l 6,0,1
278.12109375 124.3984375 m 4,99,100
 306.556640625 129.608398438 306.556640625 129.608398438 326.765625 151.100585938 c 132,-1,101
 346.974609375 172.59375 346.974609375 172.59375 351.291992188 202.2109375 c 4,102,103
 353.65625 218.41796875 353.65625 218.41796875 352.540039062 219.540039062 c 132,-1,104
 351.412109375 220.654296875 351.412109375 220.654296875 337.258789062 211.096679688 c 4,105,106
 297.783203125 184.436523438 297.783203125 184.436523438 262.453125 183.951171875 c 132,-1,107
 227.123046875 183.46484375 227.123046875 183.46484375 187.752929688 209.041015625 c 6,108,-1
 173.39453125 218.369140625 l 5,109,-1
 172.758789062 208.9765625 l 6,110,111
 171.653320312 192.624023438 171.653320312 192.624023438 181.782226562 172.759765625 c 132,-1,112
 191.91015625 152.895507812 191.91015625 152.895507812 207.001953125 141.814453125 c 4,113,114
 240.204101562 117.4453125 240.204101562 117.4453125 278.12109375 124.3984375 c 4,99,100
306.694335938 237.946289062 m 4,115,116
 329.223632812 249.108398438 329.223632812 249.108398438 334.885742188 253.8359375 c 6,117,-1
 340.516601562 258.541015625 l 5,118,-1
 332.52734375 268.916015625 l 6,119,120
 308.803710938 299.728515625 308.803710938 299.728515625 268.971679688 302.55859375 c 132,-1,121
 229.140625 305.387695312 229.140625 305.387695312 200.549804688 278.2890625 c 4,122,123
 189.794921875 268.091796875 189.794921875 268.091796875 186.255859375 262.048828125 c 6,124,-1
 182.70703125 255.998046875 l 5,125,-1
 194.4609375 248.797851562 l 6,126,127
 230.3984375 226.78125 230.3984375 226.78125 252.901367188 224.60546875 c 132,-1,128
 275.403320312 222.4296875 275.403320312 222.4296875 306.694335938 237.946289062 c 4,115,116
EndSplineSet
Validated: 33
EndChar

StartChar: mercenary
Encoding: 83 83 41
GlifName: arrow-sans-up
Width: 512
GlyphClass: 2
LayerCount: 2
Fore
SplineSet
256.998046875 497.000976562 m 5,0,-1
 340.541015625 332.028320312 l 5,1,-1
 421.221679688 165.752929688 l 5,2,-1
 456.953125 175.806640625 l 5,3,-1
 455.328125 187.999023438 l 5,4,-1
 469.758789062 196.2265625 l 5,5,-1
 503.997070312 178.99609375 l 5,6,-1
 486.592773438 145.853515625 l 5,7,-1
 470.703125 144.889648438 l 5,8,-1
 468.427734375 155.887695312 l 5,9,-1
 419.147460938 141.94140625 l 5,10,-1
 440.482421875 52.5751953125 l 5,11,12
 466.875 55.7275390625 466.875 55.7275390625 473.432617188 40.3935546875 c 4,13,14
 477.2734375 31.4111328125 477.2734375 31.4111328125 469.34765625 21.4267578125 c 132,-1,15
 461.421875 11.44140625 461.421875 11.44140625 446.375 6.302734375 c 132,-1,16
 431.326171875 1.166015625 431.326171875 1.166015625 417.96875 3.8837890625 c 132,-1,17
 404.612304688 6.6005859375 404.612304688 6.6005859375 400.770507812 15.5810546875 c 4,18,19
 394.321289062 30.64453125 394.321289062 30.64453125 415.72265625 43.98046875 c 5,20,-1
 372.659179688 127.356445312 l 5,21,-1
 325.736328125 112.8125 l 5,22,-1
 328.34375 99.7509765625 l 5,23,-1
 315.611328125 93.6845703125 l 5,24,-1
 280.110351562 105.419921875 l 5,25,-1
 294.887695312 141.083984375 l 5,26,-1
 315.209960938 140.853515625 l 5,27,-1
 320.021484375 130.232421875 l 5,28,-1
 356.08984375 141.446289062 l 5,29,-1
 306.903320312 313.338867188 l 5,30,-1
 256.998046875 497.000976562 l 5,0,-1
256.998046875 497.000976562 m 5,31,-1
 207.09375 313.342773438 l 5,32,-1
 157.91015625 141.450195312 l 5,33,-1
 193.978515625 130.236328125 l 5,34,-1
 198.790039062 140.860351562 l 5,35,-1
 219.112304688 141.087890625 l 5,36,-1
 233.889648438 105.423828125 l 5,37,-1
 198.385742188 93.6884765625 l 5,38,-1
 185.65625 99.7548828125 l 5,39,-1
 188.267578125 112.81640625 l 5,40,-1
 141.340820312 127.360351562 l 5,41,-1
 98.27734375 43.984375 l 5,42,43
 119.670898438 30.6533203125 119.670898438 30.6533203125 113.229492188 15.5849609375 c 4,44,45
 109.384765625 6.6044921875 109.384765625 6.6044921875 96.0283203125 3.8876953125 c 132,-1,46
 82.671875 1.1708984375 82.671875 1.1708984375 67.625 6.3095703125 c 132,-1,47
 52.576171875 11.4462890625 52.576171875 11.4462890625 44.6513671875 21.4306640625 c 132,-1,48
 36.7265625 31.4150390625 36.7265625 31.4150390625 40.5673828125 40.4013671875 c 4,49,50
 47.12109375 55.7314453125 47.12109375 55.7314453125 73.517578125 52.5791015625 c 5,51,-1
 94.849609375 141.9453125 l 5,52,-1
 45.572265625 155.891601562 l 5,53,-1
 43.296875 144.893554688 l 5,54,-1
 27.4072265625 145.857421875 l 5,55,-1
 9.9990234375 179 l 5,56,-1
 44.2373046875 196.23046875 l 5,57,-1
 58.671875 188.002929688 l 5,58,-1
 57.046875 175.809570312 l 5,59,-1
 92.7744140625 165.759765625 l 5,60,-1
 173.458984375 332.025390625 l 5,61,-1
 256.998046875 497.000976562 l 5,31,-1
EndSplineSet
Validated: 37
EndChar

StartChar: necromancer
Encoding: 85 85 42
GlifName: crossed-swords-small
Width: 509
GlyphClass: 2
Flags: W
LayerCount: 2
Fore
SplineSet
213.83984375 17.9501953125 m 5,0,-1
 178.577148438 22.8173828125 l 5,1,-1
 169.319335938 29.41015625 l 5,2,-1
 160.061523438 36.00390625 l 5,3,-1
 158.512695312 45.3916015625 l 5,4,-1
 156.967773438 54.7822265625 l 5,5,-1
 151.087890625 108.249023438 l 5,6,-1
 145.209960938 161.720703125 l 5,7,-1
 145.209960938 165.158203125 l 5,8,-1
 116.420898438 163.098632812 l 5,9,-1
 87.6357421875 161.038085938 l 5,10,-1
 75.3046875 189.670898438 l 5,11,-1
 62.974609375 218.301757812 l 5,12,-1
 68.974609375 226.532226562 l 5,13,-1
 74.970703125 234.763671875 l 5,14,-1
 81.1845703125 243.291992188 l 5,15,-1
 87.400390625 251.811523438 l 5,16,-1
 78.255859375 267.798828125 l 5,17,-1
 69.107421875 283.783203125 l 5,18,-1
 67.2509765625 314.1484375 l 5,19,-1
 65.392578125 344.509765625 l 5,20,-1
 83.5400390625 378.759765625 l 5,21,-1
 101.685546875 413.005859375 l 5,22,-1
 140.274414062 433.260742188 l 5,23,-1
 178.86328125 453.509765625 l 5,24,-1
 248.46875 455.091796875 l 5,25,-1
 318.073242188 456.673828125 l 5,26,-1
 363.911132812 441.358398438 l 5,27,-1
 409.745117188 426.047851562 l 5,28,-1
 426.458984375 385.278320312 l 5,29,-1
 443.17578125 344.509765625 l 5,30,-1
 441.647460938 315.243164062 l 5,31,-1
 440.120117188 285.977539062 l 5,32,-1
 431.591796875 270.5078125 l 5,33,-1
 423.060546875 255.0390625 l 5,34,-1
 434.784179688 238.666015625 l 5,35,-1
 446.51171875 222.290039062 l 5,36,-1
 444.567382812 219.015625 l 5,37,-1
 442.624023438 215.741210938 l 5,38,-1
 430.75 199.647460938 l 5,39,-1
 418.873046875 183.55078125 l 5,40,-1
 416.450195312 181.788085938 l 5,41,-1
 414.033203125 180.020507812 l 5,42,-1
 394.009765625 176.244140625 l 5,43,-1
 373.987304688 172.46484375 l 5,44,-1
 367.997070312 139.961914062 l 5,45,-1
 362.00390625 107.4609375 l 5,46,-1
 355.46875 71.3828125 l 5,47,-1
 348.936523438 35.3017578125 l 5,48,-1
 338.526367188 30.08984375 l 5,49,-1
 328.119140625 24.8779296875 l 5,50,-1
 293 19.8359375 l 5,51,-1
 257.879882812 14.7978515625 l 5,52,-1
 253.489257812 13.94140625 l 5,53,-1
 249.099609375 13.0849609375 l 5,54,-1
 213.83984375 17.9501953125 l 5,0,-1
240.122070312 160.137695312 m 5,55,-1
 247.93359375 170.381835938 l 5,56,-1
 252.163085938 170.381835938 l 5,57,-1
 257.76953125 159.959960938 l 5,58,-1
 263.384765625 149.5390625 l 5,59,-1
 270.012695312 151.204101562 l 5,60,-1
 276.643554688 152.869140625 l 5,61,-1
 284.157226562 155.723632812 l 5,62,-1
 291.668945312 158.58203125 l 5,63,-1
 282.500976562 176.7421875 l 5,64,-1
 273.33203125 194.90625 l 5,65,-1
 269.149414062 208.983398438 l 5,66,-1
 264.970703125 223.060546875 l 5,67,-1
 245.82421875 223.060546875 l 5,68,-1
 241.390625 219.401367188 l 5,69,-1
 236.950195312 215.744140625 l 5,70,-1
 227.350585938 203.2265625 l 5,71,-1
 217.752929688 190.703125 l 5,72,-1
 213.676757812 177.15234375 l 5,73,-1
 209.596679688 163.596679688 l 5,74,-1
 209.596679688 158.391601562 l 5,75,-1
 219.106445312 154.2578125 l 5,76,-1
 228.620117188 150.125976562 l 5,77,-1
 230.465820312 150.010742188 l 5,78,-1
 232.314453125 149.89453125 l 5,79,-1
 240.122070312 160.137695312 l 5,55,-1
194.0390625 247.893554688 m 5,80,-1
 212.137695312 251.528320312 l 5,81,-1
 224.03515625 260.954101562 l 5,82,-1
 235.932617188 270.375 l 5,83,-1
 235.922851562 272.325195312 l 5,84,-1
 235.91015625 274.2734375 l 5,85,-1
 222.01953125 279.98828125 l 5,86,-1
 208.126953125 285.701171875 l 5,87,-1
 177.49609375 313.067382812 l 5,88,-1
 146.864257812 340.4375 l 5,89,-1
 140.751953125 338.901367188 l 5,90,-1
 134.640625 337.3671875 l 5,91,-1
 121.448242188 331.533203125 l 5,92,-1
 108.2578125 325.701171875 l 5,93,-1
 101.303710938 303.530273438 l 5,94,-1
 94.3515625 281.358398438 l 5,95,-1
 101.958984375 265.848632812 l 5,96,-1
 109.5625 250.344726562 l 5,97,-1
 133.967773438 245.915039062 l 5,98,-1
 158.375976562 241.486328125 l 5,99,-1
 167.15625 242.872070312 l 5,100,-1
 175.936523438 244.256835938 l 5,101,-1
 194.0390625 247.893554688 l 5,80,-1
378.888671875 246.766601562 m 5,102,-1
 400.391601562 250.4375 l 5,103,-1
 407.796875 265.541015625 l 5,104,-1
 415.206054688 280.642578125 l 5,105,-1
 408.547851562 303.06640625 l 5,106,-1
 401.892578125 325.486328125 l 5,107,-1
 367.086914062 325.486328125 l 5,108,-1
 335.896484375 302.962890625 l 5,109,-1
 304.706054688 280.436523438 l 5,110,-1
 290.370117188 276.67578125 l 5,111,-1
 276.032226562 272.916992188 l 5,112,-1
 274.869140625 271.752929688 l 5,113,-1
 273.70703125 270.58984375 l 5,114,-1
 286.10546875 260.725585938 l 5,115,-1
 298.500976562 250.860351562 l 5,116,-1
 323.551757812 246.084960938 l 5,117,-1
 348.6015625 241.309570312 l 5,118,-1
 352.9921875 242.20703125 l 5,119,-1
 357.381835938 243.100585938 l 5,120,-1
 378.888671875 246.766601562 l 5,102,-1
118.338867188 152.461914062 m 5,121,-1
 133.684570312 155.73828125 l 5,122,-1
 142.748046875 64.55078125 l 5,123,-1
 118.338867188 152.461914062 l 5,121,-1
387.887695312 158.01953125 m 5,124,-1
 417.418945312 166.993164062 l 5,125,-1
 400.42578125 128.654296875 l 5,126,-1
 376.418945312 86.9638671875 l 5,127,-1
 387.887695312 158.01953125 l 5,124,-1
59.43359375 237.612304688 m 6,128,-1
 66.6689453125 260.65625 l 5,129,-1
 75.5166015625 249.604492188 l 5,130,-1
 59.24609375 225.469726562 l 5,131,132
 57.6328125 229.642578125 57.6328125 229.642578125 59.43359375 237.612304688 c 6,128,-1
437.63671875 265.060546875 m 5,133,-1
 453.491210938 287.095703125 l 5,134,-1
 443.626953125 252.24609375 l 5,135,-1
 437.954101562 246.6171875 l 5,136,-1
 437.63671875 265.060546875 l 5,133,-1
103.786132812 436.873046875 m 5,137,-1
 110.189453125 446.086914062 l 5,138,-1
 154.416992188 458.922851562 l 5,139,-1
 103.237304688 429.403320312 l 5,140,-1
 103.786132812 436.873046875 l 5,137,-1
EndSplineSet
Validated: 1
EndChar

StartChar: nightshade
Encoding: 86 86 43
GlifName: fontawesome-webfont-35
Width: 512
GlyphClass: 2
LayerCount: 2
Fore
SplineSet
255.998046875 478.651367188 m 132,-1,1
 353.142578125 478.651367188 353.142578125 478.651367188 421.895507812 409.899414062 c 132,-1,2
 490.647460938 341.146484375 490.647460938 341.146484375 490.647460938 244.001953125 c 132,-1,3
 490.647460938 146.857421875 490.647460938 146.857421875 421.895507812 78.1044921875 c 132,-1,4
 353.142578125 9.3525390625 353.142578125 9.3525390625 255.998046875 9.3525390625 c 132,-1,5
 158.853515625 9.3525390625 158.853515625 9.3525390625 90.1005859375 78.1044921875 c 132,-1,6
 21.3486328125 146.857421875 21.3486328125 146.857421875 21.3486328125 244.001953125 c 132,-1,7
 21.3486328125 341.146484375 21.3486328125 341.146484375 90.1005859375 409.899414062 c 132,-1,0
 158.853515625 478.651367188 158.853515625 478.651367188 255.998046875 478.651367188 c 132,-1,1
259.384765625 454.903320312 m 5,8,-1
 245.241210938 416.581054688 l 5,9,-1
 229.926757812 380.40625 l 5,10,-1
 229.926757812 372.55078125 l 5,11,-1
 238.06640625 351.826171875 l 5,12,-1
 246.19921875 331.09765625 l 5,13,-1
 251.333984375 323.890625 l 5,14,-1
 256.4609375 316.689453125 l 5,15,-1
 260.15234375 319.748046875 l 5,16,-1
 263.846679688 322.811523438 l 5,17,-1
 266.94921875 330.228515625 l 5,18,-1
 270.047851562 337.650390625 l 5,19,-1
 267.16796875 352.748046875 l 5,20,-1
 264.295898438 367.84375 l 5,21,-1
 265 412.869140625 l 5,22,-1
 265.578125 454.712890625 l 6,23,24
 262.47265625 454.854492188 262.47265625 454.854492188 259.384765625 454.903320312 c 5,8,-1
250.091796875 454.716796875 m 5,25,26
 230.818359375 454.178710938 230.818359375 454.178710938 211.959960938 450.15625 c 5,27,-1
 212.685546875 447.096679688 l 5,28,-1
 214.624023438 427.654296875 l 5,29,-1
 216.26171875 413.989257812 l 5,30,-1
 220.131835938 411.7265625 l 5,31,-1
 224.001953125 409.46484375 l 5,32,-1
 225.510742188 409.392578125 l 5,33,-1
 227.025390625 409.321289062 l 5,34,-1
 239.140625 430.634765625 l 5,35,-1
 250.091796875 454.716796875 l 5,25,26
274.791015625 454.095703125 m 5,36,-1
 275.75 442.282226562 l 5,37,-1
 277.287109375 429.467773438 l 5,38,-1
 277.315429688 415.841796875 l 5,39,-1
 277.333007812 402.211914062 l 5,40,-1
 280.043945312 402.211914062 l 5,41,-1
 290.399414062 408.279296875 l 5,42,-1
 300.75390625 414.34765625 l 5,43,-1
 303.42578125 427.833984375 l 5,44,-1
 306.104492188 446.5546875 l 5,45,-1
 306.721679688 448.752929688 l 5,46,47
 290.962890625 452.65234375 290.962890625 452.65234375 274.791015625 454.095703125 c 5,36,-1
198.905273438 446.90625 m 5,48,49
 196.447265625 446.245117188 196.447265625 446.245117188 194.115234375 445.556640625 c 6,50,-1
 194.373046875 407.196289062 l 5,51,-1
 194.373046875 367.150390625 l 5,52,-1
 203.166992188 348.533203125 l 5,53,-1
 211.94921875 329.919921875 l 5,54,-1
 223.90625 314.598632812 l 5,55,-1
 235.8515625 299.270507812 l 5,56,-1
 236.569335938 307.755859375 l 5,57,-1
 237.287109375 316.240234375 l 5,58,-1
 225.510742188 346.3828125 l 5,59,-1
 213.737304688 376.521484375 l 5,60,-1
 217.090820312 384.549804688 l 5,61,-1
 220.444335938 392.578125 l 5,62,-1
 220.444335938 394.6328125 l 5,63,-1
 212.538085938 399.295898438 l 5,64,-1
 204.631835938 403.963867188 l 5,65,-1
 201.530273438 425.604492188 l 5,66,-1
 198.905273438 446.90625 l 5,48,49
315.436523438 446.3828125 m 5,67,-1
 313.137695312 425.899414062 l 5,68,-1
 310.118164062 404.552734375 l 5,69,-1
 293.881835938 394.0546875 l 5,70,-1
 277.65234375 383.555664062 l 5,71,-1
 276.844726562 375.69921875 l 5,72,-1
 276.029296875 367.84375 l 5,73,-1
 278.85546875 357.653320312 l 5,74,-1
 281.677734375 347.466796875 l 5,75,-1
 280.337890625 325.065429688 l 5,76,-1
 279.005859375 302.6640625 l 5,77,-1
 281.372070312 302.6640625 l 5,78,-1
 292.05859375 316.290039062 l 5,79,-1
 302.74609375 329.919921875 l 5,80,-1
 311.372070312 348.623046875 l 5,81,-1
 319.99609375 367.323242188 l 5,82,-1
 319.99609375 444.990234375 l 6,83,84
 317.686523438 445.72265625 317.686523438 445.72265625 315.436523438 446.3828125 c 5,67,-1
179.971679688 440.620117188 m 5,85,86
 164.317382812 434.571289062 164.317382812 434.571289062 149.818359375 426.125 c 5,87,-1
 162.514648438 404.079101562 l 5,88,-1
 173.318359375 384.545898438 l 5,89,-1
 176.14453125 382.791015625 l 5,90,-1
 178.966796875 381.041992188 l 5,91,-1
 179.634765625 409.72265625 l 5,92,-1
 179.971679688 440.620117188 l 5,85,86
334.21484375 439.912109375 m 5,93,-1
 334.21484375 410.577148438 l 5,94,-1
 334.21484375 381.02734375 l 5,95,-1
 337.671875 382.35546875 l 5,96,-1
 341.133789062 383.680664062 l 5,97,-1
 351.89453125 403.590820312 l 5,98,-1
 363.194335938 425.662109375 l 5,99,100
 349.256835938 433.897460938 349.256835938 433.897460938 334.21484375 439.912109375 c 5,93,-1
138.048828125 418.692382812 m 5,101,102
 129.676757812 413.068359375 129.676757812 413.068359375 121.870117188 406.6640625 c 5,103,-1
 128.217773438 400.104492188 l 5,104,-1
 136.067382812 393.911132812 l 5,105,-1
 143.297851562 392.704101562 l 5,106,-1
 150.525390625 391.501953125 l 5,107,-1
 151.280273438 393.196289062 l 5,108,-1
 152.034179688 394.883789062 l 5,109,-1
 145.524414062 406.248046875 l 5,110,-1
 138.048828125 418.692382812 l 5,101,102
375.095703125 418.096679688 m 5,111,-1
 369.3046875 406.499023438 l 5,112,-1
 362.659179688 394.337890625 l 5,113,-1
 362.659179688 391.102539062 l 5,114,-1
 370.471679688 392.509765625 l 5,115,-1
 378.288085938 393.911132812 l 5,116,-1
 385.979492188 399.978515625 l 5,117,-1
 392.108398438 405.149414062 l 5,118,119
 383.919921875 412.0625 383.919921875 412.0625 375.095703125 418.096679688 c 5,111,-1
110.426757812 396.466796875 m 5,120,121
 107.001953125 393.203125 107.001953125 393.203125 103.758789062 389.82421875 c 5,122,-1
 109.823242188 380.180664062 l 5,123,-1
 115.701171875 370.1484375 l 5,124,-1
 117.424804688 358.328125 l 5,125,-1
 119.14453125 346.5078125 l 5,126,-1
 127.403320312 335.162109375 l 5,127,-1
 135.654296875 323.815429688 l 5,128,-1
 144.641601562 319.231445312 l 5,129,-1
 153.631835938 314.646484375 l 5,130,-1
 155.154296875 318.6171875 l 5,131,-1
 156.676757812 322.588867188 l 5,132,-1
 157.509765625 340.99609375 l 5,133,-1
 158.640625 362.360351562 l 5,134,-1
 167.591796875 362.0625 l 5,135,-1
 168.00390625 332.946289062 l 5,136,-1
 168.416992188 306.951171875 l 5,137,-1
 180.8046875 295.666992188 l 5,138,-1
 193.192382812 284.384765625 l 5,139,-1
 214.52734375 265.799804688 l 5,140,-1
 235.85546875 247.22265625 l 5,141,-1
 236.569335938 262.1484375 l 5,142,-1
 237.28125 277.075195312 l 5,143,-1
 233.965820312 279.795898438 l 5,144,-1
 230.65625 282.513671875 l 5,145,-1
 215.224609375 302.661132812 l 5,146,-1
 199.794921875 322.807617188 l 5,147,-1
 190.201171875 343.391601562 l 5,148,-1
 180.611328125 363.97265625 l 5,149,-1
 169.125 369.771484375 l 5,150,-1
 157.638671875 375.56640625 l 5,151,-1
 144.60546875 377.30078125 l 5,152,-1
 131.563476562 379.034179688 l 5,153,-1
 121.689453125 387.067382812 l 5,154,-1
 110.426757812 396.466796875 l 5,120,121
402.76171875 395.497070312 m 5,155,-1
 393.415039062 387.296875 l 5,156,-1
 383.74609375 379.020507812 l 5,157,-1
 370.288085938 377.340820312 l 5,158,-1
 356.82421875 375.659179688 l 5,159,-1
 345.3203125 369.825195312 l 5,160,-1
 333.815429688 363.998046875 l 5,161,-1
 323.615234375 342.217773438 l 5,162,-1
 313.41796875 320.4375 l 5,163,-1
 296.564453125 299.124023438 l 5,164,-1
 279.709960938 277.802734375 l 5,165,-1
 279.709960938 250.515625 l 5,166,-1
 282.575195312 250.515625 l 5,167,-1
 313.73046875 277.954101562 l 5,168,-1
 344.888671875 305.389648438 l 5,169,-1
 346.526367188 314.099609375 l 5,170,-1
 346.838867188 323.844726562 l 5,171,-1
 346.8203125 341.374023438 l 5,172,-1
 348.221679688 361.122070312 l 6,173,174
 349.208007812 360.794921875 349.208007812 360.794921875 351.775390625 360.326171875 c 132,-1,175
 354.34375 359.857421875 354.34375 359.857421875 355.330078125 359.53125 c 6,176,-1
 355.772460938 345.133789062 l 5,177,-1
 357.171875 332.286132812 l 5,178,-1
 358.837890625 323.403320312 l 5,179,-1
 360.504882812 314.5234375 l 5,180,-1
 369.610351562 319.166015625 l 5,181,-1
 378.719726562 323.815429688 l 5,182,-1
 386.973632812 335.162109375 l 5,183,-1
 395.228515625 346.5078125 l 5,184,-1
 396.858398438 357.71484375 l 5,185,-1
 398.48828125 368.916992188 l 5,186,-1
 404.305664062 379.322265625 l 5,187,-1
 409.9921875 388.155273438 l 5,188,189
 406.462890625 391.918945312 406.462890625 391.918945312 402.76171875 395.497070312 c 5,155,-1
93.8173828125 378.729492188 m 5,190,191
 87.6064453125 371.217773438 87.6064453125 371.217773438 82.1083984375 363.147460938 c 5,192,-1
 92.0185546875 354.888671875 l 5,193,-1
 100.75390625 350.271484375 l 5,194,-1
 102.53125 350.170898438 l 5,195,-1
 104.311523438 350.063476562 l 5,196,-1
 104.311523438 361.642578125 l 5,197,-1
 99.1201171875 370.443359375 l 5,198,-1
 93.8173828125 378.729492188 l 5,190,191
419.715820312 377.006835938 m 5,199,-1
 414.97265625 369.358398438 l 5,200,-1
 410.065429688 359.736328125 l 5,201,-1
 410.065429688 350.063476562 l 5,202,-1
 412.625 350.063476562 l 5,203,-1
 422.010742188 354.849609375 l 5,204,-1
 432.193359375 359.961914062 l 5,205,206
 426.383789062 368.79296875 426.383789062 368.79296875 419.715820312 377.006835938 c 5,199,-1
439.650390625 347.779296875 m 5,207,-1
 428.674804688 341.793945312 l 5,208,-1
 418.362304688 335.8984375 l 5,209,-1
 412.208007812 335.870117188 l 5,210,-1
 406.060546875 335.840820312 l 5,211,-1
 402.49609375 331.693359375 l 5,212,-1
 398.9375 327.545898438 l 5,213,-1
 397.25390625 324.583984375 l 5,214,-1
 395.56640625 321.622070312 l 5,215,-1
 418.6640625 322.541015625 l 5,216,-1
 436.581054688 322.573242188 l 5,217,-1
 447.30859375 323.09375 l 5,218,-1
 451.168945312 324 l 5,219,220
 446.15234375 336.259765625 446.15234375 336.259765625 439.650390625 347.779296875 c 5,207,-1
72.2802734375 347.3203125 m 5,221,222
 66.154296875 336.569335938 66.154296875 336.569335938 61.318359375 325.163085938 c 5,223,-1
 65.796875 323.255859375 l 5,224,-1
 69.943359375 322.171875 l 5,225,-1
 94.376953125 321.895507812 l 5,226,-1
 118.810546875 321.622070312 l 5,227,-1
 117.125976562 324.583984375 l 5,228,-1
 115.438476562 327.545898438 l 5,229,-1
 111.880859375 331.693359375 l 5,230,-1
 108.315429688 335.840820312 l 5,231,-1
 102.168945312 335.870117188 l 5,232,-1
 96.013671875 335.8984375 l 5,233,-1
 85.8056640625 340.12109375 l 5,234,-1
 72.2802734375 347.3203125 l 5,221,222
58.697265625 307.400390625 m 5,235,-1
 61.537109375 303.974609375 l 5,236,-1
 64.3779296875 300.545898438 l 5,237,-1
 76.0830078125 293.041015625 l 5,238,-1
 87.7890625 285.526367188 l 5,239,-1
 103.751953125 281.271484375 l 5,240,-1
 119.711914062 277.0234375 l 5,241,-1
 122.307617188 277.770507812 l 5,242,-1
 124.893554688 278.521484375 l 5,243,-1
 143.635742188 281.393554688 l 5,244,-1
 162.37890625 284.266601562 l 5,245,-1
 165.487304688 285.153320312 l 5,246,-1
 168.604492188 286.037109375 l 5,247,-1
 167.161132812 288.36328125 l 5,248,-1
 165.724609375 290.693359375 l 5,249,-1
 150.788085938 299.047851562 l 5,250,-1
 135.8515625 307.400390625 l 5,251,-1
 58.697265625 307.400390625 l 5,235,-1
378.043945312 307.400390625 m 5,252,-1
 362.755859375 298.509765625 l 5,253,-1
 347.470703125 289.623046875 l 5,254,-1
 347.4453125 287.25 l 5,255,-1
 347.416992188 284.879882812 l 5,256,-1
 360.368164062 283.228515625 l 5,257,-1
 373.329101562 281.573242188 l 5,258,-1
 382.809570312 279.346679688 l 5,259,-1
 392.291015625 277.11328125 l 5,260,-1
 395.846679688 277.9296875 l 5,261,-1
 399.400390625 278.744140625 l 5,262,-1
 411.25390625 281.530273438 l 5,263,-1
 423.1015625 284.32421875 l 5,264,-1
 435.108398438 291.045898438 l 5,265,-1
 447.119140625 297.770507812 l 5,266,-1
 452.067382812 301.55078125 l 5,267,-1
 456.4296875 306.362304688 l 5,268,-1
 416.940429688 307.400390625 l 5,269,-1
 378.043945312 307.400390625 l 5,252,-1
51.0751953125 293.931640625 m 5,270,271
 45.3447265625 270.333007812 45.3447265625 270.333007812 45.1298828125 246.044921875 c 5,272,-1
 49.552734375 248.01953125 l 5,273,-1
 54.0478515625 250.42578125 l 5,274,-1
 63.771484375 261.470703125 l 5,275,-1
 73.490234375 272.517578125 l 5,276,-1
 73.34765625 275.146484375 l 5,277,-1
 73.2041015625 277.774414062 l 5,278,-1
 62.439453125 285.629882812 l 5,279,-1
 51.0751953125 293.931640625 l 5,270,271
461.419921875 291.881835938 m 5,280,-1
 451.754882812 285.498046875 l 5,281,-1
 441.166015625 277.774414062 l 5,282,-1
 441.022460938 275.03125 l 5,283,-1
 440.875 272.28125 l 5,284,-1
 453.83984375 258.568359375 l 5,285,-1
 466.91015625 246.849609375 l 5,286,287
 466.6015625 269.665039062 466.6015625 269.665039062 461.419921875 291.881835938 c 5,280,-1
330.186523438 272.15234375 m 5,288,-1
 304.944335938 248.048828125 l 5,289,-1
 279.702148438 223.9453125 l 5,290,-1
 280.443359375 80.646484375 l 5,291,-1
 296.908203125 63.4765625 l 5,292,293
 361.416015625 68.896484375 361.416015625 68.896484375 406.6171875 96.419921875 c 5,294,295
 429.213867188 119.48828125 429.213867188 119.48828125 446.729492188 158.6171875 c 132,-1,296
 464.244140625 197.74609375 464.244140625 197.74609375 466.397460938 229.965820312 c 5,297,-1
 456.436523438 236.295898438 l 5,298,-1
 445.8046875 244.590820312 l 5,299,-1
 436.092773438 257.122070312 l 5,300,-1
 426.376953125 269.641601562 l 5,301,-1
 417.625976562 268.061523438 l 5,302,-1
 408.876953125 266.479492188 l 5,303,-1
 407.859375 265.581054688 l 5,304,-1
 406.84375 264.680664062 l 5,305,-1
 411.989257812 257.724609375 l 5,306,-1
 417.126953125 250.765625 l 5,307,-1
 414.797851562 249.330078125 l 5,308,-1
 412.474609375 247.893554688 l 5,309,-1
 401.9609375 255.125 l 5,310,-1
 391.451171875 262.357421875 l 5,311,-1
 376.46484375 265.703125 l 5,312,-1
 361.473632812 269.049804688 l 5,313,-1
 345.830078125 270.600585938 l 5,314,-1
 330.186523438 272.15234375 l 5,288,-1
184.830078125 271.849609375 m 5,315,-1
 180.711914062 271.774414062 l 5,316,-1
 176.596679688 271.703125 l 5,317,-1
 159.229492188 269.448242188 l 5,318,-1
 141.865234375 267.193359375 l 5,319,-1
 132.907226562 264.780273438 l 5,320,-1
 123.953125 262.3671875 l 5,321,-1
 113.274414062 254.216796875 l 5,322,-1
 102.598632812 246.06640625 l 5,323,-1
 100.056640625 248.608398438 l 5,324,-1
 97.5146484375 251.143554688 l 5,325,-1
 102.520507812 257.911132812 l 5,326,-1
 107.525390625 264.680664062 l 5,327,-1
 106.509765625 265.684570312 l 5,328,-1
 105.493164062 266.690429688 l 5,329,-1
 96.7685546875 268.317382812 l 5,330,-1
 88.04296875 269.947265625 l 5,331,-1
 79.6875 258.450195312 l 5,332,-1
 71.33203125 246.9609375 l 5,333,-1
 58.0908203125 236.295898438 l 5,334,-1
 45.7001953125 227.439453125 l 5,335,336
 48.0732421875 197.762695312 48.0732421875 197.762695312 63.9111328125 161.15625 c 132,-1,337
 79.75 124.548828125 79.75 124.548828125 99.755859375 102.501953125 c 5,338,339
 125.291015625 85.7880859375 125.291015625 85.7880859375 160.673828125 73.853515625 c 132,-1,340
 196.055664062 61.91796875 196.055664062 61.91796875 218.69921875 63.271484375 c 5,341,-1
 234.666992188 80.201171875 l 5,342,-1
 234.666992188 223.84375 l 5,343,-1
 209.749023438 247.84765625 l 5,344,-1
 184.830078125 271.849609375 l 5,315,-1
EndSplineSet
Validated: 2081
EndChar

StartChar: paladin
Encoding: 87 87 44
GlifName: fontawesome-webfont-36
Width: 512
GlyphClass: 2
LayerCount: 2
Fore
SplineSet
323.296875 459.673828125 m 5,0,-1
 370.618164062 454.856445312 l 5,1,-1
 361.6875 438.697265625 l 5,2,-1
 342.055664062 432.263671875 l 6,3,4
 322.4296875 425.834960938 322.4296875 425.834960938 296.866210938 422.673828125 c 4,5,6
 252.823242188 417.225585938 252.823242188 417.225585938 229.782226562 402.671875 c 6,7,-1
 217.004882812 394.603515625 l 5,8,-1
 210.991210938 377.365234375 l 5,9,-1
 204.983398438 360.131835938 l 5,10,-1
 187.165039062 341.794921875 l 5,11,-1
 169.346679688 323.454101562 l 5,12,-1
 173.108398438 319.692382812 l 5,13,-1
 176.869140625 315.932617188 l 5,14,-1
 189.100585938 319.600585938 l 6,15,16
 202.091796875 323.4921875 202.091796875 323.4921875 217.346679688 334.092773438 c 132,-1,17
 232.600585938 344.692382812 232.600585938 344.692382812 239.215820312 354.428710938 c 6,18,-1
 246.71875 365.479492188 l 5,19,20
 250.092773438 349.069335938 250.092773438 349.069335938 263.022460938 341.443359375 c 132,-1,21
 275.951171875 333.819335938 275.951171875 333.819335938 297.555664062 341.63671875 c 4,22,23
 308.936523438 348.720703125 308.936523438 348.720703125 314.889648438 357.485351562 c 132,-1,24
 320.84375 366.249023438 320.84375 366.249023438 330.368164062 386.517578125 c 5,25,-1
 343.966796875 389.807617188 l 6,26,27
 357.578125 393.1015625 357.578125 393.1015625 371.939453125 395.3125 c 6,28,-1
 386.313476562 397.528320312 l 5,29,-1
 394.94140625 405.635742188 l 6,30,31
 403.571289062 413.739257812 403.571289062 413.739257812 405.606445312 423.000976562 c 6,32,-1
 407.640625 432.258789062 l 5,33,-1
 414.546875 430.109375 l 6,34,35
 434.975585938 423.750976562 434.975585938 423.750976562 437.133789062 417.017578125 c 6,36,-1
 438.984375 411.245117188 l 5,37,-1
 453.043945312 405.475585938 l 5,38,-1
 467.10546875 399.706054688 l 5,39,-1
 478.873046875 381.982421875 l 5,40,-1
 490.642578125 364.258789062 l 5,41,-1
 488.46484375 348.41796875 l 5,42,-1
 486.286132812 332.575195312 l 5,43,-1
 478.8984375 323.991210938 l 6,44,45
 476.901367188 321.670898438 476.901367188 321.670898438 475.053710938 319.907226562 c 132,-1,46
 473.206054688 318.143554688 473.206054688 318.143554688 471.967773438 317.359375 c 132,-1,47
 470.727539062 316.577148438 470.727539062 316.577148438 470.438476562 317.0078125 c 4,48,49
 469.375976562 318.596679688 469.375976562 318.596679688 464.49609375 328.12109375 c 6,50,-1
 459.620117188 337.633789062 l 5,51,-1
 444.374023438 343.293945312 l 5,52,-1
 429.12890625 348.956054688 l 5,53,-1
 420.247070312 344.36328125 l 6,54,55
 411.374023438 339.774414062 411.374023438 339.774414062 403.635742188 328.162109375 c 6,56,-1
 395.895507812 316.549804688 l 5,57,-1
 378.330078125 307.657226562 l 6,58,59
 360.756835938 298.764648438 360.756835938 298.764648438 338.23046875 292.013671875 c 132,-1,60
 315.70703125 285.264648438 315.70703125 285.264648438 301.4921875 278.911132812 c 6,61,-1
 287.284179688 272.561523438 l 5,62,-1
 278.107421875 260.921875 l 5,63,-1
 268.930664062 249.282226562 l 5,64,-1
 275.284179688 242.930664062 l 5,65,-1
 281.635742188 236.577148438 l 5,66,-1
 294.700195312 243.243164062 l 6,67,68
 319.951171875 256.127929688 319.951171875 256.127929688 384.946289062 256.248046875 c 6,69,-1
 418.71875 256.310546875 l 5,70,-1
 434.4609375 261.544921875 l 6,71,72
 450.205078125 266.779296875 450.205078125 266.779296875 455.247070312 271.129882812 c 4,73,74
 460.783203125 275.907226562 460.783203125 275.907226562 462.009765625 274.822265625 c 132,-1,75
 463.235351562 273.737304688 463.235351562 273.737304688 462.067382812 265.09765625 c 6,76,-1
 460.662109375 254.716796875 l 5,77,-1
 449.54296875 243.09375 l 5,78,-1
 438.422851562 231.470703125 l 5,79,-1
 418.754882812 227.466796875 l 6,80,81
 399.095703125 223.465820312 399.095703125 223.465820312 367.14453125 222.615234375 c 132,-1,82
 335.211914062 221.765625 335.211914062 221.765625 303.255859375 217.641601562 c 4,83,84
 241.77734375 209.705078125 241.77734375 209.705078125 235.63671875 215.84765625 c 4,85,86
 232.978515625 218.5078125 232.978515625 218.5078125 232.59375 237.52734375 c 132,-1,87
 232.209960938 256.549804688 232.209960938 256.549804688 230.364257812 258.395507812 c 132,-1,88
 228.555664062 260.204101562 228.555664062 260.204101562 223.912109375 255.1640625 c 132,-1,89
 219.270507812 250.125 219.270507812 250.125 214.178710938 241.118164062 c 132,-1,90
 209.086914062 232.110351562 209.086914062 232.110351562 206.086914062 223.364257812 c 6,91,-1
 199.716796875 204.791015625 l 5,92,-1
 206.525390625 190.779296875 l 5,93,-1
 213.329101562 176.770507812 l 5,94,-1
 230.549804688 174.616210938 l 6,95,96
 264.154296875 170.418945312 264.154296875 170.418945312 320.602539062 180.875976562 c 6,97,-1
 341.58984375 184.764648438 l 5,98,-1
 353.60546875 182.702148438 l 6,99,100
 368.166992188 180.203125 368.166992188 180.203125 368.37890625 176.560546875 c 4,101,102
 368.475585938 174.907226562 368.475585938 174.907226562 366.133789062 172.565429688 c 4,103,104
 361.6640625 168.096679688 361.6640625 168.096679688 363.383789062 165.211914062 c 132,-1,105
 365.102539062 162.327148438 365.102539062 162.327148438 376.065429688 155.90234375 c 4,106,107
 389.786132812 147.862304688 389.786132812 147.862304688 399.751953125 136.604492188 c 6,108,-1
 409.724609375 125.337890625 l 5,109,-1
 418.783203125 125.075195312 l 5,110,-1
 427.844726562 124.815429688 l 5,111,-1
 417.4609375 120.276367188 l 6,112,113
 408.1015625 116.18359375 408.1015625 116.18359375 407.692382812 113.236328125 c 132,-1,114
 407.283203125 110.2890625 407.283203125 110.2890625 415.0625 102.978515625 c 6,115,-1
 423.051757812 95.47265625 l 5,116,-1
 423.051757812 68.8515625 l 5,117,-1
 439.072265625 60.1328125 l 6,118,119
 452.344726562 52.908203125 452.344726562 52.908203125 452.647460938 49.4443359375 c 132,-1,120
 452.94921875 45.98046875 452.94921875 45.98046875 440.509765625 43.646484375 c 4,121,122
 430.387695312 41.748046875 430.387695312 41.748046875 430.221679688 39.029296875 c 132,-1,123
 430.055664062 36.3115234375 430.055664062 36.3115234375 439.298828125 23.7431640625 c 6,124,-1
 449.157226562 10.3349609375 l 5,125,-1
 113.184570312 10.3349609375 l 5,126,-1
 113.184570312 12.9521484375 l 6,127,128
 113.184570312 15.57421875 113.184570312 15.57421875 118.239257812 32.5966796875 c 6,129,-1
 123.298828125 49.625 l 5,130,-1
 121.2890625 60.3271484375 l 6,131,132
 119.427734375 70.2509765625 119.427734375 70.2509765625 117.037109375 70.1455078125 c 132,-1,133
 114.646484375 70.0400390625 114.646484375 70.0400390625 101.741210938 59.46484375 c 4,134,135
 87.626953125 47.8984375 87.626953125 47.8984375 87.626953125 49.2998046875 c 132,-1,136
 87.626953125 50.7041015625 87.626953125 50.7041015625 92.7255859375 67.869140625 c 6,137,-1
 97.822265625 85.0380859375 l 5,138,-1
 95.6064453125 105.720703125 l 6,139,140
 91.7880859375 141.3671875 91.7880859375 141.3671875 84.716796875 141.291015625 c 4,141,142
 82.833984375 141.274414062 82.833984375 141.274414062 76.8388671875 130.907226562 c 6,143,-1
 70.8486328125 120.54296875 l 5,144,-1
 61.7109375 160.166992188 l 6,145,146
 52.5751953125 199.790039062 52.5751953125 199.790039062 51.1962890625 201.166992188 c 132,-1,147
 49.8193359375 202.54296875 49.8193359375 202.54296875 55.73828125 219.750976562 c 6,148,-1
 61.6640625 236.955078125 l 5,149,-1
 42.9775390625 236.251953125 l 6,150,151
 21.794921875 235.454101562 21.794921875 235.454101562 21.3623046875 239.970703125 c 4,152,153
 21.1572265625 242.11328125 21.1572265625 242.11328125 24.6845703125 246.010742188 c 4,154,155
 33.419921875 255.662109375 33.419921875 255.662109375 57.515625 313.288085938 c 6,156,-1
 61.970703125 323.942382812 l 5,157,-1
 48.4443359375 321.735351562 l 5,158,-1
 34.9150390625 319.529296875 l 5,159,-1
 44.6728515625 330.248046875 l 6,160,161
 54.419921875 340.954101562 54.419921875 340.954101562 67.0341796875 356.904296875 c 132,-1,162
 79.6484375 372.8515625 79.6484375 372.8515625 89.958984375 381.940429688 c 6,163,-1
 100.28125 391.03515625 l 5,164,-1
 85.16796875 403.108398438 l 6,165,166
 70.056640625 415.18359375 70.056640625 415.18359375 62.466796875 423.43359375 c 6,167,-1
 54.87109375 431.685546875 l 5,168,-1
 63.1650390625 433.765625 l 5,169,-1
 71.4560546875 435.846679688 l 5,170,-1
 82.31640625 429.13671875 l 5,171,-1
 93.1728515625 422.427734375 l 5,172,-1
 148.0078125 422.427734375 l 5,173,-1
 206.462890625 436.942382812 l 6,174,175
 264.922851562 451.4609375 264.922851562 451.4609375 294.108398438 455.568359375 c 6,176,-1
 323.296875 459.673828125 l 5,0,-1
281.409179688 399.588867188 m 132,-1,178
 289.66796875 399.588867188 289.66796875 399.588867188 295.513671875 393.744140625 c 132,-1,179
 301.358398438 387.8984375 301.358398438 387.8984375 301.358398438 379.639648438 c 132,-1,180
 301.358398438 371.379882812 301.358398438 371.379882812 295.513671875 365.53515625 c 132,-1,181
 289.66796875 359.689453125 289.66796875 359.689453125 281.409179688 359.689453125 c 132,-1,182
 273.150390625 359.689453125 273.150390625 359.689453125 267.3046875 365.53515625 c 132,-1,183
 261.458984375 371.380859375 261.458984375 371.380859375 261.458984375 379.639648438 c 132,-1,184
 261.458984375 387.8984375 261.458984375 387.8984375 267.3046875 393.744140625 c 132,-1,177
 273.149414062 399.588867188 273.149414062 399.588867188 281.409179688 399.588867188 c 132,-1,178
EndSplineSet
Validated: 33
EndChar

StartChar: ranger
Encoding: 88 88 45
GlifName: fontawesome-webfont-37
Width: 512
GlyphClass: 2
LayerCount: 2
Fore
SplineSet
145.193359375 399.943359375 m 4,0,1
 159.485351562 400.166015625 159.485351562 400.166015625 163.119140625 391.186523438 c 4,2,3
 167.379882812 380.704101562 167.379882812 380.704101562 153.254882812 371.419921875 c 5,4,-1
 181.672851562 313.376953125 l 5,5,-1
 212.638671875 323.499023438 l 5,6,-1
 210.918945312 332.592773438 l 5,7,-1
 219.317382812 336.818359375 l 5,8,-1
 242.75 328.650390625 l 5,9,-1
 232.999023438 303.819335938 l 5,10,-1
 219.584960938 303.981445312 l 5,11,-1
 216.41015625 311.374023438 l 5,12,-1
 192.611328125 303.569335938 l 5,13,-1
 209.06640625 242.893554688 l 5,14,-1
 306.979492188 243.059570312 l 5,15,-1
 323.389648438 303.569335938 l 5,16,-1
 299.58984375 311.374023438 l 5,17,-1
 296.415039062 303.981445312 l 5,18,-1
 282.998046875 303.819335938 l 5,19,-1
 273.247070312 328.650390625 l 5,20,-1
 296.6796875 336.818359375 l 5,21,-1
 305.08203125 332.592773438 l 5,22,-1
 303.358398438 323.499023438 l 5,23,-1
 334.328125 313.376953125 l 5,24,-1
 362.7421875 371.419921875 l 5,25,26
 348.622070312 380.704101562 348.622070312 380.704101562 352.877929688 391.186523438 c 4,27,28
 355.412109375 397.439453125 355.412109375 397.439453125 364.2265625 399.33203125 c 132,-1,29
 373.040039062 401.224609375 373.040039062 401.224609375 382.969726562 397.649414062 c 132,-1,30
 392.900390625 394.069335938 392.900390625 394.069335938 398.131835938 387.118164062 c 132,-1,31
 403.362304688 380.166992188 403.362304688 380.166992188 400.828125 373.9140625 c 4,32,33
 396.502929688 363.244140625 396.502929688 363.244140625 379.084960938 365.432617188 c 5,34,-1
 365.005859375 303.221679688 l 5,35,-1
 397.525390625 293.515625 l 5,36,-1
 399.025390625 301.173828125 l 5,37,-1
 409.509765625 300.500976562 l 5,38,-1
 421 277.426757812 l 5,39,-1
 398.405273438 265.434570312 l 5,40,-1
 388.880859375 271.1640625 l 5,41,-1
 389.955078125 279.649414062 l 5,42,-1
 366.374023438 286.6484375 l 5,43,-1
 346.357421875 243.127929688 l 5,44,-1
 452.259765625 243.30859375 l 6,45,46
 453.974609375 243.799804688 453.974609375 243.799804688 456.873046875 244.504882812 c 132,-1,47
 459.770507812 245.2109375 459.770507812 245.2109375 467.2890625 246.228515625 c 132,-1,48
 474.807617188 247.24609375 474.807617188 247.24609375 480.618164062 246.887695312 c 4,49,50
 502.309570312 245.55859375 502.309570312 245.55859375 505.467773438 235.614257812 c 4,51,52
 506.896484375 231.100585938 506.896484375 231.100585938 504.623046875 229.6875 c 132,-1,53
 502.350585938 228.275390625 502.350585938 228.275390625 495.331054688 231.067382812 c 4,54,55
 477.719726562 238.85546875 477.719726562 238.85546875 452.930664062 230.123046875 c 132,-1,56
 428.141601562 221.390625 428.141601562 221.390625 386.669921875 193.366210938 c 4,57,58
 359.489257812 174.997070312 359.489257812 174.997070312 344.020507812 167.756835938 c 132,-1,59
 328.551757812 160.517578125 328.551757812 160.517578125 305.577148438 155.163085938 c 5,60,-1
 258 56.056640625 l 5,61,-1
 285.50390625 162.83203125 l 5,62,63
 231.420898438 163.370117188 231.420898438 163.370117188 230.477539062 162.430664062 c 6,64,-1
 258 56.056640625 l 5,65,-1
 211.311523438 153.318359375 l 5,66,67
 177.243164062 159.608398438 177.243164062 159.608398438 132.819335938 192.40234375 c 4,68,69
 91.9228515625 222.58984375 91.9228515625 222.58984375 66.2978515625 231.663085938 c 132,-1,70
 40.673828125 240.737304688 40.673828125 240.737304688 21.76953125 231.958984375 c 4,71,72
 15.5205078125 229.125 15.5205078125 229.125 13.515625 229.77734375 c 132,-1,73
 11.51171875 230.430664062 11.51171875 230.430664062 12.1884765625 234.793945312 c 4,74,75
 13.525390625 243.412109375 13.525390625 243.412109375 32.125 245.890625 c 4,76,77
 38.2626953125 246.70703125 38.2626953125 246.70703125 47.439453125 245.8984375 c 132,-1,78
 56.6162109375 245.08984375 56.6162109375 245.08984375 62.724609375 243.872070312 c 6,79,-1
 68.83203125 242.655273438 l 5,80,-1
 169.782226562 242.825195312 l 5,81,-1
 149.625976562 286.6484375 l 5,82,-1
 126.045898438 279.649414062 l 5,83,-1
 127.119140625 271.16015625 l 5,84,-1
 117.594726562 265.434570312 l 5,85,-1
 94.9970703125 277.426757812 l 5,86,-1
 106.487304688 300.500976562 l 5,87,-1
 116.971679688 301.173828125 l 5,88,-1
 118.475585938 293.515625 l 5,89,-1
 150.994140625 303.225585938 l 5,90,-1
 136.916015625 365.436523438 l 5,91,92
 119.498046875 363.2421875 119.498046875 363.2421875 115.171875 373.9140625 c 4,93,94
 112.637695312 380.166992188 112.637695312 380.166992188 117.8671875 387.118164062 c 132,-1,95
 123.096679688 394.068359375 123.096679688 394.068359375 133.026367188 397.645507812 c 4,96,97
 138.920898438 399.799804688 138.920898438 399.799804688 145.193359375 399.943359375 c 4,0,1
91.6904296875 233.909179688 m 5,98,99
 130.056640625 214.131835938 130.056640625 214.131835938 136.243164062 210.69140625 c 4,100,101
 166.723632812 193.75390625 166.723632812 193.75390625 192.444335938 193.559570312 c 5,102,-1
 173.883789062 233.909179688 l 5,103,-1
 91.6904296875 233.909179688 l 5,98,99
211.500976562 233.909179688 m 5,104,-1
 224.525390625 185.905273438 l 5,105,-1
 291.68359375 186.676757812 l 5,106,-1
 304.49609375 233.909179688 l 5,107,-1
 211.500976562 233.909179688 l 5,104,-1
342.11328125 233.909179688 m 5,108,-1
 323.771484375 194.03125 l 5,109,110
 330.537109375 193.19921875 330.537109375 193.19921875 336.654296875 193.688476562 c 132,-1,111
 342.772460938 194.178710938 342.772460938 194.178710938 351.278320312 197.485351562 c 132,-1,112
 359.78515625 200.791992188 359.78515625 200.791992188 363.059570312 202.150390625 c 132,-1,113
 366.333984375 203.508789062 366.333984375 203.508789062 378.48046875 209.918945312 c 132,-1,114
 390.625976562 216.330078125 390.625976562 216.330078125 392.956054688 217.521484375 c 6,115,-1
 426.509765625 233.909179688 l 5,116,-1
 342.11328125 233.909179688 l 5,108,-1
EndSplineSet
Validated: 37
EndChar

StartChar: reaver
Encoding: 89 89 46
GlifName: fontawesome-webfont-38
Width: 512
GlyphClass: 2
LayerCount: 2
Fore
SplineSet
223.967773438 114.740234375 m 4,0,1
 176.356445312 129.961914062 176.356445312 129.961914062 155.345703125 174.489257812 c 132,-1,2
 134.333984375 219.016601562 134.333984375 219.016601562 152.444335938 266.317382812 c 4,3,4
 157.848632812 280.422851562 157.848632812 280.422851562 157.848632812 280.831054688 c 132,-1,5
 157.848632812 281.236328125 157.848632812 281.236328125 144.37890625 290.915039062 c 4,6,7
 119.328125 308.908203125 119.328125 308.908203125 61.607421875 330.467773438 c 4,8,9
 28.2783203125 342.912109375 28.2783203125 342.912109375 22.69140625 345.934570312 c 132,-1,10
 17.10546875 348.956054688 17.10546875 348.956054688 14.125 356.149414062 c 4,11,12
 10.939453125 363.83984375 10.939453125 363.83984375 16.107421875 370.26171875 c 132,-1,13
 21.275390625 376.684570312 21.275390625 376.684570312 30.615234375 376.641601562 c 4,14,15
 46.9091796875 376.5625 46.9091796875 376.5625 98.4736328125 355.15625 c 132,-1,16
 150.038085938 333.749023438 150.038085938 333.749023438 168.942382812 319.215820312 c 6,17,-1
 181.31640625 309.703125 l 5,18,-1
 193.055664062 317.481445312 l 6,19,20
 222.592773438 337.045898438 222.592773438 337.045898438 257.083984375 337.321289062 c 132,-1,21
 291.575195312 337.595703125 291.575195312 337.595703125 321.588867188 318.504882812 c 6,22,-1
 335.18359375 309.857421875 l 5,23,-1
 351.103515625 321.147460938 l 6,24,25
 377.118164062 339.584960938 377.118164062 339.584960938 423.303710938 357.370117188 c 4,26,27
 464.716796875 373.318359375 464.716796875 373.318359375 478.453125 375.4765625 c 132,-1,28
 492.189453125 377.634765625 492.189453125 377.634765625 500.0546875 369.426757812 c 6,29,-1
 506.997070312 362.181640625 l 5,30,-1
 501.176757812 353.798828125 l 6,31,32
 495.349609375 345.416015625 495.349609375 345.416015625 458.34375 331.571289062 c 4,33,34
 397.985351562 308.987304688 397.985351562 308.987304688 373.319335938 291.685546875 c 4,35,36
 358.04296875 280.97265625 358.04296875 280.97265625 358.04296875 280.384765625 c 132,-1,37
 358.04296875 279.8046875 358.04296875 279.8046875 362.978515625 268.56640625 c 4,38,39
 376.924804688 236.8125 376.924804688 236.8125 370.372070312 203.405273438 c 132,-1,40
 363.818359375 169.999023438 363.818359375 169.999023438 342.208007812 147.791015625 c 132,-1,41
 320.596679688 125.583984375 320.596679688 125.583984375 289.676757812 114.108398438 c 132,-1,42
 258.755859375 102.631835938 258.755859375 102.631835938 223.967773438 114.740234375 c 4,0,1
293.008789062 152.203125 m 4,43,44
 317.874023438 164.3515625 317.874023438 164.3515625 330.12109375 191.374023438 c 132,-1,45
 342.368164062 218.396484375 342.368164062 218.396484375 335.130859375 245.140625 c 4,46,47
 332.471679688 254.970703125 332.471679688 254.970703125 329.75390625 255.047851562 c 4,48,49
 326.583984375 255.137695312 326.583984375 255.137695312 309.146484375 240.888671875 c 4,50,51
 281.459960938 221.114257812 281.459960938 221.114257812 273.34765625 225.846679688 c 5,52,53
 273.34765625 235.296875 273.34765625 235.296875 294.78125 263.736328125 c 4,54,55
 309.279296875 282.9765625 309.279296875 282.9765625 309.279296875 284.712890625 c 132,-1,56
 309.279296875 286.448242188 309.279296875 286.448242188 293.469726562 294.350585938 c 4,57,58
 258.525390625 311.803710938 258.525390625 311.803710938 225.865234375 295.983398438 c 4,59,60
 209.659179688 288.13671875 209.659179688 288.13671875 208.364257812 285.544921875 c 132,-1,61
 207.068359375 282.953125 207.068359375 282.953125 214.663085938 273.5703125 c 4,62,63
 223.556640625 262.418945312 223.556640625 262.418945312 231.670898438 250.666992188 c 4,64,65
 250.006835938 223.689453125 250.006835938 223.689453125 236.966796875 224.228515625 c 4,66,67
 227.374023438 224.624023438 227.374023438 224.624023438 206.3671875 242.143554688 c 6,68,-1
 186.116210938 259.034179688 l 5,69,-1
 183.244140625 251.766601562 l 6,70,71
 173.896484375 228.12890625 173.896484375 228.12890625 180.500976562 204.196289062 c 132,-1,72
 187.106445312 180.263671875 187.106445312 180.263671875 204.502929688 165.739257812 c 132,-1,73
 221.900390625 151.21484375 221.900390625 151.21484375 245.31640625 145.405273438 c 132,-1,74
 268.733398438 139.595703125 268.733398438 139.595703125 293.008789062 152.203125 c 4,43,44
EndSplineSet
Validated: 33
EndChar

StartChar: runemaster
Encoding: 90 90 47
GlifName: fontawesome-webfont-39
Width: 512
GlyphClass: 2
LayerCount: 2
Fore
SplineSet
227.4609375 117.446289062 m 5,0,-1
 47.1328125 243.05078125 l 5,1,-1
 259.571289062 480.655273438 l 5,2,-1
 464.8671875 277.12890625 l 5,3,-1
 312.08984375 130.96484375 l 5,4,-1
 387.921875 11.3564453125 l 5,5,-1
 268.887695312 97.1416015625 l 5,6,-1
 160.985351562 11.3564453125 l 5,7,-1
 227.4609375 117.446289062 l 5,0,-1
361.201171875 281.915039062 m 5,8,9
 295.084960938 365.991210938 295.084960938 365.991210938 262.137695312 406.506835938 c 5,10,-1
 161.146484375 268.349609375 l 5,11,-1
 264.755859375 159.25390625 l 5,12,-1
 361.201171875 281.915039062 l 5,8,9
206.6171875 268.514648438 m 5,13,-1
 264.377929688 360.192382812 l 5,14,-1
 314.548828125 271.208007812 l 5,15,-1
 257.987304688 196.639648438 l 5,16,-1
 206.6171875 268.514648438 l 5,13,-1
EndSplineSet
Validated: 1
EndChar

StartChar: pen
Encoding: 91 91 48
GlifName: reorder
Width: 512
GlyphClass: 2
Flags: W
LayerCount: 2
Fore
SplineSet
140 73 m 1,0,-1
 166 99 l 1,1,-1
 99 166 l 1,2,-1
 73 140 l 1,3,-1
 73 110 l 1,4,-1
 110 110 l 1,5,-1
 110 73 l 1,6,-1
 140 73 l 1,0,-1
290 338 m 0,7,8
 290 345 290 345 283 345 c 0,9,10
 281 345 281 345 279 343 c 2,11,-1
 124 188 l 2,12,13
 122 186 122 186 122 183 c 0,14,15
 122 177 122 177 128 177 c 0,16,17
 132 177 132 177 133 179 c 2,18,-1
 288 333 l 2,19,20
 290 337 290 337 290 338 c 0,7,8
274 393 m 1,21,-1
 393 274 l 1,22,-1
 155 37 l 1,23,-1
 37 37 l 1,24,-1
 37 155 l 1,25,-1
 274 393 l 1,21,-1
469 366 m 0,26,27
 469 350 469 350 459 340 c 2,28,-1
 411 293 l 1,29,-1
 293 411 l 1,30,-1
 340 459 l 2,31,32
 350 469 350 469 366 469 c 0,33,34
 381 469 381 469 392 459 c 2,35,-1
 459 392 l 2,36,37
 469 381 469 381 469 366 c 0,26,27
EndSplineSet
EndChar

StartChar: book
Encoding: 93 93 49
GlifName: book
Width: 512
GlyphClass: 2
Flags: W
LayerCount: 2
Fore
SplineSet
475 256 m 128,-1,1
 475 209 475 209 458 171 c 0,2,3
 438 127 438 127 411 101 c 0,4,5
 385 74 385 74 341 54 c 0,6,7
 303 37 303 37 256 37 c 0,8,9
 204 37 204 37 163 57 c 0,10,11
 120 77 120 77 87 116 c 0,12,13
 85 120 85 120 85 122 c 0,14,15
 85 125 85 125 88 128 c 2,16,-1
 127 167 l 2,17,18
 130 170 130 170 134 170 c 0,19,20
 135 170 135 170 141 167 c 0,21,22
 160 139 160 139 192 125 c 0,23,24
 222 110 222 110 256 110 c 0,25,26
 285 110 285 110 313 121 c 0,27,28
 341 133 341 133 359 153 c 0,29,30
 379 171 379 171 391 199 c 0,31,32
 402 227 402 227 402 256 c 128,-1,33
 402 285 402 285 391 313 c 0,34,35
 379 341 379 341 359 359 c 0,36,37
 341 379 341 379 313 391 c 0,38,39
 285 402 285 402 256 402 c 0,40,41
 226 402 226 402 202 392 c 0,42,43
 175 381 175 381 157 363 c 1,44,-1
 196 324 l 2,45,46
 205 315 205 315 200 304 c 0,47,48
 194 293 194 293 183 293 c 2,49,-1
 55 293 l 2,50,51
 47 293 47 293 42 298 c 128,-1,52
 37 303 37 303 37 311 c 2,53,-1
 37 439 l 2,54,55
 37 450 37 450 48 456 c 0,56,57
 59 461 59 461 68 452 c 2,58,-1
 105 415 l 1,59,60
 134 443 134 443 175 460 c 0,61,62
 214 475 214 475 256 475 c 0,63,64
 303 475 303 475 341 458 c 0,65,66
 385 438 385 438 411 411 c 0,67,68
 438 385 438 385 458 341 c 0,69,0
 475 303 475 303 475 256 c 128,-1,1
EndSplineSet
Validated: 33
EndChar

StartChar: graph
Encoding: 94 94 50
GlifName: graph
Width: 512
GlyphClass: 2
Flags: W
LayerCount: 2
Fore
SplineSet
352 384 m 1,0,-1
 256 384 l 1,1,-1
 256 64 l 1,2,-1
 352 64 l 1,3,-1
 352 384 l 1,0,-1
480 288 m 1,4,-1
 384 288 l 1,5,-1
 384 64 l 1,6,-1
 480 64 l 1,7,-1
 480 288 l 1,4,-1
32 32 m 1,8,-1
 32 96 l 1,9,-1
 64 96 l 1,10,-1
 64 128 l 1,11,-1
 32 128 l 1,12,-1
 32 192 l 1,13,-1
 64 192 l 1,14,-1
 64 224 l 1,15,-1
 32 224 l 1,16,-1
 32 288 l 1,17,-1
 64 288 l 1,18,-1
 64 320 l 1,19,-1
 32 320 l 1,20,-1
 32 384 l 1,21,-1
 64 384 l 1,22,-1
 64 416 l 1,23,-1
 32 416 l 1,24,-1
 32 480 l 1,25,-1
 64 480 l 1,26,-1
 64 512 l 1,27,-1
 0 512 l 1,28,-1
 0 0 l 1,29,-1
 512 0 l 1,30,-1
 512 32 l 1,31,-1
 32 32 l 1,8,-1
224 224 m 1,32,-1
 128 224 l 1,33,-1
 128 64 l 1,34,-1
 224 64 l 1,35,-1
 224 224 l 1,32,-1
EndSplineSet
Validated: 9
EndChar

StartChar: savage
Encoding: 97 97 51
GlifName: fontawesome-webfont-1
Width: 512
GlyphClass: 2
Flags: W
LayerCount: 2
Fore
SplineSet
194.84765625 19.5869140625 m 4,0,1
 178.288085938 30.7119140625 178.288085938 30.7119140625 174.514648438 32.896484375 c 132,-1,2
 170.671875 35.126953125 170.671875 35.126953125 176.453125 46.9140625 c 4,3,4
 190.1953125 74.9287109375 190.1953125 74.9287109375 168.935546875 91.5732421875 c 132,-1,5
 147.676757812 108.217773438 147.676757812 108.217773438 107.181640625 101.149414062 c 4,6,7
 94.7529296875 98.982421875 94.7529296875 98.982421875 82.6318359375 108.619140625 c 132,-1,8
 70.509765625 118.255859375 70.509765625 118.255859375 64.01171875 135.471679688 c 6,9,-1
 58.1953125 150.875 l 5,10,-1
 78.66796875 178.780273438 l 5,11,-1
 99.1416015625 206.686523438 l 5,12,-1
 90.4775390625 218.7578125 l 5,13,-1
 81.814453125 230.829101562 l 5,14,-1
 86.9736328125 243.895507812 l 6,15,16
 94.462890625 262.861328125 94.462890625 262.861328125 111.985351562 283.297851562 c 6,17,-1
 123.5859375 296.833984375 l 5,18,-1
 120.25390625 314.319335938 l 6,19,20
 116.28515625 335.163085938 116.28515625 335.163085938 122.026367188 385.032226562 c 132,-1,21
 127.767578125 434.901367188 127.767578125 434.901367188 135.2265625 444.369140625 c 4,22,23
 147.13671875 459.4921875 147.13671875 459.4921875 179.064453125 470.407226562 c 132,-1,24
 210.9921875 481.322265625 210.9921875 481.322265625 233.470703125 477.958984375 c 4,25,26
 245.924804688 476.098632812 245.924804688 476.098632812 250.390625 473.5546875 c 132,-1,27
 254.857421875 471.009765625 254.857421875 471.009765625 265.584960938 459.668945312 c 4,28,29
 280.4453125 443.951171875 280.4453125 443.951171875 280.4453125 446.795898438 c 132,-1,30
 280.4453125 449.640625 280.4453125 449.640625 289.38671875 456.393554688 c 6,31,-1
 298.333984375 463.151367188 l 5,32,-1
 314.587890625 459.077148438 l 6,33,34
 351.208984375 449.883789062 351.208984375 449.883789062 364.666015625 393.247070312 c 4,35,36
 370.21875 369.864257812 370.21875 369.864257812 376.834960938 342.189453125 c 4,37,38
 383.379882812 314.79296875 383.379882812 314.79296875 398.133789062 286.662109375 c 4,39,40
 409.979492188 264.076171875 409.979492188 264.076171875 411.24609375 254.80078125 c 132,-1,41
 412.512695312 245.526367188 412.512695312 245.526367188 405.565429688 232.22265625 c 4,42,43
 401.510742188 224.450195312 401.510742188 224.450195312 403.522460938 221.044921875 c 132,-1,44
 405.53515625 217.638671875 405.53515625 217.638671875 421.213867188 205.7421875 c 4,45,46
 440.506835938 191.107421875 440.506835938 191.107421875 447.162109375 182.471679688 c 6,47,-1
 453.8046875 173.84375 l 5,48,-1
 448.049804688 152.684570312 l 6,49,50
 442.291015625 131.526367188 442.291015625 131.526367188 431.794921875 121.051757812 c 6,51,-1
 421.295898438 110.578125 l 5,52,-1
 400.80859375 112.567382812 l 6,53,54
 380.331054688 114.55859375 380.331054688 114.55859375 374.54296875 115.99609375 c 132,-1,55
 368.762695312 117.431640625 368.762695312 117.431640625 362.077148438 109.5625 c 4,56,57
 355.936523438 102.331054688 355.936523438 102.331054688 355.846679688 98.236328125 c 132,-1,58
 355.756835938 94.1416015625 355.756835938 94.1416015625 361.470703125 81.9150390625 c 4,59,60
 365.434570312 73.4443359375 365.434570312 73.4443359375 365.779296875 57.220703125 c 132,-1,61
 366.125 40.9970703125 366.125 40.9970703125 362.37890625 39.31640625 c 4,62,63
 361.870117188 39.087890625 361.870117188 39.087890625 343.01171875 25.46484375 c 132,-1,64
 324.1640625 11.845703125 324.1640625 11.845703125 323.518554688 12.8037109375 c 4,65,66
 311.233398438 31.0556640625 311.233398438 31.0556640625 298.8984375 54.9580078125 c 4,67,68
 288.4609375 75.189453125 288.4609375 75.189453125 279.581054688 85.4052734375 c 6,69,-1
 270.702148438 95.6025390625 l 5,70,-1
 262.744140625 70.0439453125 l 6,71,72
 254.790039062 44.498046875 254.790039062 44.498046875 253.040039062 29.6943359375 c 4,73,74
 251.486328125 16.55859375 251.486328125 16.55859375 248.401367188 14.078125 c 132,-1,75
 245.31640625 11.5966796875 245.31640625 11.5966796875 228.66015625 10.0830078125 c 4,76,77
 215.7578125 8.9111328125 215.7578125 8.9111328125 211.446289062 10.1240234375 c 132,-1,78
 207.133789062 11.3369140625 207.133789062 11.3369140625 194.84765625 19.5869140625 c 4,0,1
245.459960938 61.544921875 m 4,79,80
 253.454101562 86.546875 253.454101562 86.546875 253.801757812 90.0009765625 c 132,-1,81
 254.149414062 93.4560546875 254.149414062 93.4560546875 249.255859375 99.275390625 c 6,82,-1
 244.081054688 105.428710938 l 5,83,-1
 236.418945312 98.158203125 l 6,84,85
 228.752929688 90.8837890625 228.752929688 90.8837890625 228.752929688 77.283203125 c 4,86,87
 228.752929688 67.6826171875 228.752929688 67.6826171875 227.802734375 65.6826171875 c 132,-1,88
 226.852539062 63.681640625 226.852539062 63.681640625 222.290039062 63.681640625 c 132,-1,89
 217.733398438 63.681640625 217.733398438 63.681640625 216.782226562 65.6767578125 c 132,-1,90
 215.831054688 67.6728515625 215.831054688 67.6728515625 215.831054688 77.2294921875 c 132,-1,91
 215.831054688 86.681640625 215.831054688 86.681640625 214.170898438 90.2958984375 c 132,-1,92
 212.510742188 93.9111328125 212.510742188 93.9111328125 204.84765625 101.149414062 c 4,93,94
 168.625976562 135.36328125 168.625976562 135.36328125 131.822265625 135.36328125 c 6,95,-1
 118.240234375 135.36328125 l 5,96,-1
 115.345703125 146.734375 l 6,97,98
 112.13671875 159.368164062 112.13671875 159.368164062 113.374023438 162.733398438 c 132,-1,99
 114.611328125 166.099609375 114.611328125 166.099609375 124.153320312 170.69140625 c 4,100,101
 135.041992188 175.930664062 135.041992188 175.930664062 138.224609375 175.801757812 c 132,-1,102
 141.40625 175.671875 141.40625 175.671875 152.475585938 169.541992188 c 4,103,104
 169.1171875 160.333984375 169.1171875 160.333984375 156.94921875 158.754882812 c 4,105,106
 152.752929688 158.2109375 152.752929688 158.2109375 145.430664062 159.18359375 c 4,107,108
 127.962890625 161.509765625 127.962890625 161.509765625 127.962890625 153.31640625 c 4,109,110
 127.962890625 148.77734375 127.962890625 148.77734375 143.251953125 147.678710938 c 4,111,112
 172.296875 145.600585938 172.296875 145.600585938 207.6484375 117.385742188 c 6,113,-1
 222.922851562 105.192382812 l 5,114,-1
 233.536132812 115.706054688 l 5,115,-1
 244.149414062 126.21875 l 5,116,-1
 256.8203125 112.23046875 l 5,117,-1
 269.48828125 98.2412109375 l 5,118,-1
 272.837890625 109.286132812 l 6,119,120
 276.319335938 120.756835938 276.319335938 120.756835938 293.732421875 131.014648438 c 132,-1,121
 311.14453125 141.272460938 311.14453125 141.272460938 318.75 136.336914062 c 4,122,123
 323.094726562 133.517578125 323.094726562 133.517578125 326.912109375 134.8125 c 132,-1,124
 330.729492188 136.107421875 330.729492188 136.107421875 345.463867188 145.395507812 c 4,125,126
 366.086914062 158.400390625 366.086914062 158.400390625 375.602539062 158.439453125 c 4,127,128
 397.20703125 158.532226562 397.20703125 158.532226562 386.50390625 169.814453125 c 4,129,130
 377.416992188 179.39453125 377.416992188 179.39453125 353.453125 169.48828125 c 4,131,132
 345.5390625 166.21484375 345.5390625 166.21484375 345.482421875 168.225585938 c 4,133,134
 345.434570312 169.9296875 345.434570312 169.9296875 350.37890625 177.854492188 c 4,135,136
 354.333007812 184.19140625 354.333007812 184.19140625 358.650390625 185.953125 c 132,-1,137
 362.96875 187.71484375 362.96875 187.71484375 380.521484375 190.147460938 c 4,138,139
 386.272460938 190.948242188 386.272460938 190.948242188 399.252929688 176.166992188 c 6,140,-1
 412.233398438 161.380859375 l 5,141,-1
 402.549804688 153.854492188 l 6,142,143
 392.856445312 146.322265625 392.856445312 146.322265625 381.233398438 144.997070312 c 132,-1,144
 369.610351562 143.670898438 369.610351562 143.670898438 350.95703125 132.477539062 c 6,145,-1
 332.311523438 121.28125 l 5,146,-1
 332.221679688 109.124023438 l 6,147,148
 332.154296875 100.28515625 332.154296875 100.28515625 331.083007812 98.6240234375 c 132,-1,149
 330.01171875 96.962890625 330.01171875 96.962890625 324.376953125 96.962890625 c 132,-1,150
 318.69140625 96.962890625 318.69140625 96.962890625 317.65625 98.6708984375 c 132,-1,151
 316.62109375 100.37890625 316.62109375 100.37890625 316.62109375 109.763671875 c 4,152,153
 316.62109375 120.895507812 316.62109375 120.895507812 313.610351562 122.140625 c 132,-1,154
 310.600585938 123.385742188 310.600585938 123.385742188 299.325195312 116.915039062 c 4,155,156
 285.551757812 109.010742188 285.551757812 109.010742188 286.454101562 103.599609375 c 132,-1,157
 287.356445312 98.1884765625 287.356445312 98.1884765625 306.524414062 73.728515625 c 4,158,159
 325.083007812 50.0458984375 325.083007812 50.0458984375 328.876953125 47.9140625 c 132,-1,160
 332.670898438 45.783203125 332.670898438 45.783203125 341.208984375 54.2421875 c 4,161,162
 348.911132812 61.8720703125 348.911132812 61.8720703125 349.720703125 67.69921875 c 132,-1,163
 350.530273438 73.52734375 350.530273438 73.52734375 345.297851562 83.6845703125 c 4,164,165
 336.657226562 100.458984375 336.657226562 100.458984375 352.038085938 119.138671875 c 4,166,167
 364.966796875 134.840820312 364.966796875 134.840820312 399.4296875 133.177734375 c 4,168,169
 409.805664062 132.676757812 409.805664062 132.676757812 415.551757812 137.4140625 c 132,-1,170
 421.297851562 142.151367188 421.297851562 142.151367188 427.3671875 156.2109375 c 4,171,172
 432.235351562 167.481445312 432.235351562 167.481445312 428.865234375 172.85546875 c 132,-1,173
 425.494140625 178.229492188 425.494140625 178.229492188 404.359375 192.8984375 c 4,174,175
 385.862304688 205.73828125 385.862304688 205.73828125 383.477539062 210.234375 c 132,-1,176
 381.09375 214.731445312 381.09375 214.731445312 384.956054688 229.493164062 c 4,177,178
 389.469726562 246.744140625 389.469726562 246.744140625 387.959960938 255.286132812 c 132,-1,179
 386.451171875 263.828125 386.451171875 263.828125 375.165039062 284.90625 c 4,180,181
 361.334960938 310.73046875 361.334960938 310.73046875 358.209960938 323.522460938 c 4,182,183
 343.740234375 382.641601562 343.740234375 382.641601562 326.811523438 413.120117188 c 4,184,185
 318.8828125 427.393554688 318.8828125 427.393554688 308.892578125 436.952148438 c 132,-1,186
 298.901367188 446.510742188 298.901367188 446.510742188 295.465820312 443.109375 c 4,187,188
 292.44140625 440.112304688 292.44140625 440.112304688 295.022460938 434.529296875 c 132,-1,189
 297.603515625 428.946289062 297.603515625 428.946289062 304.147460938 424.330078125 c 4,190,191
 309.66796875 420.436523438 309.66796875 420.436523438 315.012695312 411.162109375 c 132,-1,192
 320.357421875 401.887695312 320.357421875 401.887695312 318.272460938 399.821289062 c 4,193,194
 317.030273438 398.59765625 317.030273438 398.59765625 300.104492188 408.420898438 c 4,195,196
 288.841796875 414.950195312 288.841796875 414.950195312 285.6640625 418.265625 c 132,-1,197
 282.486328125 421.581054688 282.486328125 421.581054688 281.1328125 428.211914062 c 6,198,-1
 279.091796875 438.18359375 l 5,199,-1
 269.150390625 426.165039062 l 5,200,-1
 259.208007812 414.147460938 l 5,201,-1
 241.926757812 415.834960938 l 6,202,203
 224.640625 417.522460938 224.640625 417.522460938 209.252929688 413.193359375 c 4,204,205
 192.03125 408.350585938 192.03125 408.350585938 185.821289062 396.658203125 c 132,-1,206
 179.612304688 384.965820312 179.612304688 384.965820312 174.147460938 347.090820312 c 4,207,208
 168.759765625 309.731445312 168.759765625 309.731445312 170.255859375 299.462890625 c 132,-1,209
 171.751953125 289.193359375 171.751953125 289.193359375 182.984375 286.4140625 c 4,210,211
 221.778320312 276.823242188 221.778320312 276.823242188 238.38671875 255.248046875 c 4,212,213
 254.397460938 234.446289062 254.397460938 234.446289062 264.546875 238.147460938 c 4,214,215
 276.430664062 242.482421875 276.430664062 242.482421875 290.92578125 263.395507812 c 132,-1,216
 305.421875 284.307617188 305.421875 284.307617188 311.55859375 305.971679688 c 6,217,-1
 317.008789062 325.209960938 l 5,218,-1
 310.3125 341.784179688 l 6,219,220
 303.618164062 358.35546875 303.618164062 358.35546875 291.3828125 374.755859375 c 6,221,-1
 279.153320312 391.147460938 l 5,222,-1
 258.478515625 391.254882812 l 5,223,-1
 237.805664062 391.354492188 l 5,224,-1
 226.782226562 378.676757812 l 6,225,226
 212.09765625 361.787109375 212.09765625 361.787109375 207.440429688 345.217773438 c 132,-1,227
 202.784179688 328.649414062 202.784179688 328.649414062 210.434570312 320.513671875 c 4,228,229
 215.3671875 315.268554688 215.3671875 315.268554688 233.334960938 313.512695312 c 132,-1,230
 251.298828125 311.758789062 251.298828125 311.758789062 254.185546875 305.48046875 c 4,231,232
 259.155273438 294.67578125 259.155273438 294.67578125 267.487304688 302.513671875 c 4,233,234
 272.694335938 307.412109375 272.694335938 307.412109375 272.694335938 316.205078125 c 4,235,236
 272.694335938 322.208984375 272.694335938 322.208984375 266.78515625 329.595703125 c 132,-1,237
 260.875976562 336.983398438 260.875976562 336.983398438 253.376953125 340.354492188 c 6,238,-1
 243.108398438 344.96875 l 5,239,-1
 250.146484375 347.622070312 l 6,240,241
 268.16796875 354.404296875 268.16796875 354.404296875 280.420898438 334.685546875 c 4,242,243
 287.374023438 323.4921875 287.374023438 323.4921875 287.642578125 319.537109375 c 132,-1,244
 287.911132812 315.583007812 287.911132812 315.583007812 282.68359375 301.3828125 c 4,245,246
 277.172851562 286.3984375 277.172851562 286.3984375 272.9921875 286.372070312 c 132,-1,247
 268.810546875 286.344726562 268.810546875 286.344726562 259.348632812 284.791992188 c 4,248,249
 252.874023438 283.731445312 252.874023438 283.731445312 250.73046875 284.723632812 c 132,-1,250
 248.586914062 285.715820312 248.586914062 285.715820312 245.793945312 291.064453125 c 132,-1,251
 242.948242188 296.518554688 242.948242188 296.518554688 239.568359375 297.971679688 c 132,-1,252
 236.189453125 299.424804688 236.189453125 299.424804688 223.4609375 300.668945312 c 4,253,254
 210.524414062 301.928710938 210.524414062 301.928710938 206.948242188 303.528320312 c 132,-1,255
 203.372070312 305.127929688 203.372070312 305.127929688 198.89453125 311.65625 c 4,256,257
 178.383789062 341.5546875 178.383789062 341.5546875 216.379882812 387.943359375 c 6,258,-1
 229.662109375 404.158203125 l 5,259,-1
 258.28515625 404.073242188 l 5,260,-1
 286.905273438 403.990234375 l 5,261,-1
 301.547851562 384.209960938 l 6,262,263
 316.181640625 364.443359375 316.181640625 364.443359375 323.833984375 345.360351562 c 6,264,-1
 331.474609375 326.283203125 l 5,265,-1
 325.112304688 303.142578125 l 6,266,267
 317.970703125 277.157226562 317.970703125 277.157226562 306.583007812 260.49609375 c 132,-1,268
 295.194335938 243.8359375 295.194335938 243.8359375 271.131835938 224.168945312 c 4,269,270
 265.146484375 219.2734375 265.146484375 219.2734375 252.180664062 225.4609375 c 132,-1,271
 239.213867188 231.6484375 239.213867188 231.6484375 229.450195312 244.060546875 c 4,272,273
 215.081054688 262.338867188 215.081054688 262.338867188 178.05859375 273.477539062 c 6,274,-1
 159.796875 278.970703125 l 5,275,-1
 157.068359375 293.567382812 l 6,276,277
 153.459960938 312.819335938 153.459960938 312.819335938 160.216796875 352.708007812 c 132,-1,278
 166.973632812 392.596679688 166.973632812 392.596679688 176.2421875 406.776367188 c 4,279,280
 183.133789062 417.326171875 183.133789062 417.326171875 186.921875 419.96484375 c 132,-1,281
 190.708984375 422.604492188 190.708984375 422.604492188 203.762695312 425.958007812 c 4,282,283
 221.787109375 430.584960938 221.787109375 430.584960938 237.642578125 430.014648438 c 4,284,285
 252.884765625 429.467773438 252.884765625 429.467773438 258.518554688 433.822265625 c 132,-1,286
 264.153320312 438.176757812 264.153320312 438.176757812 258.758789062 446.333007812 c 4,287,288
 251.065429688 457.966796875 251.065429688 457.966796875 212.595703125 449.999023438 c 132,-1,289
 174.125 442.03125 174.125 442.03125 164.848632812 426.883789062 c 4,290,291
 160.251953125 419.375 160.251953125 419.375 150.651367188 376.7265625 c 132,-1,292
 141.05078125 334.078125 141.05078125 334.078125 139.374023438 313.709960938 c 4,293,294
 136.997070312 284.854492188 136.997070312 284.854492188 118.201171875 257.517578125 c 6,295,-1
 106.265625 240.153320312 l 5,296,-1
 114.229492188 224.150390625 l 5,297,-1
 122.200195312 208.147460938 l 5,298,-1
 112.806640625 191.354492188 l 6,299,300
 103.41796875 174.565429688 103.41796875 174.565429688 93.46875 162.540039062 c 4,301,302
 84.5869140625 151.809570312 84.5869140625 151.809570312 85.0810546875 145.887695312 c 132,-1,303
 85.57421875 139.966796875 85.57421875 139.966796875 96.2080078125 129.6796875 c 4,304,305
 103.123046875 122.990234375 103.123046875 122.990234375 108.060546875 121.19921875 c 132,-1,306
 112.997070312 119.408203125 112.997070312 119.408203125 129.6796875 117.537109375 c 4,307,308
 174.384765625 112.51953125 174.384765625 112.51953125 194.409179688 89.34765625 c 4,309,310
 201.021484375 81.6953125 201.021484375 81.6953125 202.053710938 78.1904296875 c 132,-1,311
 203.084960938 74.685546875 203.084960938 74.685546875 201.864257812 64.0087890625 c 4,312,313
 200.415039062 51.3232421875 200.415039062 51.3232421875 203.782226562 46.298828125 c 132,-1,314
 207.149414062 41.275390625 207.149414062 41.275390625 220.185546875 36.6669921875 c 4,315,316
 231.819335938 32.556640625 231.819335938 32.556640625 235.013671875 35.7001953125 c 132,-1,317
 238.208984375 38.8447265625 238.208984375 38.8447265625 245.459960938 61.544921875 c 4,79,80
212.577148438 153.26953125 m 4,318,319
 186.522460938 164.453125 186.522460938 164.453125 160.384765625 191.412109375 c 132,-1,320
 134.24609375 218.37109375 134.24609375 218.37109375 139.879882812 228.250976562 c 4,321,322
 152.7265625 250.786132812 152.7265625 250.786132812 188.046875 238.865234375 c 4,323,324
 210.802734375 231.184570312 210.802734375 231.184570312 228.897460938 180.159179688 c 4,325,326
 237.055664062 157.1484375 237.055664062 157.1484375 239.463867188 152.641601562 c 132,-1,327
 241.858398438 148.1640625 241.858398438 148.1640625 239.391601562 148.1640625 c 132,-1,328
 236.93359375 148.1640625 236.93359375 148.1640625 233.489257812 146.96875 c 132,-1,329
 230.046875 145.766601562 230.046875 145.766601562 212.577148438 153.26953125 c 4,318,319
286.650390625 156.857421875 m 4,330,331
 285.133789062 160.780273438 285.133789062 160.780273438 290.298828125 176.870117188 c 132,-1,332
 295.452148438 192.907226562 295.452148438 192.907226562 298.442382812 205.55859375 c 4,333,334
 302.651367188 223.380859375 302.651367188 223.380859375 315.766601562 239.684570312 c 132,-1,335
 328.8828125 255.989257812 328.8828125 255.989257812 341.329101562 260.74609375 c 132,-1,336
 353.775390625 265.502929688 353.775390625 265.502929688 361.704101562 257.6796875 c 4,337,338
 366.080078125 251.48828125 366.080078125 251.48828125 365.62109375 238.849609375 c 132,-1,339
 365.162109375 226.209960938 365.162109375 226.209960938 360.2109375 216.541992188 c 4,340,341
 355.631835938 207.60546875 355.631835938 207.60546875 333.375976562 184.202148438 c 132,-1,342
 311.12109375 160.798828125 311.12109375 160.798828125 304.998046875 158.483398438 c 4,343,344
 288.44921875 152.220703125 288.44921875 152.220703125 286.650390625 156.857421875 c 4,330,331
EndSplineSet
EndChar

StartChar: shadowblade
Encoding: 99 99 52
GlifName: fontawesome-webfont-3
Width: 512
GlyphClass: 2
Flags: W
LayerCount: 2
Fore
SplineSet
180.17578125 474.651367188 m 5,0,-1
 218.861328125 421.540039062 l 5,1,-1
 218.861328125 137.083007812 l 5,2,-1
 147.53515625 137.083007812 l 5,3,-1
 147.53515625 423.658203125 l 5,4,-1
 180.17578125 474.651367188 l 5,0,-1
330.685546875 472.31640625 m 5,5,-1
 353.88671875 453.625 l 5,6,-1
 340.440429688 430.551757812 l 5,7,-1
 347.49609375 367.721679688 l 5,8,-1
 384.485351562 362.126953125 l 5,9,-1
 400.912109375 380.93359375 l 5,10,-1
 420.9375 355.666992188 l 5,11,-1
 400.463867188 332.982421875 l 5,12,-1
 383.544921875 347.83984375 l 5,13,-1
 278.125976562 347.83984375 l 5,14,-1
 261.225585938 333.000976562 l 5,15,-1
 241.162109375 355.80078125 l 5,16,-1
 260.428710938 381.091796875 l 5,17,-1
 277.271484375 362.36328125 l 5,18,-1
 313.68359375 368.073242188 l 5,19,-1
 321.341796875 430.153320312 l 5,20,-1
 308.40625 453.481445312 l 5,21,-1
 330.685546875 472.31640625 l 5,5,-1
297.633789062 342.920898438 m 5,22,-1
 368.959960938 342.920898438 l 5,23,-1
 368.959960938 58.4599609375 l 5,24,-1
 330.275390625 5.3525390625 l 5,25,-1
 297.633789062 56.341796875 l 5,26,-1
 297.633789062 342.920898438 l 5,22,-1
250.368164062 147.017578125 m 5,27,-1
 270.837890625 124.329101562 l 5,28,-1
 250.81640625 99.0703125 l 5,29,-1
 234.38671875 117.873046875 l 5,30,-1
 197.396484375 112.275390625 l 5,31,-1
 190.344726562 49.4521484375 l 5,32,-1
 203.784179688 26.375 l 5,33,-1
 180.58984375 7.67578125 l 5,34,-1
 158.302734375 26.51953125 l 5,35,-1
 171.239257812 49.84375 l 5,36,-1
 163.584960938 111.923828125 l 5,37,-1
 127.168945312 117.6328125 l 5,38,-1
 110.330078125 98.908203125 l 5,39,-1
 91.05859375 124.203125 l 5,40,-1
 111.130859375 146.99609375 l 5,41,-1
 128.02734375 132.16015625 l 5,42,-1
 233.4453125 132.16015625 l 5,43,-1
 250.368164062 147.017578125 l 5,27,-1
EndSplineSet
EndChar

StartChar: shaman
Encoding: 100 100 53
GlifName: fontawesome-webfont-4
Width: 506
GlyphClass: 2
Flags: W
LayerCount: 2
Fore
SplineSet
241.787109375 15.302734375 m 0,0,1
 237.282226562 18.9912109375 237.282226562 18.9912109375 234.741210938 29.376953125 c 0,2,3
 227.184570312 60.2275390625 227.184570312 60.2275390625 214.61328125 94.921875 c 128,-1,4
 202.041015625 129.616210938 202.041015625 129.616210938 195.974609375 136.361328125 c 0,5,6
 189.186523438 143.912109375 189.186523438 143.912109375 176.043945312 151.854492188 c 128,-1,7
 162.901367188 159.796875 162.901367188 159.796875 157.197265625 159.796875 c 0,8,9
 150.944335938 159.796875 150.944335938 159.796875 148.12890625 166.854492188 c 128,-1,10
 145.313476562 173.912109375 145.313476562 173.912109375 148.72265625 181.03515625 c 0,11,12
 152.633789062 189.182617188 152.633789062 189.182617188 152.633789062 199.590820312 c 2,13,-1
 152.633789062 209.982421875 l 1,14,-1
 135.151367188 216.064453125 l 1,15,-1
 117.668945312 222.146484375 l 1,16,-1
 117.668945312 232.602539062 l 2,17,18
 117.668945312 252.276367188 117.668945312 252.276367188 104.009765625 267.689453125 c 0,19,20
 95.646484375 277.127929688 95.646484375 277.127929688 93.3505859375 296.873046875 c 2,21,-1
 91.0546875 316.618164062 l 1,22,-1
 103.737304688 328.135742188 l 2,23,24
 116.454101562 339.680664062 116.454101562 339.680664062 130.411132812 350.896484375 c 0,25,26
 142.671875 360.749023438 142.671875 360.749023438 147.415039062 370.831054688 c 128,-1,27
 152.158203125 380.913085938 152.158203125 380.913085938 157.512695312 408.4921875 c 0,28,29
 162.916992188 436.353515625 162.916992188 436.353515625 167.755859375 445.709960938 c 128,-1,30
 172.594726562 455.06640625 172.594726562 455.06640625 185.063476562 461.771484375 c 0,31,32
 201.461914062 470.588867188 201.461914062 470.588867188 216.337890625 473.471679688 c 128,-1,33
 231.213867188 476.35546875 231.213867188 476.35546875 262.521484375 476.78125 c 0,34,35
 301.232421875 477.30859375 301.232421875 477.30859375 307.36328125 479.979492188 c 128,-1,36
 313.625 482.708007812 313.625 482.708007812 327.090820312 476.858398438 c 128,-1,37
 340.557617188 471.009765625 340.557617188 471.009765625 343.905273438 464.109375 c 0,38,39
 347.103515625 457.516601562 347.103515625 457.516601562 356.338867188 422.724609375 c 0,40,41
 365.354492188 388.76953125 365.354492188 388.76953125 373.111328125 375.649414062 c 128,-1,42
 380.868164062 362.529296875 380.868164062 362.529296875 395.676757812 356.181640625 c 0,43,44
 419.23046875 346.0859375 419.23046875 346.0859375 420.786132812 325.947265625 c 128,-1,45
 422.341796875 305.80859375 422.341796875 305.80859375 403.55859375 254.202148438 c 0,46,47
 395.771484375 232.80859375 395.771484375 232.80859375 382.194335938 232.684570312 c 0,48,49
 375.0234375 232.6171875 375.0234375 232.6171875 374.217773438 230.140625 c 128,-1,50
 373.413085938 227.663085938 373.413085938 227.663085938 378.305664062 220.721679688 c 0,51,52
 394.635742188 197.553710938 394.635742188 197.553710938 393.49609375 185.525390625 c 128,-1,53
 392.356445312 173.49609375 392.356445312 173.49609375 372.267578125 156.977539062 c 128,-1,54
 352.08984375 140.390625 352.08984375 140.390625 346.541992188 129.90625 c 128,-1,55
 340.994140625 119.420898438 340.994140625 119.420898438 333.639648438 83.9794921875 c 0,56,57
 325.185546875 43.244140625 325.185546875 43.244140625 321.313476562 36.8564453125 c 0,58,59
 313.196289062 23.478515625 313.196289062 23.478515625 282.620117188 15.19140625 c 128,-1,60
 252.043945312 6.9033203125 252.043945312 6.9033203125 241.787109375 15.302734375 c 0,0,1
215.072265625 220.673828125 m 0,61,62
 215.072265625 227.60546875 215.072265625 227.60546875 208.03515625 238.877929688 c 128,-1,63
 200.987304688 250.186523438 200.987304688 250.186523438 192.677734375 266.334960938 c 0,64,65
 185.311523438 280.659179688 185.311523438 280.659179688 180.528320312 285.052734375 c 128,-1,66
 175.745117188 289.446289062 175.745117188 289.446289062 156.377929688 299.680664062 c 0,67,68
 135.833007812 310.534179688 135.833007812 310.534179688 130.533203125 311.931640625 c 128,-1,69
 125.234375 313.329101562 125.234375 313.329101562 122.849609375 308.520507812 c 0,70,71
 118.202148438 299.143554688 118.202148438 299.143554688 137.376953125 269.7109375 c 0,72,73
 147.484375 254.206054688 147.484375 254.206054688 146.084960938 250.267578125 c 0,74,75
 145.365234375 248.2421875 145.365234375 248.2421875 146.747070312 246.888671875 c 128,-1,76
 148.12890625 245.536132812 148.12890625 245.536132812 151.782226562 244.6875 c 0,77,78
 173.576171875 239.619140625 173.576171875 239.619140625 194.391601562 224.344726562 c 0,79,80
 213.7734375 213.610351562 213.7734375 213.610351562 215.072265625 220.673828125 c 0,61,62
316.756835938 222.907226562 m 0,81,82
 339.141601562 239.534179688 339.141601562 239.534179688 360.546875 244.587890625 c 0,83,84
 367.416015625 246.212890625 367.416015625 246.212890625 367.416015625 251.434570312 c 128,-1,85
 367.416015625 256.668945312 367.416015625 256.668945312 377.296875 271.893554688 c 0,86,87
 404.75 314.217773438 404.75 314.217773438 381.891601562 310.370117188 c 0,88,89
 376.37890625 309.442382812 376.37890625 309.442382812 367.97265625 305.698242188 c 0,90,91
 331.4453125 289.428710938 331.4453125 289.428710938 322.092773438 269.5703125 c 0,92,93
 316.772460938 258.258789062 316.772460938 258.258789062 307.123046875 242.884765625 c 0,94,95
 289.541015625 214.859375 289.541015625 214.859375 300.83203125 214.926757812 c 0,96,97
 306.057617188 214.95703125 306.057617188 214.95703125 316.756835938 222.907226562 c 0,81,82
264.827148438 293.311523438 m 0,98,99
 265.217773438 312.15234375 265.217773438 312.15234375 270.962890625 345.337890625 c 128,-1,100
 276.700195312 378.479492188 276.700195312 378.479492188 274.912109375 376.360351562 c 0,101,102
 268.346679688 368.536132812 268.346679688 368.536132812 262.141601562 327.15234375 c 2,103,-1
 259.125 307.044921875 l 1,104,-1
 253.955078125 323.203125 l 2,105,106
 250.473632812 334.084960938 250.473632812 334.084960938 240.569335938 353.482421875 c 128,-1,107
 230.665039062 372.880859375 230.665039062 372.880859375 228.590820312 372.880859375 c 0,108,109
 228.291992188 372.880859375 228.291992188 372.880859375 228.590820312 371.5234375 c 128,-1,110
 228.888671875 370.165039062 228.888671875 370.165039062 229.688476562 367.834960938 c 128,-1,111
 230.48828125 365.50390625 230.48828125 365.50390625 231.600585938 362.766601562 c 0,112,113
 238.676757812 345.344726562 238.676757812 345.344726562 248.279296875 313.92578125 c 128,-1,114
 257.8828125 282.505859375 257.8828125 282.505859375 259.17578125 272.546875 c 0,115,116
 261.708984375 253.0078125 261.708984375 253.0078125 263.680664062 271.532226562 c 0,117,118
 264.538085938 279.583007812 264.538085938 279.583007812 264.827148438 293.311523438 c 0,98,99
EndSplineSet
EndChar

StartChar: skald
Encoding: 101 101 54
GlifName: fontawesome-webfont-5
Width: 512
GlyphClass: 2
Flags: W
LayerCount: 2
Fore
SplineSet
189.829101562 171.662109375 m 5,0,-1
 21.3603515625 238.958984375 l 5,1,-1
 189.6484375 305.35546875 l 5,2,-1
 255.994140625 473.655273438 l 5,3,-1
 323.400390625 305.104492188 l 5,4,-1
 490.647460938 238.44140625 l 5,5,-1
 322.69921875 170.193359375 l 5,6,-1
 256.580078125 4.3564453125 l 5,7,-1
 189.829101562 171.662109375 l 5,0,-1
EndSplineSet
EndChar

StartChar: sorcerer
Encoding: 102 102 55
GlifName: fontawesome-webfont-6
Width: 512
GlyphClass: 2
Flags: W
LayerCount: 2
Fore
SplineSet
103.1015625 203.5625 m 5,0,-1
 196.86328125 313.270507812 l 5,1,-1
 114.961914062 285.665039062 l 5,2,-1
 8.9951171875 402.985351562 l 5,3,-1
 502.993164062 402.985351562 l 5,4,-1
 396.588867188 285.668945312 l 5,5,-1
 314.55078125 313.270507812 l 5,6,7
 375.989257812 239.033203125 375.989257812 239.033203125 406.495117188 202.345703125 c 5,8,-1
 255.404296875 49.0185546875 l 5,9,-1
 103.1015625 203.5625 l 5,0,-1
299.8515625 193.653320312 m 5,10,-1
 255.359375 255.7578125 l 5,11,-1
 201.977539062 193.653320312 l 5,12,-1
 255.359375 141.502929688 l 5,13,-1
 299.8515625 193.653320312 l 5,10,-1
EndSplineSet
EndChar

StartChar: spiritmaster
Encoding: 103 103 56
GlifName: fontawesome-webfont-7
Width: 512
GlyphClass: 2
Flags: W
LayerCount: 2
Fore
SplineSet
255.819335938 10.0048828125 m 4,0,1
 248.310546875 14.0810546875 248.310546875 14.0810546875 246.704101562 25.283203125 c 132,-1,2
 245.09765625 36.4853515625 245.09765625 36.4853515625 244.095703125 91.740234375 c 6,3,-1
 242.83203125 161.411132812 l 5,4,-1
 229.525390625 149.629882812 l 6,5,6
 216.203125 137.838867188 216.203125 137.838867188 208.588867188 133.404296875 c 6,7,-1
 200.955078125 128.961914062 l 5,8,-1
 191.045898438 136.80859375 l 6,9,10
 181.142578125 144.655273438 181.142578125 144.655273438 181.142578125 150.366210938 c 4,11,12
 181.142578125 156.91796875 181.142578125 156.91796875 197.669921875 175.66015625 c 132,-1,13
 214.197265625 194.401367188 214.197265625 194.401367188 224.814453125 199.88671875 c 6,14,-1
 236.51953125 205.936523438 l 5,15,-1
 214.581054688 231.3359375 l 6,16,17
 192.615234375 256.772460938 192.615234375 256.772460938 163.12890625 288.188476562 c 132,-1,18
 133.552734375 319.70703125 133.552734375 319.70703125 111.647460938 345.290039062 c 132,-1,19
 89.669921875 370.950195312 89.669921875 370.950195312 70.212890625 386.329101562 c 6,20,-1
 50.755859375 401.721679688 l 5,21,-1
 49.2001953125 410.923828125 l 5,22,-1
 47.646484375 420.130859375 l 5,23,-1
 55.560546875 432.779296875 l 6,24,25
 68.2490234375 453.065429688 68.2490234375 453.065429688 74.2919921875 453.125976562 c 132,-1,26
 80.3349609375 453.186523438 80.3349609375 453.186523438 102.405273438 433.25 c 6,27,-1
 125.270507812 412.60546875 l 5,28,-1
 140.15625 387.891601562 l 6,29,30
 175.505859375 329.20703125 175.505859375 329.20703125 200.211914062 310.15625 c 4,31,32
 213.80078125 299.673828125 213.80078125 299.673828125 226.767578125 285.930664062 c 4,33,34
 230.2734375 282.21484375 230.2734375 282.21484375 233.333007812 279.146484375 c 132,-1,35
 236.392578125 276.078125 236.392578125 276.078125 238.25390625 274.405273438 c 132,-1,36
 240.116210938 272.731445312 240.116210938 272.731445312 240.256835938 272.932617188 c 4,37,38
 241.076171875 274.09375 241.076171875 274.09375 236.33203125 347.065429688 c 132,-1,39
 231.587890625 420.037109375 231.587890625 420.037109375 229.49609375 438.435546875 c 6,40,-1
 226.57421875 464.143554688 l 5,41,-1
 232.330078125 469.899414062 l 5,42,-1
 238.08203125 475.655273438 l 5,43,-1
 256.177734375 472.189453125 l 6,44,45
 274.661132812 468.653320312 274.661132812 468.653320312 278.723632812 466.5546875 c 132,-1,46
 282.78515625 464.456054688 282.78515625 464.456054688 283.83203125 457.899414062 c 4,47,48
 293.374023438 398.26171875 293.374023438 398.26171875 296.588867188 316.133789062 c 6,49,-1
 298.046875 278.763671875 l 5,50,-1
 301.185546875 283.474609375 l 6,51,52
 304.30078125 288.159179688 304.30078125 288.159179688 362.68359375 367.7734375 c 132,-1,53
 421.05078125 447.372070312 421.05078125 447.372070312 427.392578125 460.309570312 c 132,-1,54
 433.743164062 473.252929688 433.743164062 473.252929688 437.734375 473.252929688 c 4,55,56
 440.396484375 473.252929688 440.396484375 473.252929688 447.931640625 463.455078125 c 132,-1,57
 455.466796875 453.658203125 455.466796875 453.658203125 461.456054688 442.409179688 c 6,58,-1
 464.353515625 436.966796875 l 5,59,-1
 451.71875 413.376953125 l 6,60,61
 439.081054688 389.780273438 439.081054688 389.780273438 413.813476562 359.805664062 c 4,62,63
 377.32421875 316.506835938 377.32421875 316.506835938 346.491210938 273.268554688 c 132,-1,64
 315.659179688 230.03125 315.659179688 230.03125 318.233398438 225.770507812 c 4,65,66
 320.01953125 222.827148438 320.01953125 222.827148438 338.864257812 200.745117188 c 4,67,68
 355.678710938 181.033203125 355.678710938 181.033203125 357 174.072265625 c 132,-1,69
 358.3203125 167.111328125 358.3203125 167.111328125 347.459960938 155.442382812 c 6,70,-1
 337.176757812 144.3984375 l 5,71,-1
 330.33984375 145.848632812 l 6,72,73
 323.50390625 147.299804688 323.50390625 147.299804688 311.173828125 162.688476562 c 4,74,75
 307.836914062 166.852539062 307.836914062 166.852539062 304.9140625 170.3203125 c 132,-1,76
 301.991210938 173.788085938 301.991210938 173.788085938 300.19921875 175.71875 c 132,-1,77
 298.407226562 177.649414062 298.407226562 177.649414062 298.248046875 177.48828125 c 4,78,79
 297.658203125 176.8984375 297.658203125 176.8984375 302.638671875 104.729492188 c 6,80,-1
 307.615234375 32.560546875 l 5,81,-1
 304.685546875 19.4580078125 l 5,82,-1
 301.751953125 6.3525390625 l 5,83,-1
 281.967773438 6.453125 l 6,84,85
 262.176757812 6.55078125 262.176757812 6.55078125 255.819335938 10.0048828125 c 4,0,1
EndSplineSet
EndChar

StartChar: thane
Encoding: 104 104 57
GlifName: fontawesome-webfont-8
Width: 512
GlyphClass: 2
Flags: W
LayerCount: 2
Fore
SplineSet
225.401367188 29.396484375 m 5,0,-1
 197.966796875 29.396484375 l 5,1,-1
 185.192382812 38.138671875 l 5,2,-1
 203.137695312 285.822265625 l 5,3,-1
 35.998046875 285.822265625 l 5,4,-1
 93.9443359375 431.520507812 l 5,5,-1
 164.143554688 431.520507812 l 5,6,-1
 171.454101562 451.918945312 l 5,7,-1
 341.03515625 451.918945312 l 5,8,-1
 348.344726562 431.520507812 l 5,9,-1
 417.943359375 431.520507812 l 5,10,-1
 476.005859375 285.822265625 l 5,11,-1
 309.155273438 285.822265625 l 5,12,-1
 325.934570312 38.138671875 l 5,13,-1
 314.521484375 29.396484375 l 5,14,-1
 286.594726562 29.396484375 l 5,15,-1
 286.594726562 6.0849609375 l 5,16,-1
 225.401367188 6.0849609375 l 5,17,-1
 225.401367188 29.396484375 l 5,0,-1
EndSplineSet
EndChar

StartChar: theurgist
Encoding: 105 105 58
GlifName: fontawesome-webfont
Width: 512
GlyphClass: 2
Flags: W
LayerCount: 2
Fore
SplineSet
152.115234375 30.0439453125 m 4,0,1
 82.96484375 49.513671875 82.96484375 49.513671875 44.5234375 101.22265625 c 132,-1,2
 6.08203125 152.932617188 6.08203125 152.932617188 11.0703125 215.578125 c 132,-1,3
 16.0595703125 278.22265625 16.0595703125 278.22265625 65.1103515625 327.454101562 c 4,4,5
 103.13671875 365.619140625 103.13671875 365.619140625 159.704101562 375.564453125 c 132,-1,6
 216.271484375 385.509765625 216.271484375 385.509765625 258.024414062 361.372070312 c 4,7,8
 269.801757812 354.561523438 269.801757812 354.561523438 270.913085938 358.155273438 c 4,9,10
 287.59765625 411.8203125 287.59765625 411.8203125 336.341796875 427.887695312 c 132,-1,11
 385.084960938 443.954101562 385.084960938 443.954101562 426.0546875 409.291992188 c 4,12,13
 448.538085938 390.271484375 448.538085938 390.271484375 457.19140625 344.657226562 c 132,-1,14
 465.844726562 299.041992188 465.844726562 299.041992188 453.040039062 267.0390625 c 4,15,16
 445.725585938 248.744140625 445.725585938 248.744140625 448.5234375 247.8125 c 4,17,18
 481.073242188 236.961914062 481.073242188 236.961914062 496.978515625 194.067382812 c 132,-1,19
 512.884765625 151.171875 512.884765625 151.171875 498.696289062 112.509765625 c 4,20,21
 487.639648438 82.38671875 487.639648438 82.38671875 457.228515625 65.6962890625 c 132,-1,22
 426.817382812 49.005859375 426.817382812 49.005859375 391.21875 51.916015625 c 132,-1,23
 355.619140625 54.8271484375 355.619140625 54.8271484375 330.610351562 77.4208984375 c 6,24,-1
 319.90625 87.0927734375 l 5,25,-1
 306.98046875 73.2705078125 l 6,26,27
 280.530273438 44.9951171875 280.530273438 44.9951171875 234.95703125 32.2744140625 c 132,-1,28
 189.383789062 19.5546875 189.383789062 19.5546875 152.115234375 30.0439453125 c 4,0,1
235.196289062 67.427734375 m 4,29,30
 278.505859375 82.376953125 278.505859375 82.376953125 294.662109375 116.092773438 c 132,-1,31
 310.818359375 149.807617188 310.818359375 149.807617188 294.833007812 191.879882812 c 4,32,33
 279.62890625 231.893554688 279.62890625 231.893554688 248.999023438 250.838867188 c 132,-1,34
 218.370117188 269.784179688 218.370117188 269.784179688 186.081054688 261.146484375 c 132,-1,35
 153.791992188 252.508789062 153.791992188 252.508789062 134.1171875 218.208007812 c 4,36,37
 117.3984375 189.0625 117.3984375 189.0625 127.7890625 165.776367188 c 132,-1,38
 138.1796875 142.491210938 138.1796875 142.491210938 169.009765625 140.016601562 c 4,39,40
 197.840820312 137.701171875 197.840820312 137.701171875 208.926757812 154.946289062 c 132,-1,41
 220.01171875 172.19140625 220.01171875 172.19140625 210.470703125 204.514648438 c 6,42,-1
 206.471679688 218.079101562 l 5,43,-1
 213.376953125 209.791015625 l 6,44,45
 247.84375 168.43359375 247.84375 168.43359375 236.041015625 136.90625 c 132,-1,46
 224.23828125 105.379882812 224.23828125 105.379882812 174.4140625 105.717773438 c 4,47,48
 132.47265625 106.001953125 132.47265625 106.001953125 108.86328125 131.455078125 c 132,-1,49
 85.25390625 156.908203125 85.25390625 156.908203125 89.3115234375 194.180664062 c 132,-1,50
 93.3701171875 231.453125 93.3701171875 231.453125 125.298828125 263.293945312 c 4,51,52
 154.014648438 291.9296875 154.014648438 291.9296875 191.502929688 296.07421875 c 132,-1,53
 228.990234375 300.219726562 228.990234375 300.219726562 260.513671875 283.83203125 c 132,-1,54
 292.038085938 267.443359375 292.038085938 267.443359375 313.986328125 232.400390625 c 132,-1,55
 335.934570312 197.357421875 335.934570312 197.357421875 336.0078125 153.755859375 c 4,56,57
 336.0703125 114.685546875 336.0703125 114.685546875 363.853515625 96.0771484375 c 132,-1,58
 391.637695312 77.4677734375 391.637695312 77.4677734375 429.803710938 90.9326171875 c 4,59,60
 454.736328125 99.73046875 454.736328125 99.73046875 465.565429688 123.552734375 c 132,-1,61
 476.39453125 147.374023438 476.39453125 147.374023438 468.943359375 173.227539062 c 132,-1,62
 461.4921875 199.081054688 461.4921875 199.081054688 438.122070312 213.245117188 c 4,63,64
 413.758789062 228.010742188 413.758789062 228.010742188 397.94140625 211.741210938 c 132,-1,65
 382.123046875 195.471679688 382.123046875 195.471679688 395.565429688 169.474609375 c 4,66,67
 405.146484375 150.948242188 405.146484375 150.948242188 422.763671875 158.081054688 c 132,-1,68
 440.381835938 165.21484375 440.381835938 165.21484375 433.224609375 184.720703125 c 6,69,-1
 430.106445312 193.213867188 l 5,70,-1
 438.15625 183.545898438 l 6,71,72
 456.956054688 160.959960938 456.956054688 160.959960938 448.2734375 141.005859375 c 132,-1,73
 439.590820312 121.051757812 439.590820312 121.051757812 411.9609375 123.341796875 c 132,-1,74
 384.186523438 125.646484375 384.186523438 125.646484375 368.305664062 147.7890625 c 132,-1,75
 352.424804688 169.932617188 352.424804688 169.932617188 356.05859375 197.75390625 c 132,-1,76
 359.692382812 225.575195312 359.692382812 225.575195312 382.71484375 242.661132812 c 4,77,78
 416.268554688 267.557617188 416.268554688 267.557617188 424.7265625 292.935546875 c 132,-1,79
 433.185546875 318.313476562 433.185546875 318.313476562 420.200195312 355.12109375 c 4,80,81
 409.462890625 385.5546875 409.462890625 385.5546875 381.3203125 394.61328125 c 132,-1,82
 353.177734375 403.671875 353.177734375 403.671875 329.100585938 388.002929688 c 132,-1,83
 305.0234375 372.334960938 305.0234375 372.334960938 304.52734375 340.478515625 c 6,84,-1
 304.263671875 323.452148438 l 5,85,-1
 316.244140625 314.966796875 l 6,86,87
 346.649414062 293.432617188 346.649414062 293.432617188 372.426757812 308.647460938 c 4,88,89
 395.686523438 322.377929688 395.686523438 322.377929688 378.63671875 347.466796875 c 6,90,-1
 371.508789062 357.958984375 l 5,91,-1
 381.993164062 351.322265625 l 6,92,93
 404.665039062 336.973632812 404.665039062 336.973632812 404.23828125 313.389648438 c 132,-1,94
 403.8125 289.805664062 403.8125 289.805664062 380.696289062 279.5078125 c 4,95,96
 328.760742188 256.370117188 328.760742188 256.370117188 272.431640625 306.569335938 c 4,97,98
 238.067382812 337.194335938 238.067382812 337.194335938 196.595703125 341.83984375 c 132,-1,99
 155.123046875 346.485351562 155.123046875 346.485351562 121.713867188 329.107421875 c 132,-1,100
 88.3046875 311.73046875 88.3046875 311.73046875 66.4189453125 274.12890625 c 132,-1,101
 44.533203125 236.52734375 44.533203125 236.52734375 46.4013671875 188.999023438 c 4,102,103
 48.0146484375 147.963867188 48.0146484375 147.963867188 77.5244140625 114.176757812 c 132,-1,104
 107.034179688 80.388671875 107.034179688 80.388671875 150.895507812 66.9296875 c 132,-1,105
 194.7578125 53.470703125 194.7578125 53.470703125 235.196289062 67.427734375 c 4,29,30
EndSplineSet
EndChar

